<svg width="63" height="97" viewBox="0 0 63 97" fill="none" xmlns="http://www.w3.org/2000/svg">
<path d="M57.179 40.4862H5.62651C5.62651 40.4862 9.92255 89.7255 10.253 92.6997C10.5835 95.6738 11.0792 96.5 14.7143 96.5H48.4217C50.5697 96.5 52.5525 95.0129 52.7177 92.6997C52.883 90.3864 57.179 40.4862 57.179 40.4862Z" fill="#97B2CB"/>
<path d="M59.1618 33.216C59.1618 33.216 61.9707 33.7117 61.9707 36.3554C61.9707 38.9991 59.1618 39.1644 59.1618 39.1644H3.97418C3.97418 39.1644 1 39.3296 1 36.3554C1 33.3812 3.97418 33.216 3.97418 33.216H10.5835L5.62651 21.154L11.5749 7.43976L29.5852 0.5L33.716 10.0908L46.2737 7.43976L62.6317 17.8494L53.2134 33.216H59.1618Z" fill="#97B2CB"/>
<path d="M17.1928 33.216L31.4028 10.5792M17.1928 33.216H53.2134M17.1928 33.216H10.5835M31.4028 10.5792L40.3253 15.8666L46.2737 7.43976M31.4028 10.5792L33.716 10.0908M46.2737 7.43976L62.6317 17.8494L53.2134 33.216M46.2737 7.43976L33.716 10.0908M53.2134 33.216H59.1618C59.1618 33.216 61.9707 33.7117 61.9707 36.3554C61.9707 38.9991 59.1618 39.1644 59.1618 39.1644H3.97418C3.97418 39.1644 1 39.3296 1 36.3554C1 33.3812 3.97418 33.216 3.97418 33.216H10.5835M10.5835 33.216L5.62651 21.154M5.62651 21.154L11.5749 7.43976M5.62651 21.154L15.21 16.6928L11.5749 7.43976M11.5749 7.43976L29.5852 0.5L33.716 10.0908M5.62651 40.4862H57.179C57.179 40.4862 52.883 90.3864 52.7177 92.6997C52.5525 95.0129 50.5697 96.5 48.4217 96.5C46.2737 96.5 18.3494 96.5 14.7143 96.5C11.0792 96.5 10.5835 95.6738 10.253 92.6997C9.92255 89.7255 5.62651 40.4862 5.62651 40.4862Z" stroke="#1D1D1F" stroke-width="0.5"/>
<path d="M40.3257 15.8663L31.4032 10.5789L33.7165 10.0905L46.2741 7.43945L40.3257 15.8663Z" fill="#44627F"/>
<path d="M11.5753 7.43945L5.62695 21.1537L15.2104 16.6925L11.5753 7.43945Z" fill="#44627F"/>
<path d="M15.21 45.4434L17.5232 89.5604M23.6368 45.4434L24.7934 89.5604M31.8984 45.4434V89.5604M40.3253 45.4434L39.1687 89.5604M48.7521 45.4434L46.2736 89.5604" stroke="white"/>
<path d="M61.9707 36.3552C61.9707 33.7115 59.1618 33.2158 59.1618 33.2158H53.2134H17.1928H10.5835H3.97418C3.97418 33.2158 1 33.3811 1 36.3552C1 39.3294 3.97418 39.1642 3.97418 39.1642H59.1618C59.1618 39.1642 61.9707 38.999 61.9707 36.3552Z" fill="#44627F" stroke="#1D1D1F" stroke-width="0.5"/>
</svg>
