<svg width="208" height="208" viewBox="0 0 208 208" fill="none" xmlns="http://www.w3.org/2000/svg">
<circle cx="104" cy="104" r="104" fill="#97B2CB"/>
<path d="M22.0127 43.2971C22.4919 20.2939 26.3258 5.91693 26.3258 5.91693L108.594 4C108.594 4 103.802 20.9329 103.802 32.9137C103.802 44.8946 108.594 58.9919 108.594 58.9919C121 82 128.749 88.0256 128.749 88.0256C134.5 96.8115 138.886 101.199 147.494 118.058C150.022 123.059 151.355 125.927 152.045 132.332C152.288 138.766 152.339 142.377 152.045 148.811C152.484 157.228 152.684 161.946 149.489 170.294L75.6868 204C75.6868 204 82.0767 161.508 70.7347 141.7C59.3928 121.891 34.7922 88.0256 34.7922 88.0256C34.7922 88.0256 21.5335 66.3003 22.0127 43.2971Z" fill="white" stroke="#1D1D1F" stroke-width="0.6"/>
<path d="M36.2305 34.6709L95.3359 28.4409M36.2305 44.5751L95.3359 38.3451M37.3487 54.3195L96.4541 48.0895M42.6202 76.3642L84.7928 68.271M46.1346 84.1917L78.175 77.3227M49.8087 91.2205L75.4461 84.1917M62.5883 108.153L73.2851 105.438M66.5819 114.543L75.6811 112.147M71.2145 121.252L79.6096 118.697M82.5563 144.256L103.676 136.588M85.911 154.16L137.828 133.553M88.1474 161.987L140.982 139.943" stroke="#97B2CB"/>
<path d="M136.07 129.616C132.73 131.785 128.725 133.726 123.93 135.31C116.259 137.843 109.52 137.962 103.675 136.588C92.4541 133.951 84.5244 125.813 79.6092 118.697C77.9664 116.318 76.6604 114.054 75.6807 112.147C74.2819 109.425 73.5485 107.431 73.4505 106.876C73.4108 106.65 73.3469 106.156 73.2847 105.438C72.9832 101.953 72.7215 93.1872 75.4457 84.1919C76.1431 81.889 77.0363 79.571 78.1746 77.3228C79.8191 74.0748 81.9753 70.9723 84.7923 68.2711C89.7867 63.482 96.858 59.9541 106.837 59.112C107.43 59.0619 108.016 59.0221 108.594 58.9921C144.925 57.1091 152.045 94.2558 152.045 94.2558C152.045 94.2558 154.581 106.354 147.494 118.058C146.175 120.235 144.523 122.399 142.46 124.469C140.66 126.274 138.548 128.007 136.07 129.616Z" fill="#44627F"/>
<path d="M82.5555 105.438C81.7567 102.083 77.7631 69.6549 106.837 66.9393C109.04 66.7334 111.115 66.7158 113.067 66.8589C136.865 68.6039 142.46 94.2556 142.46 94.2556C142.46 94.2556 143.415 100.667 140.982 108.153C138.854 114.698 134.138 122.064 123.929 126.684C102.044 136.588 83.3542 108.792 82.5555 105.438Z" fill="white" fill-opacity="0.65"/>
<path d="M143.738 136.588C140.703 131.476 136.07 129.616 136.07 129.616C138.548 128.007 140.66 126.273 142.46 124.468C142.46 124.468 142.141 126.045 150.447 131.316C150.966 131.645 151.499 131.984 152.045 132.332C160.248 137.565 171.453 145.004 182.236 155.438C182.236 155.438 189.105 162.466 182.236 169.176C175.367 175.885 165.144 166.46 163.387 164.383C162.372 163.185 156.995 155.813 152.045 148.811C148.418 143.681 145.021 138.749 143.738 136.588Z" fill="#5D707E" stroke="#1D1D1F" stroke-width="0.6"/>
<path d="M95.3359 85.1503L106.837 96.8117L95.3359 108.154C95.3359 108.154 93.7384 111.828 96.4541 113.904C99.1698 115.981 102.045 113.904 102.045 113.904L113.068 102.562L124.569 114.543C124.569 114.543 128.243 116.46 130.639 113.904C133.036 111.348 130.639 108.154 130.639 108.154L119.298 96.8117L128.749 88.0257L130.639 86.2686C130.639 86.2686 131.758 83.2334 129.361 81.3165C126.965 79.3995 123.93 81.3165 123.93 81.3165L113.068 91.2206L101.246 79.5593C101.246 79.5593 99.01 77.8021 96.4541 79.5593C93.8982 81.3165 95.3359 85.1503 95.3359 85.1503Z" fill="white" stroke="#97B2CB" stroke-width="0.6"/>
</svg>
