<svg width="289" height="208" viewBox="0 0 289 208" fill="none" xmlns="http://www.w3.org/2000/svg">
<circle cx="145" cy="104" r="104" fill="#97B2CB"/>
<path d="M171.807 87.3999V100.2H195.406C195.406 100.2 204.206 100.6 210.206 106.6C216.206 112.6 218.606 131.4 218.606 131.4V179.4C216.091 194.448 208.206 205.8 192.606 206.2C178.105 206.572 156.251 200.791 134.055 192.2C122.872 191.877 117.066 190.507 108.206 184.232C107.46 184.23 106.602 184.036 105.806 183.4C103.806 181.8 105.006 178.78 105.006 178.78L102.206 180.6C102.206 180.6 98.2064 181.8 96.6064 180.2C95.0064 178.6 97.4064 175.8 97.4064 175.8L95.4057 176.6C95.4057 176.6 92.6057 177.8 91.8057 175.4C91.4829 174.432 91.4204 173.463 91.6972 172.6L41.0064 167C36.2818 165.998 33.9246 164.948 31.4064 160.2L13.0064 110.6C13.2185 106.886 13.4064 105 18.2064 105H48.2064L40.6064 87.4C39.4227 83.5971 39.1059 81.5141 40.6064 78.0922L37.8063 73.2541C35.4876 73.6424 32.9604 73.8382 30.2064 73.7999C1.4066 73.3997 1.00642 45.8 1.00642 45.8C1.00642 45.8 -0.074543 16.9742 25.8062 13.6982V8.2H21.8062V5H35.0063V8.2H30.2064V13.4C57.1891 13.0449 62.113 36.324 62.8791 43.8C62.8791 43.8 65.4062 41.4 67.8063 42.2C70.2063 43 71.4062 44.1999 71.4062 45.8C71.4062 47.1742 68.4557 58.5804 67.8762 63.8C71.4206 64.1897 73.5382 64.2232 75.4064 66.9999C75.4064 66.9999 86.2064 117.8 90.6064 117C95.0064 116.2 121.006 99.3999 132.606 98.2C144.206 97 149.007 99.3999 149.007 99.3999L149.562 85.7999C149.562 85.7999 138.206 78.6 135.008 74.5999C131.809 70.5999 129.808 66.9999 131.008 58.1999C132.208 49.3999 139.808 48.5999 139.808 48.5999C139.808 48.5999 139.511 45.7874 139.843 42.2H85.4064V3H288.606V42.2H188.697C187.505 46.0302 184.208 46.9999 184.208 46.9999C184.208 46.9999 190.208 54.5999 191.008 62.5999C191.808 70.5999 190.608 73.3999 187.408 79.7999C184.208 86.1999 171.807 87.3999 171.807 87.3999Z" fill="white"/>
<path d="M149.007 99.3999C149.007 99.3999 152.206 103.8 159.807 103.8C167.408 103.8 171.807 100.2 171.807 100.2M149.007 99.3999L149.562 85.7999M149.007 99.3999C149.007 99.3999 144.206 97 132.606 98.2C121.006 99.3999 95.0064 116.2 90.6064 117C86.2064 117.8 75.4064 66.9999 75.4064 66.9999M171.807 100.2V87.3999M171.807 100.2H195.406C195.406 100.2 204.206 100.6 210.206 106.6C216.206 112.6 218.606 131.4 218.606 131.4V179.4C216.091 194.448 208.206 205.8 192.606 206.2C178.105 206.572 156.251 200.791 134.055 192.2M171.807 87.3999C171.807 87.3999 184.208 86.1999 187.408 79.7999C190.608 73.3999 191.808 70.5999 191.008 62.5999C190.208 54.5999 184.208 46.9999 184.208 46.9999M171.807 87.3999C168.67 87.4742 166.921 87.2342 163.808 86.5999M184.208 46.9999C184.208 46.9999 181.808 48.5999 178.608 49.7999C175.408 50.9999 172.608 48.1999 171.408 48.5999C170.208 48.9999 169.808 52.5999 165.008 53.7999C160.208 54.9999 153.007 55.3999 153.007 55.3999C153.007 55.3999 155.406 58.5999 155.807 61.3999C156.208 64.1999 155.807 68.9999 155.807 68.9999C155.807 68.9999 145.007 60.9999 141.007 67.3999C137.007 73.7999 149.807 79.7999 149.807 79.7999L149.562 85.7999M184.208 46.9999C184.208 46.9999 187.505 46.0302 188.697 42.2M148.608 68.1999C148.608 68.1999 146.208 69.3999 145.808 71.7999C145.408 74.1999 148.608 75.3999 148.608 75.3999M163.808 63.7999C164.775 62.0574 165.466 61.2802 167.808 61.3999M176.608 58.1999C177.572 56.62 178.231 55.8608 180.208 55.3999M167.808 78.1999C170.739 77.5542 172.347 77.3577 174.608 79.7999M173.008 60.5999C173.008 60.5999 180.208 66.1999 181.408 68.9999C182.608 71.7999 178.608 73.3999 178.608 73.3999M149.562 85.7999C149.562 85.7999 138.206 78.6 135.008 74.5999C131.809 70.5999 129.808 66.9999 131.008 58.1999C132.208 49.3999 139.808 48.5999 139.808 48.5999C139.808 48.5999 139.511 45.7874 139.843 42.2M185.806 133.8L184.606 169.8L138.206 159.4L136.891 163.8M136.891 163.8L116.606 158.2C116.606 158.2 115.132 157.791 113.406 157.527M136.891 163.8L130.559 185M109.406 163C107.806 162.6 107.006 160.2 108.206 158.2C108.863 157.105 111.319 157.209 113.406 157.527M109.406 163C111.006 163.4 115.406 163.4 115.406 164.6C115.406 165.8 99.0069 169 95.4057 169.8C93.2575 170.277 92.1065 171.324 91.6972 172.6M109.406 163C109.406 163 105.935 163.771 102.206 163.707M105.406 172.6L97.4064 175.8M97.4064 175.8L95.4057 176.6C95.4057 176.6 92.6057 177.8 91.8057 175.4C91.4829 174.432 91.4204 173.463 91.6972 172.6M97.4064 175.8C97.4064 175.8 95.0064 178.6 96.6064 180.2C98.2064 181.8 102.206 180.6 102.206 180.6L105.006 178.78M110.206 175.4L105.006 178.78M105.006 178.78C105.006 178.78 103.806 181.8 105.806 183.4C106.602 184.036 107.46 184.23 108.206 184.232M118.206 177.4L113.406 181.24M113.406 181.24L110.206 183.8C110.206 183.8 109.335 184.235 108.206 184.232M113.406 181.24C113.406 181.24 113.006 184.2 114.606 185.4C116.206 186.6 118.606 185.4 118.606 185.4C118.606 185.4 123.006 181.8 124.206 182.2C125.406 182.6 130.559 185 130.559 185M130.559 185L129.006 190.2C130.689 190.882 132.373 191.549 134.055 192.2M134.055 192.2C122.872 191.877 117.066 190.507 108.206 184.232M91.6972 172.6L41.0064 167C36.2818 165.998 33.9246 164.948 31.4064 160.2L13.0064 110.6M13.0064 110.6L71.4064 111.8C75.7591 112.004 79.0064 111.4 80.6064 116.2C82.2064 121 92.6064 161.4 97.4064 163C98.8736 163.489 100.565 163.679 102.206 163.707M13.0064 110.6C13.2185 106.886 13.4064 105 18.2064 105C20.7207 105 34.6491 105 48.2064 105M102.206 163.707L98.3939 152.2M113.406 157.527L116.231 146.2M125.006 111L116.231 146.2M75.4064 66.9999C75.4064 66.9999 74.1993 69.7855 72.143 73.2541M75.4064 66.9999C73.5382 64.2232 71.4206 64.1897 67.8762 63.8M40.6064 87.4L48.2064 105M40.6064 87.4C40.6064 87.4 42.9375 87.7067 46.2062 87.7676M40.6064 87.4C39.4227 83.5971 39.1059 81.5141 40.6064 78.0922M48.2064 105C60.5312 105 72.5493 105 75.4064 105C81.4064 105 83.3041 107.353 85.4064 113L98.3939 152.2M98.3939 152.2C106.287 151.576 110.507 150.846 116.231 146.2M30.2064 13.4C57.1891 13.0449 62.113 36.324 62.8791 43.8M30.2064 13.4C28.6593 13.4203 27.194 13.5225 25.8062 13.6982M30.2064 13.4V8.2H35.0063V5H21.8062V8.2H25.8062V13.6982M46.2062 87.7676C51.2845 87.8622 58.626 87.3636 63.0064 84.2C66.7374 81.5053 69.9314 76.9847 72.143 73.2541M46.2062 87.7676L40.6064 78.0922M37.8063 73.2541C35.4876 73.6424 32.9604 73.8382 30.2064 73.7999C1.4066 73.3997 1.00642 45.8 1.00642 45.8C1.00642 45.8 -0.074543 16.9742 25.8062 13.6982M37.8063 73.2541C59.7347 69.5819 63.0064 48.6942 63.0064 45.8C63.0064 45.4402 62.9761 44.7468 62.8791 43.8M37.8063 73.2541L40.6064 78.0922M72.143 73.2541C72.143 73.2541 68.2063 69 67.8063 65.8C67.7498 65.3484 67.781 64.6577 67.8762 63.8M62.8791 43.8C62.8791 43.8 65.4063 41.4 67.8063 42.2C70.2063 43 71.4062 44.1999 71.4062 45.8C71.4062 47.1742 68.4557 58.5804 67.8762 63.8M139.843 42.2C140.281 37.4476 141.821 31.3352 146.608 28.5999C155.008 23.7999 162.208 26.5999 165.008 25.7999C167.808 24.9999 168.608 22.9999 173.008 23.3999C177.408 23.7999 186.208 25.7999 188.608 35.3999C189.336 38.3152 189.217 40.5296 188.697 42.2M139.843 42.2H85.4064V3H288.606V42.2H188.697M167.008 64.1999C166.208 64.9999 167.808 66.9999 167.808 66.9999C167.808 66.9999 169.008 68.5999 170.208 67.3999C171.408 66.1999 169.808 64.9999 169.808 64.9999C169.808 64.9999 167.808 63.3999 167.008 64.1999ZM179.278 58.3294C178.478 59.1294 180.078 61.1294 180.078 61.1294C180.078 61.1294 181.278 62.7294 182.478 61.5294C183.678 60.3294 182.078 59.1294 182.078 59.1294C182.078 59.1294 180.078 57.5294 179.278 58.3294Z" stroke="#1D1D1F" stroke-width="0.4"/>
<path d="M191.008 30.6V15H197.807V30.6H191.008Z" fill="#97B2CB"/>
<path d="M203.407 30.6V15H263.007V30.6H203.407Z" fill="#97B2CB"/>
<path d="M7.80534 45.7994C7.80534 45.7994 6.20568 19.3995 30.2055 18.9995C54.2053 18.5995 55.8053 45.7994 55.8053 45.7994C55.8053 45.7994 53.8053 67.7995 30.2053 67.3995C6.60534 66.9995 7.80534 45.7994 7.80534 45.7994Z" fill="#97B2CB"/>
<path d="M115.405 164.6C115.405 163.4 111.005 163.4 109.405 163C109.405 163 105.934 163.771 102.206 163.707C100.564 163.679 98.8731 163.489 97.4059 163C92.6059 161.4 82.2059 121 80.6059 116.2C79.0059 111.4 75.7586 112.003 71.4059 111.8L13.0059 110.6L31.4059 160.2C33.924 164.948 36.2812 165.997 41.0059 167L91.6967 172.6C92.1059 171.323 93.2569 170.277 95.4051 169.8C99.0063 169 115.405 165.8 115.405 164.6Z" fill="#5D707E" stroke="#1D1D1F" stroke-width="0.4"/>
<path d="M40.6077 87.3998C40.6077 87.3998 42.9388 87.7065 46.2076 87.7674L40.6077 78.0921C39.1072 81.5139 39.424 83.5969 40.6077 87.3998Z" fill="#5D707E"/>
<path d="M72.1443 73.2539C74.2006 69.7854 75.4077 66.9997 75.4077 66.9997C73.5395 64.2231 71.4219 64.1895 67.8775 63.7998C67.7823 64.6575 67.7511 65.3482 67.8076 65.7998C68.2076 68.9998 72.1443 73.2539 72.1443 73.2539Z" fill="#5D707E"/>
<path d="M40.6077 87.3998C40.6077 87.3998 42.9388 87.7065 46.2076 87.7674L40.6077 78.0921C39.1072 81.5139 39.424 83.5969 40.6077 87.3998Z" stroke="#1D1D1F" stroke-width="0.4"/>
<path d="M72.1443 73.2539C74.2006 69.7854 75.4077 66.9997 75.4077 66.9997C73.5395 64.2231 71.4219 64.1895 67.8775 63.7998C67.7823 64.6575 67.7511 65.3482 67.8076 65.7998C68.2076 68.9998 72.1443 73.2539 72.1443 73.2539Z" stroke="#1D1D1F" stroke-width="0.4"/>
<path d="M149.008 99.4C149.008 99.4 152.207 103.8 159.808 103.8C167.409 103.8 171.808 100.2 171.808 100.2H195.407C195.407 100.2 204.207 100.6 210.207 106.6C216.207 112.6 218.607 131.4 218.607 131.4V179.4C216.092 194.448 208.207 205.8 192.607 206.2C178.106 206.572 156.252 200.791 134.056 192.2C122.873 191.877 117.067 190.508 108.207 184.232C109.336 184.236 110.207 183.8 110.207 183.8L113.407 181.24C113.407 181.24 113.007 184.2 114.607 185.4C116.207 186.6 118.607 185.4 118.607 185.4C118.607 185.4 123.007 181.8 124.207 182.2C125.407 182.6 130.56 185 130.56 185L136.892 163.8L116.607 158.2C116.607 158.2 115.133 157.791 113.407 157.527L116.232 146.2C110.508 150.846 106.288 151.576 98.3949 152.2L85.4074 113C83.305 107.353 81.4074 105 75.4074 105H48.2074L40.6074 87.4C40.6074 87.4 42.9385 87.7067 46.2072 87.7677C51.2855 87.8623 58.627 87.3637 63.0074 84.2C66.7384 81.5054 69.9324 76.9848 72.144 73.2542C74.2003 69.7856 75.4074 67 75.4074 67C75.4074 67 86.2074 117.8 90.6074 117C95.0074 116.2 121.007 99.4 132.607 98.2C144.207 97.0001 149.008 99.4 149.008 99.4Z" fill="#44627F"/>
<path d="M185.807 133.8L184.607 169.8L138.207 159.4L136.892 163.8M136.892 163.8L116.607 158.2C116.607 158.2 115.133 157.791 113.407 157.527L116.232 146.2M136.892 163.8L130.56 185M130.56 185L129.007 190.2C130.69 190.882 132.374 191.549 134.056 192.2M130.56 185C130.56 185 125.407 182.6 124.207 182.2C123.007 181.8 118.607 185.4 118.607 185.4C118.607 185.4 116.207 186.6 114.607 185.4C113.007 184.2 113.407 181.24 113.407 181.24L110.207 183.8C110.207 183.8 109.336 184.236 108.207 184.232C117.067 190.508 122.873 191.877 134.056 192.2M134.056 192.2C156.252 200.791 178.106 206.572 192.607 206.2C208.207 205.8 216.092 194.448 218.607 179.4V131.4C218.607 131.4 216.207 112.6 210.207 106.6C204.207 100.6 195.407 100.2 195.407 100.2H171.808C171.808 100.2 167.409 103.8 159.808 103.8C152.207 103.8 149.008 99.4 149.008 99.4C149.008 99.4 144.207 97.0001 132.607 98.2C121.007 99.4 95.0074 116.2 90.6074 117C86.2074 117.8 75.4074 67 75.4074 67C75.4074 67 74.2003 69.7856 72.144 73.2542C69.9324 76.9848 66.7384 81.5054 63.0074 84.2C58.627 87.3637 51.2855 87.8623 46.2072 87.7677C42.9385 87.7067 40.6074 87.4 40.6074 87.4L48.2074 105C60.5322 105 72.5503 105 75.4074 105C81.4074 105 83.305 107.353 85.4074 113L98.3949 152.2C106.288 151.576 110.508 150.846 116.232 146.2M125.007 111L116.232 146.2" stroke="#1D1D1F" stroke-width="0.4"/>
<path d="M109.406 163C107.806 162.6 107.006 160.2 108.206 158.2C108.863 157.105 111.319 157.209 113.407 157.528L116.231 146.2C110.508 150.847 106.288 151.576 98.3945 152.2L102.207 163.708C105.936 163.772 109.406 163 109.406 163Z" fill="#97B2CB" stroke="#1D1D1F" stroke-width="0.4"/>
<path d="M155.807 61.4C155.407 58.6 153.007 55.4 153.007 55.4C153.007 55.4 160.208 55 165.008 53.8C169.808 52.6 170.208 49 171.408 48.6C172.608 48.2 175.408 51 178.608 49.8C181.808 48.6 184.208 47 184.208 47C184.208 47 187.505 46.0302 188.697 42.2C189.217 40.5297 189.337 38.3152 188.608 35.4C186.208 25.8 177.408 23.8 173.008 23.4C168.608 23 167.808 25 165.008 25.8C162.208 26.6 155.008 23.8 146.608 28.6C141.821 31.3352 140.282 37.4476 139.843 42.2C139.512 45.7875 139.808 48.6 139.808 48.6C139.808 48.6 132.208 49.4 131.008 58.2C129.808 67 131.81 70.5999 135.008 74.6C138.206 78.6 149.562 85.8 149.562 85.8L149.807 79.8C149.807 79.8 137.007 73.8 141.007 67.4C145.007 61 155.807 69 155.807 69C155.807 69 156.208 64.2 155.807 61.4Z" fill="#5D707E" stroke="#1D1D1F" stroke-width="0.4"/>
</svg>
