<svg width="135" height="128" viewBox="0 0 135 128" fill="none" xmlns="http://www.w3.org/2000/svg">
<path d="M86.505 21.4087L93.8153 22.453L105.883 24.15L103.801 42.0341L97.9202 92.5533L86.0996 91.2479L86.505 21.4087Z" fill="#97B2CB" fill-opacity="0.2"/>
<path d="M86.505 15.6648V21.4086L86.0996 91.2478L81.4721 69.1865L71.8121 65.1397L63.0077 22.4529L34.1582 28.3297V15.6648H86.505Z" fill="white" fill-opacity="0.4"/>
<path d="M18.7537 23.6279C20.1896 29.6327 27.761 29.6327 27.761 29.6327L34.1575 28.3297V15.6649H86.5042V21.4087L93.8145 22.453L90.6694 7.83244L88.9845 0L23.9753 13.3151C23.9753 13.3151 17.3177 17.623 18.7537 23.6279Z" fill="#5D707E"/>
<path d="M18.7539 23.6277C20.1899 29.6326 27.7612 29.6326 27.7612 29.6326L34.1577 28.3296L63.0072 22.4529L71.8116 65.1397L81.4716 69.1864L86.0991 91.2478L87.0849 95.9473L57.9743 101.978L36.0435 106.521L22.9894 43.9345L18.7539 23.6277Z" fill="#44627F"/>
<path d="M87.0852 95.9475L86.0994 91.248L97.9201 92.5534L103.801 42.0342L118.023 45.4282L102.358 112.657L57.9746 101.978L87.0852 95.9475Z" fill="#97B2CB" fill-opacity="0.45"/>
<path d="M105.883 24.15L93.815 22.453L90.6699 7.83244C90.6699 7.83244 95.0504 5.48271 98.9643 6.65758C102.878 7.83244 108.888 10.9654 111.366 13.3151C113.844 15.6649 126.25 34.9849 129.511 47.9084C132.772 60.8319 136.823 79.2382 131.469 95.9474C126.114 112.657 110.45 124.014 105.883 125.841C101.316 127.669 93.6347 128.387 80.0359 127.799C66.4372 127.211 41.6569 121.142 36.0437 118.4C30.4305 115.659 -0.76875 98.036 0.0144936 73.3638C0.797737 48.6917 22.9896 43.9346 22.9896 43.9346L36.0437 106.521L57.9745 101.978L102.358 112.657L118.023 45.4281L103.801 42.0341L105.883 24.15Z" fill="#97B2CB"/>
</svg>
