<svg width="20" height="20" viewBox="0 0 20 20" fill="none" xmlns="http://www.w3.org/2000/svg">
<g clip-path="url(#clip0_1164_2965)">
<path d="M19.5844 14.9981L12.5194 2.01072C11.3843 0.0997462 8.61722 0.0972072 7.48058 2.01072L0.415894 14.9981C-0.744497 16.9508 0.660386 19.4235 2.93472 19.4235H17.065C19.3375 19.4235 20.7448 16.9528 19.5844 14.9981ZM10 17.0797C9.35398 17.0797 8.82812 16.5539 8.82812 15.9079C8.82812 15.2619 9.35398 14.736 10 14.736C10.646 14.736 11.1719 15.2619 11.1719 15.9079C11.1719 16.5539 10.646 17.0797 10 17.0797ZM11.1719 12.3922C11.1719 13.0383 10.646 13.5641 10 13.5641C9.35398 13.5641 8.82812 13.0383 8.82812 12.3922V6.53287C8.82812 5.88686 9.35398 5.361 10 5.361C10.646 5.361 11.1719 5.88686 11.1719 6.53287V12.3922Z" fill="white"/>
</g>
<defs>
<clipPath id="clip0_1164_2965">
<rect width="20" height="20" fill="white"/>
</clipPath>
</defs>
</svg>
