<svg width="24" height="24" viewBox="0 0 24 24" fill="none" xmlns="http://www.w3.org/2000/svg">
<path d="M23.5013 17.9977L15.0233 2.41292C13.6612 0.119744 10.3407 0.116698 8.9767 2.41292L0.499073 17.9977C-0.893396 20.341 0.792463 23.3082 3.52167 23.3082H20.478C23.2049 23.3082 24.8938 20.3434 23.5013 17.9977ZM12 20.4957C11.2248 20.4957 10.5937 19.8647 10.5937 19.0895C10.5937 18.3143 11.2248 17.6832 12 17.6832C12.7752 17.6832 13.4062 18.3143 13.4062 19.0895C13.4062 19.8647 12.7752 20.4957 12 20.4957ZM13.4062 14.8707C13.4062 15.646 12.7752 16.277 12 16.277C11.2248 16.277 10.5937 15.646 10.5937 14.8707V7.83949C10.5937 7.06428 11.2248 6.43324 12 6.43324C12.7752 6.43324 13.4062 7.06428 13.4062 7.83949V14.8707Z" fill="#44627F"/>
</svg>
