<svg width="64" height="64" viewBox="0 0 64 64" fill="none" xmlns="http://www.w3.org/2000/svg">
<path d="M62.6702 47.9937L40.0621 6.43424C36.4297 0.319115 27.5751 0.31099 23.9379 6.43424L1.33086 47.9937C-2.38239 54.2424 2.11324 62.1551 9.39111 62.1551H54.6081C61.8799 62.1551 66.3835 54.2487 62.6702 47.9937ZM32 54.6551C29.9327 54.6551 28.25 52.9724 28.25 50.9051C28.25 48.8379 29.9327 47.1551 32 47.1551C34.0672 47.1551 35.75 48.8379 35.75 50.9051C35.75 52.9724 34.0672 54.6551 32 54.6551ZM35.75 39.6551C35.75 41.7224 34.0672 43.4051 32 43.4051C29.9327 43.4051 28.25 41.7224 28.25 39.6551V20.9051C28.25 18.8379 29.9327 17.1551 32 17.1551C34.0672 17.1551 35.75 18.8379 35.75 20.9051V39.6551Z" fill="#44627F"/>
</svg>
