<svg width="17" height="17" viewBox="0 0 17 17" fill="none" xmlns="http://www.w3.org/2000/svg">
<path d="M15.4162 4.11112C15.4162 3.56595 15.1997 3.04311 14.8142 2.65762C14.4287 2.27213 13.9058 2.05556 13.3607 2.05556H12.8468V1.55613C12.8468 1.27959 12.6342 1.04224 12.3576 1.02843C12.2881 1.02508 12.2187 1.03587 12.1535 1.06016C12.0883 1.08444 12.0288 1.1217 11.9784 1.16969C11.928 1.21768 11.8879 1.27539 11.8605 1.33933C11.8331 1.40327 11.819 1.47211 11.819 1.54167V2.05556H4.62457V1.55613C4.62457 1.27959 4.41194 1.04224 4.13541 1.02843C4.06593 1.02508 3.99649 1.03587 3.9313 1.06016C3.86611 1.08444 3.80653 1.1217 3.75617 1.16969C3.70581 1.21768 3.66572 1.27539 3.63832 1.33933C3.61092 1.40327 3.59679 1.47211 3.59679 1.54167V2.05556H3.0829C2.53773 2.05556 2.01489 2.27213 1.6294 2.65762C1.24391 3.04311 1.02734 3.56595 1.02734 4.11112V4.49654C1.02734 4.53061 1.04088 4.56329 1.06497 4.58738C1.08907 4.61147 1.12174 4.62501 1.15582 4.62501H15.2878C15.3218 4.62501 15.3545 4.61147 15.3786 4.58738C15.4027 4.56329 15.4162 4.53061 15.4162 4.49654V4.11112Z" fill="#5E6F7F"/>
<path d="M1.02734 13.3612C1.02734 13.9063 1.24391 14.4292 1.6294 14.8147C2.01489 15.2002 2.53773 15.4167 3.0829 15.4167H13.3607C13.9058 15.4167 14.4287 15.2002 14.8142 14.8147C15.1997 14.4292 15.4162 13.9063 15.4162 13.3612V5.7813C15.4162 5.74723 15.4027 5.71455 15.3786 5.69046C15.3545 5.66637 15.3218 5.65283 15.2878 5.65283H1.15582C1.12174 5.65283 1.08907 5.66637 1.06497 5.69046C1.04088 5.71455 1.02734 5.74723 1.02734 5.7813V13.3612Z" fill="#5E6F7F"/>
</svg>
