<svg width="16" height="16" viewBox="0 0 16 16" fill="none" xmlns="http://www.w3.org/2000/svg">
<path d="M12.5522 15H5.92064C5.35531 15 4.81314 14.7629 4.41339 14.341C4.01364 13.919 3.78906 13.3467 3.78906 12.75V5.75C3.78906 5.15326 4.01364 4.58097 4.41339 4.15901C4.81314 3.73705 5.35531 3.5 5.92064 3.5H12.5522C13.1176 3.5 13.6597 3.73705 14.0595 4.15901C14.4592 4.58097 14.6838 5.15326 14.6838 5.75V12.75C14.6838 13.3467 14.4592 13.919 14.0595 14.341C13.6597 14.7629 13.1176 15 12.5522 15V15Z" fill="#44627F"/>
<path d="M5.21037 2.5H12.1937C12.0463 2.06164 11.774 1.68215 11.4142 1.41359C11.0544 1.14503 10.6247 1.00056 10.1841 1H3.55248C2.98715 1 2.44497 1.23705 2.04522 1.65901C1.64547 2.08097 1.4209 2.65326 1.4209 3.25V10.25C1.42143 10.7151 1.5583 11.1687 1.81272 11.5485C2.06714 11.9283 2.42666 12.2157 2.84195 12.3713V5C2.84195 4.33696 3.09148 3.70107 3.53565 3.23223C3.97981 2.76339 4.58223 2.5 5.21037 2.5V2.5Z" fill="#44627F"/>
</svg>
