<svg width="24" height="24" viewBox="0 0 24 24" fill="none" xmlns="http://www.w3.org/2000/svg">
<g clip-path="url(#clip0_735_15841)">
<path d="M24 11.6501C23.9922 11.5061 23.9337 11.3695 23.8349 11.2646C23.736 11.1596 23.6032 11.093 23.46 11.0766L21.9808 10.8372C21.9142 10.8263 21.853 10.7941 21.8062 10.7456C21.7594 10.697 21.7296 10.6346 21.7212 10.5678C21.6929 10.386 21.6635 10.1974 21.6231 10.0185C21.6101 9.95347 21.6177 9.88598 21.6449 9.82547C21.6721 9.76497 21.7175 9.71447 21.7748 9.68102L23.089 8.95122C23.2195 8.88469 23.321 8.77253 23.3742 8.63605C23.4274 8.49957 23.4286 8.34831 23.3775 8.21103L23.1496 7.58218C23.0996 7.44443 23.0006 7.32995 22.8715 7.26065C22.7424 7.19136 22.5922 7.17211 22.4498 7.2066L20.9758 7.49506C20.9099 7.50684 20.8419 7.49751 20.7816 7.4684C20.7213 7.43929 20.6718 7.39189 20.64 7.33295C20.554 7.17199 20.4606 7.00814 20.3631 6.84718C20.3277 6.78983 20.3111 6.72285 20.3156 6.65561C20.3202 6.58837 20.3456 6.52423 20.3885 6.47218L21.3692 5.3391C21.4689 5.23214 21.5261 5.09254 21.5302 4.94643C21.5344 4.80031 21.4851 4.6577 21.3917 4.54526L20.9637 4.03122C20.8705 3.9184 20.7389 3.84414 20.5941 3.82282C20.4494 3.80151 20.3019 3.83465 20.1802 3.91584L18.8896 4.69064C18.8324 4.72493 18.7657 4.7399 18.6993 4.73336C18.6329 4.72681 18.5704 4.69909 18.521 4.6543C18.3785 4.52911 18.2325 4.40853 18.0958 4.29718C18.0433 4.25577 18.0054 4.19871 17.9875 4.13428C17.9697 4.06986 17.9728 4.00142 17.9965 3.93891L18.5308 2.53122C18.589 2.39691 18.5958 2.2459 18.5499 2.10689C18.5041 1.96788 18.4088 1.85055 18.2821 1.77719L17.7 1.43738C17.5732 1.36429 17.424 1.34053 17.2808 1.37065C17.1376 1.40078 17.0106 1.48267 16.924 1.60065L15.9808 2.78565C15.9468 2.83715 15.896 2.87523 15.8371 2.89334C15.7781 2.91145 15.7147 2.90846 15.6577 2.88488C15.6225 2.87045 15.3248 2.74872 15.0935 2.67141C15.03 2.65073 14.9748 2.61029 14.936 2.556C14.8972 2.50171 14.8768 2.43642 14.8777 2.36968L14.9002 0.865647C14.9082 0.718786 14.8625 0.574031 14.7715 0.458489C14.6804 0.342947 14.5504 0.264542 14.4058 0.237956L13.7452 0.122571C13.6013 0.0977064 13.4532 0.125938 13.3285 0.202019C13.2038 0.278101 13.111 0.396859 13.0673 0.536225L12.5769 1.96757C12.5547 2.03111 12.5126 2.08584 12.457 2.12374C12.4013 2.16163 12.335 2.1807 12.2677 2.17815H11.7052C11.6384 2.17952 11.5729 2.15979 11.518 2.12178C11.4631 2.08376 11.4216 2.02939 11.3994 1.96642L10.9114 0.543148C10.8684 0.402764 10.7758 0.282848 10.6508 0.205855C10.5258 0.128862 10.377 0.100073 10.2323 0.124879L9.57058 0.240263C9.42685 0.26664 9.29757 0.344277 9.20674 0.458761C9.11592 0.573245 9.06973 0.716796 9.07674 0.862763L9.09981 2.37199C9.10027 2.43973 9.07885 2.50581 9.03872 2.56038C8.99859 2.61496 8.94191 2.65512 8.87712 2.67488C8.74501 2.72622 8.45828 2.83584 8.32789 2.8843C8.21251 2.92584 8.08674 2.88026 7.9852 2.76315L7.04712 1.6093C6.96105 1.49061 6.83415 1.40792 6.6908 1.37714C6.54745 1.34637 6.39779 1.36967 6.27058 1.44257L5.6902 1.77892C5.56215 1.85241 5.46583 1.97071 5.41981 2.111C5.37379 2.2513 5.38133 2.40366 5.44097 2.53872L5.97462 3.94295C5.9979 4.00559 6.00096 4.07396 5.98337 4.13843C5.96578 4.2029 5.92842 4.26024 5.87655 4.30237C5.73635 4.41776 5.5927 4.53314 5.44962 4.66122C5.40049 4.70567 5.33843 4.73323 5.27252 4.73987C5.2066 4.74651 5.14029 4.73189 5.08328 4.69814L3.8077 3.90834C3.68522 3.82866 3.53787 3.79642 3.3933 3.81767C3.24874 3.83891 3.11689 3.91218 3.02251 4.02372L2.59616 4.5366C2.50146 4.64827 2.45127 4.79095 2.45521 4.93732C2.45915 5.08369 2.51694 5.22346 2.61751 5.32987L3.60289 6.4618C3.64662 6.5128 3.67276 6.57654 3.67744 6.64356C3.68211 6.71058 3.66508 6.77733 3.62885 6.83391C3.5302 6.99083 3.43616 7.15583 3.35078 7.32083C3.31884 7.38019 3.26892 7.4279 3.20818 7.45713C3.14745 7.48636 3.07901 7.4956 3.0127 7.48353L1.54097 7.1991C1.39848 7.16472 1.24831 7.184 1.11913 7.25328C0.989947 7.32255 0.890792 7.43696 0.840586 7.57468L0.609817 8.20237C0.55881 8.33983 0.560003 8.49122 0.613169 8.62786C0.666335 8.7645 0.767781 8.87688 0.898279 8.94372L2.21251 9.67352C2.27161 9.70614 2.31849 9.75711 2.34607 9.81872C2.37365 9.88034 2.38044 9.94925 2.36539 10.0151L2.35155 10.0883C2.32155 10.2493 2.29386 10.4016 2.26732 10.5637C2.25814 10.6298 2.22832 10.6912 2.1821 10.7393C2.13589 10.7874 2.07565 10.8196 2.01001 10.8314L0.527894 11.0708C0.382952 11.0886 0.249442 11.1586 0.1523 11.2676C0.0551569 11.3766 0.00102374 11.5173 9.83692e-06 11.6633V12.3314C-0.000834823 12.478 0.0527433 12.6197 0.15037 12.729C0.247997 12.8384 0.382726 12.9076 0.528471 12.9233L2.01001 13.1622C2.07658 13.173 2.13786 13.2051 2.18466 13.2537C2.23146 13.3022 2.26127 13.3647 2.26962 13.4316C2.29789 13.6139 2.32732 13.802 2.3677 13.9808C2.38071 14.0459 2.37309 14.1134 2.34588 14.1739C2.31868 14.2344 2.27326 14.2849 2.21597 14.3183L0.902317 15.0493C0.771819 15.1158 0.670323 15.228 0.617136 15.3645C0.563949 15.5009 0.562782 15.6522 0.613856 15.7895L0.844625 16.4183C0.894715 16.556 0.993761 16.6704 1.12285 16.7397C1.25193 16.809 1.40202 16.8283 1.54443 16.7939L3.01847 16.5083C3.08439 16.4964 3.1524 16.5056 3.21274 16.5347C3.27307 16.5639 3.32261 16.6114 3.35424 16.6704C3.44078 16.832 3.53366 16.9952 3.63116 17.1562C3.66674 17.2135 3.68343 17.2805 3.67888 17.3478C3.67432 17.4151 3.64875 17.4792 3.60578 17.5312L2.62501 18.6637C2.52421 18.7699 2.46565 18.9092 2.46034 19.0555C2.45503 19.2018 2.50333 19.3449 2.59616 19.4581L3.02366 19.9722C3.11671 20.0851 3.2484 20.1594 3.39317 20.1808C3.53794 20.2021 3.68547 20.1689 3.80712 20.0876L5.0977 19.3127C5.15492 19.2785 5.22165 19.2635 5.28803 19.27C5.35441 19.2766 5.41693 19.3043 5.46635 19.3491C5.60943 19.4743 5.75481 19.5949 5.89155 19.7062C5.94398 19.7477 5.9819 19.8047 5.99983 19.8691C6.01777 19.9335 6.0148 20.0019 5.99135 20.0645L5.45655 21.4722C5.39837 21.6065 5.39155 21.7575 5.43739 21.8965C5.48323 22.0355 5.57854 22.1528 5.7052 22.2262L6.28847 22.5631C6.41515 22.6363 6.56437 22.6601 6.70755 22.6301C6.85072 22.6001 6.9778 22.5183 7.06443 22.4004L8.01924 21.2264C8.10001 21.1266 8.22693 21.0822 8.32097 21.1202C8.52174 21.2033 8.65616 21.25 8.89443 21.3297C8.9579 21.3504 9.0131 21.3908 9.052 21.4451C9.09091 21.4994 9.1115 21.5646 9.11077 21.6314L9.0877 23.1343C9.07991 23.2811 9.12578 23.4257 9.21675 23.5412C9.30771 23.6567 9.43757 23.7352 9.58212 23.762L10.2427 23.8774C10.3867 23.9025 10.5348 23.8743 10.6596 23.7982C10.7843 23.7221 10.8771 23.6032 10.9206 23.4637L11.411 22.0347C11.4332 21.9711 11.4752 21.9163 11.5309 21.8784C11.5865 21.8405 11.6529 21.8214 11.7202 21.8241H12.2827C12.3495 21.8226 12.415 21.8423 12.4699 21.8803C12.5248 21.9184 12.5663 21.9728 12.5885 22.0358L13.0771 23.4591C13.115 23.5826 13.1914 23.6908 13.2952 23.7678C13.3991 23.8447 13.5248 23.8863 13.654 23.8866C13.6885 23.8867 13.7229 23.8836 13.7567 23.8774L14.4185 23.762C14.5622 23.7356 14.6915 23.658 14.7823 23.5435C14.8731 23.429 14.9193 23.2854 14.9123 23.1395L14.8892 21.6302C14.8888 21.5637 14.9095 21.4988 14.9484 21.4449C14.9873 21.391 15.0423 21.3508 15.1056 21.3302C15.3271 21.2558 15.4829 21.1958 15.6196 21.1427L15.6542 21.1295C15.8331 21.0677 15.9196 21.1427 15.9698 21.205L16.9362 22.3952C17.0228 22.513 17.1497 22.5946 17.2928 22.6247C17.4358 22.6547 17.5849 22.6309 17.7115 22.5579L18.2925 22.2216C18.4196 22.1482 18.5152 22.0306 18.561 21.8911C18.6069 21.7517 18.5998 21.6003 18.5412 21.4658L18.0081 20.0616C17.9846 19.999 17.9813 19.9306 17.9988 19.8661C18.0163 19.8016 18.0537 19.7443 18.1056 19.7022C18.2458 19.5868 18.3894 19.4714 18.5325 19.3433C18.5819 19.2987 18.6444 19.2712 18.7106 19.2648C18.7769 19.2583 18.8435 19.2733 18.9006 19.3076L20.1923 20.0806C20.3148 20.1604 20.4621 20.1927 20.6067 20.1715C20.7513 20.1502 20.8832 20.0769 20.9775 19.9652L21.4044 19.4518C21.4991 19.3401 21.5493 19.1974 21.5454 19.0511C21.5414 18.9047 21.4837 18.7649 21.3831 18.6585L20.3988 17.5237C20.3551 17.4727 20.329 17.409 20.3243 17.3419C20.3196 17.2749 20.3367 17.2082 20.3729 17.1516C20.4715 16.9952 20.5656 16.8302 20.651 16.6647C20.683 16.6054 20.733 16.5578 20.7937 16.5286C20.8544 16.4994 20.9227 16.4901 20.989 16.502L22.459 16.7887C22.6015 16.8231 22.7517 16.8038 22.8809 16.7345C23.0101 16.6653 23.1092 16.5508 23.1594 16.4131L23.3873 15.7854C23.4383 15.6481 23.4371 15.4968 23.3839 15.3602C23.3307 15.2237 23.2293 15.1114 23.0988 15.0447L21.7835 14.3137C21.7252 14.2808 21.6791 14.2299 21.6519 14.1687C21.6248 14.1075 21.6181 14.0392 21.6329 13.9739L21.6467 13.9006C21.6767 13.7397 21.7044 13.5874 21.731 13.4253C21.7401 13.3592 21.77 13.2977 21.8162 13.2497C21.8624 13.2016 21.9226 13.1693 21.9883 13.1576L23.4704 12.9187C23.6157 12.9012 23.7496 12.8313 23.8471 12.7221C23.9446 12.6129 23.9989 12.472 24 12.3256V11.6501ZM7.70481 17.0731C7.63292 17.1981 7.53239 17.3043 7.41148 17.3829C7.29058 17.4615 7.15275 17.5103 7.00931 17.5253C6.86588 17.5403 6.72094 17.521 6.5864 17.4691C6.45186 17.4172 6.33157 17.3341 6.23539 17.2266C4.93567 15.7895 4.21803 13.9197 4.22251 11.982C4.22699 10.0444 4.95327 8.17787 6.25962 6.7468C6.3563 6.63938 6.47711 6.55647 6.61211 6.5049C6.74711 6.45333 6.89243 6.43457 7.0361 6.45018C7.17977 6.46579 7.31767 6.51531 7.43845 6.59466C7.55923 6.67402 7.65942 6.78093 7.73078 6.9066L10.3644 11.5422C10.4435 11.6804 10.4851 11.8369 10.4851 11.9962C10.4851 12.1555 10.4435 12.312 10.3644 12.4502L7.70481 17.0731ZM12 19.795C11.451 19.7952 10.9035 19.7372 10.3667 19.622C10.2269 19.5907 10.0964 19.527 9.98578 19.4359C9.87517 19.3448 9.78758 19.2289 9.7301 19.0977C9.67262 18.9664 9.64688 18.8235 9.65494 18.6804C9.66301 18.5374 9.70467 18.3982 9.77654 18.2743L12.4304 13.6589C12.5102 13.5198 12.6253 13.4043 12.7641 13.324C12.9029 13.2436 13.0604 13.2014 13.2208 13.2014H18.5365C18.6797 13.2012 18.821 13.2347 18.9488 13.2992C19.0766 13.3638 19.1874 13.4575 19.2723 13.5729C19.3571 13.6882 19.4136 13.8219 19.4371 13.9632C19.4606 14.1044 19.4506 14.2492 19.4077 14.3858C18.3987 17.5197 15.4615 19.795 12 19.795ZM12.4333 10.3393L9.8077 5.71584C9.73654 5.59168 9.6956 5.45253 9.68817 5.30962C9.68075 5.16672 9.70705 5.02407 9.76495 4.89321C9.82286 4.76235 9.91074 4.64695 10.0215 4.55634C10.1322 4.46572 10.2628 4.40244 10.4025 4.3716C10.9278 4.26091 11.4632 4.20522 12 4.20545C15.4615 4.20545 18.3987 6.48083 19.406 9.61641C19.4488 9.75303 19.4589 9.89783 19.4354 10.0391C19.4118 10.1803 19.3554 10.314 19.2705 10.4294C19.1857 10.5447 19.0749 10.6385 18.9471 10.703C18.8192 10.7675 18.678 10.8011 18.5348 10.8008H13.2271C13.0658 10.8011 12.9072 10.7586 12.7677 10.6775C12.6283 10.5964 12.5128 10.4797 12.4333 10.3393Z" fill="#44627F"/>
</g>
<defs>
<clipPath id="clip0_735_15841">
<rect width="24" height="24" fill="white"/>
</clipPath>
</defs>
</svg>
