<svg width="20" height="20" viewBox="0 0 20 20" fill="none" xmlns="http://www.w3.org/2000/svg">
<g clip-path="url(#clip0_1164_2948)">
<path d="M20 9.70818C19.9935 9.58821 19.9448 9.4744 19.8624 9.38693C19.78 9.29946 19.6694 9.24397 19.55 9.2303L18.3173 9.03078C18.2619 9.02168 18.2108 8.99491 18.1719 8.95444C18.1329 8.91398 18.108 8.862 18.101 8.80626C18.0774 8.65481 18.0529 8.4976 18.0192 8.34857C18.0084 8.29436 18.0147 8.23811 18.0374 8.18769C18.0601 8.13727 18.0979 8.09519 18.1457 8.06732L19.2409 7.45914C19.3496 7.40371 19.4342 7.31024 19.4785 7.1965C19.5228 7.08277 19.5238 6.95672 19.4812 6.84232L19.2913 6.31828C19.2497 6.20349 19.1672 6.10809 19.0596 6.05034C18.952 5.9926 18.8269 5.97656 18.7082 6.0053L17.4798 6.24568C17.4249 6.2555 17.3683 6.24773 17.318 6.22347C17.2678 6.19921 17.2265 6.1597 17.2 6.11059C17.1284 5.97645 17.0505 5.83991 16.9692 5.70578C16.9397 5.65799 16.9259 5.60217 16.9297 5.54614C16.9335 5.4901 16.9547 5.43665 16.9904 5.39328L17.8077 4.44905C17.8907 4.35991 17.9384 4.24358 17.9419 4.12182C17.9453 4.00006 17.9043 3.88121 17.8264 3.78751L17.4697 3.35915C17.3921 3.26513 17.2824 3.20324 17.1618 3.18548C17.0412 3.16772 16.9182 3.19534 16.8168 3.26299L15.7413 3.90867C15.6937 3.93723 15.6381 3.94971 15.5827 3.94426C15.5274 3.93881 15.4753 3.91571 15.4341 3.87838C15.3154 3.77405 15.1938 3.67357 15.0798 3.58078C15.0361 3.54627 15.0045 3.49872 14.9896 3.44503C14.9747 3.39135 14.9774 3.33432 14.9971 3.28222L15.4423 2.10915C15.4908 1.99722 15.4965 1.87138 15.4583 1.75554C15.4201 1.63969 15.3407 1.54192 15.2351 1.48078L14.75 1.19761C14.6444 1.1367 14.52 1.1169 14.4007 1.14201C14.2814 1.16711 14.1755 1.23536 14.1034 1.33367L13.3173 2.32117C13.289 2.36409 13.2467 2.39582 13.1976 2.41091C13.1484 2.426 13.0956 2.42351 13.0481 2.40386C13.0188 2.39184 12.7707 2.2904 12.5779 2.22598C12.525 2.20874 12.479 2.17504 12.4467 2.1298C12.4143 2.08455 12.3973 2.03015 12.3981 1.97453L12.4168 0.721169C12.4235 0.598785 12.3854 0.478156 12.3095 0.381871C12.2337 0.285586 12.1254 0.220248 12.0048 0.198093L11.4543 0.101939C11.3344 0.0812185 11.211 0.104745 11.1071 0.168146C11.0032 0.231547 10.9259 0.330512 10.8894 0.44665L10.4808 1.63944C10.4622 1.69239 10.4272 1.738 10.3808 1.76958C10.3344 1.80116 10.2791 1.81705 10.2231 1.81492H9.75433C9.69869 1.81606 9.64412 1.79962 9.59837 1.76794C9.55262 1.73626 9.51803 1.69096 9.49952 1.63848L9.09279 0.45242C9.05701 0.335433 8.97981 0.235503 8.87564 0.171342C8.77148 0.107181 8.6475 0.0831905 8.52693 0.103862L7.97549 0.200016C7.85571 0.221996 7.74797 0.286694 7.67229 0.382097C7.5966 0.4775 7.5581 0.597127 7.56395 0.718765L7.58318 1.97646C7.58356 2.0329 7.5657 2.08797 7.53227 2.13345C7.49883 2.17893 7.45159 2.21239 7.3976 2.22886C7.2875 2.27165 7.04856 2.36299 6.93991 2.40338C6.84376 2.43799 6.73895 2.40001 6.65433 2.30242L5.8726 1.34088C5.80088 1.24197 5.69512 1.17307 5.57567 1.14742C5.45621 1.12177 5.33149 1.14119 5.22549 1.20194L4.74183 1.48223C4.63512 1.54348 4.55486 1.64205 4.51651 1.75897C4.47816 1.87588 4.48444 2.00284 4.53414 2.1154L4.97885 3.28559C4.99825 3.33779 5.0008 3.39476 4.98614 3.44849C4.97148 3.50222 4.94035 3.55 4.89712 3.58511C4.78029 3.68126 4.66058 3.77742 4.54135 3.88415C4.50041 3.92119 4.44869 3.94415 4.39376 3.94969C4.33883 3.95522 4.28357 3.94304 4.23606 3.91492L3.17308 3.25674C3.07101 3.19035 2.94822 3.16348 2.82775 3.18119C2.70728 3.19889 2.59741 3.25994 2.51876 3.3529L2.16347 3.7803C2.08455 3.87336 2.04273 3.99226 2.04601 4.11423C2.04929 4.2362 2.09745 4.35268 2.18126 4.44136L3.00241 5.38463C3.03885 5.42713 3.06063 5.48024 3.06453 5.53609C3.06843 5.59195 3.05423 5.64757 3.02405 5.69472C2.94183 5.82549 2.86347 5.96299 2.79231 6.10049C2.7657 6.14995 2.7241 6.18971 2.67348 6.21407C2.62287 6.23843 2.56584 6.24613 2.51058 6.23607L1.28414 5.99905C1.1654 5.9704 1.04026 5.98647 0.932607 6.04419C0.824956 6.10192 0.742327 6.19726 0.700489 6.31203L0.508181 6.8351C0.465675 6.94965 0.466669 7.07581 0.510974 7.18968C0.555279 7.30354 0.639817 7.3972 0.748566 7.45289L1.84376 8.06107C1.89301 8.08825 1.93208 8.13072 1.95506 8.18207C1.97804 8.23341 1.9837 8.29084 1.97116 8.34568L1.95962 8.40674C1.93462 8.54087 1.91155 8.6678 1.88943 8.80289C1.88179 8.85794 1.85693 8.90916 1.81842 8.94922C1.7799 8.98929 1.72971 9.01615 1.67501 9.02597L0.439912 9.22549C0.319127 9.24032 0.207869 9.2986 0.126916 9.38947C0.0459641 9.48033 0.000853116 9.59755 8.19743e-06 9.71924V10.276C-0.000695686 10.3981 0.0439527 10.5162 0.125308 10.6073C0.206664 10.6984 0.318939 10.7561 0.440393 10.7692L1.67501 10.9683C1.73049 10.9773 1.78155 11.004 1.82055 11.0445C1.85955 11.085 1.88439 11.137 1.89135 11.1928C1.91491 11.3447 1.93943 11.5014 1.97308 11.6505C1.98393 11.7047 1.97757 11.7609 1.9549 11.8114C1.93224 11.8618 1.89439 11.9039 1.84664 11.9317L0.751931 12.5409C0.643182 12.5963 0.558603 12.6898 0.51428 12.8035C0.469958 12.9172 0.468985 13.0433 0.511546 13.1577L0.703854 13.6817C0.745596 13.7965 0.828134 13.8918 0.935706 13.9495C1.04328 14.0073 1.16835 14.0233 1.28703 13.9947L2.51539 13.7567C2.57032 13.7468 2.627 13.7545 2.67728 13.7787C2.72756 13.803 2.76884 13.8426 2.7952 13.8918C2.86731 14.0264 2.94472 14.1625 3.02597 14.2966C3.05562 14.3444 3.06953 14.4002 3.06573 14.4563C3.06194 14.5124 3.04063 14.5658 3.00481 14.6091L2.18751 15.5529C2.10351 15.6413 2.05471 15.7574 2.05028 15.8793C2.04586 16.0013 2.08611 16.1206 2.16347 16.2149L2.51972 16.6433C2.59726 16.7374 2.707 16.7993 2.82764 16.8171C2.94828 16.8349 3.07122 16.8072 3.1726 16.7394L4.24808 16.0937C4.29577 16.0652 4.35137 16.0527 4.40669 16.0582C4.46201 16.0636 4.51411 16.0867 4.55529 16.124C4.67453 16.2284 4.79568 16.3288 4.90962 16.4216C4.95332 16.4562 4.98491 16.5037 4.99986 16.5574C5.01481 16.611 5.01233 16.668 4.99279 16.7202L4.54712 17.8933C4.49864 18.0052 4.49296 18.131 4.53116 18.2469C4.56936 18.3627 4.64878 18.4605 4.75433 18.5216L5.24039 18.8024C5.34596 18.8634 5.47031 18.8832 5.58962 18.8582C5.70894 18.8332 5.81483 18.7651 5.88702 18.6668L6.6827 17.6885C6.75001 17.6053 6.85577 17.5683 6.93414 17.6C7.10145 17.6692 7.21347 17.7082 7.41202 17.7745C7.46491 17.7918 7.51091 17.8255 7.54334 17.8707C7.57576 17.9159 7.59292 17.9703 7.59231 18.026L7.57308 19.2784C7.56659 19.4007 7.60481 19.5212 7.68062 19.6175C7.75643 19.7137 7.86465 19.7791 7.9851 19.8014L8.53558 19.8976C8.65554 19.9185 8.77902 19.8951 8.88297 19.8317C8.98692 19.7682 9.06424 19.6691 9.10048 19.5529L9.50914 18.362C9.52763 18.309 9.56265 18.2634 9.60905 18.2318C9.65544 18.2002 9.71075 18.1843 9.76683 18.1865H10.2356C10.2912 18.1853 10.3458 18.2017 10.3916 18.2334C10.4374 18.2651 10.4719 18.3105 10.4904 18.363L10.8976 19.549C10.9291 19.652 10.9928 19.7421 11.0794 19.8063C11.1659 19.8704 11.2707 19.9051 11.3784 19.9053C11.4071 19.9053 11.4357 19.9028 11.4639 19.8976L12.0154 19.8014C12.1352 19.7795 12.2429 19.7148 12.3186 19.6194C12.3943 19.524 12.4328 19.4043 12.4269 19.2827L12.4077 18.025C12.4073 17.9696 12.4246 17.9155 12.457 17.8706C12.4894 17.8256 12.5353 17.7921 12.588 17.775C12.7726 17.713 12.9024 17.663 13.0163 17.6187L13.0452 17.6077C13.1942 17.5562 13.2663 17.6187 13.3082 17.6707L14.1135 18.6625C14.1856 18.7606 14.2914 18.8287 14.4106 18.8537C14.5299 18.8787 14.6541 18.8589 14.7596 18.7981L15.2438 18.5178C15.3497 18.4566 15.4293 18.3586 15.4675 18.2424C15.5058 18.1263 15.4999 18.0001 15.451 17.888L15.0067 16.7178C14.9871 16.6657 14.9844 16.6087 14.999 16.5549C15.0136 16.5012 15.0447 16.4534 15.088 16.4183C15.2048 16.3221 15.3245 16.226 15.4438 16.1192C15.485 16.0821 15.537 16.0591 15.5922 16.0538C15.6474 16.0484 15.7029 16.0609 15.7505 16.0894L16.8269 16.7337C16.929 16.8001 17.0518 16.8271 17.1723 16.8094C17.2928 16.7917 17.4027 16.7305 17.4813 16.6375L17.837 16.2096C17.9159 16.1166 17.9578 15.9977 17.9545 15.8757C17.9512 15.7537 17.903 15.6372 17.8192 15.5486L16.999 14.6029C16.9626 14.5604 16.9408 14.5073 16.9369 14.4514C16.933 14.3956 16.9472 14.3399 16.9774 14.2928C17.0596 14.1625 17.138 14.025 17.2091 13.887C17.2359 13.8377 17.2775 13.798 17.3281 13.7736C17.3786 13.7493 17.4356 13.7415 17.4909 13.7514L18.7159 13.9904C18.8346 14.019 18.9597 14.003 19.0674 13.9452C19.1751 13.8875 19.2577 13.7922 19.2995 13.6774L19.4894 13.1543C19.5319 13.0398 19.5309 12.9138 19.4866 12.8C19.4423 12.6862 19.3577 12.5926 19.249 12.537L18.1529 11.9279C18.1043 11.9004 18.0659 11.8581 18.0433 11.8071C18.0207 11.7561 18.0151 11.6991 18.0274 11.6447L18.0389 11.5837C18.0639 11.4495 18.087 11.3226 18.1091 11.1875C18.1168 11.1325 18.1416 11.0812 18.1801 11.0412C18.2187 11.0011 18.2689 10.9742 18.3236 10.9644L19.5587 10.7654C19.6797 10.7508 19.7914 10.6925 19.8726 10.6016C19.9538 10.5106 19.9991 10.3931 20 10.2712V9.70818ZM6.42068 14.2274C6.36077 14.3316 6.27699 14.4201 6.17624 14.4856C6.07548 14.5511 5.96062 14.5917 5.84109 14.6042C5.72157 14.6167 5.60078 14.6006 5.48867 14.5574C5.37655 14.5141 5.2763 14.4448 5.19616 14.3553C4.11306 13.1577 3.51502 11.5995 3.51876 9.98481C3.52249 8.37009 4.12772 6.81469 5.21635 5.62213C5.29691 5.53261 5.39759 5.46352 5.51009 5.42055C5.62259 5.37757 5.74369 5.36194 5.86342 5.37495C5.98314 5.38795 6.09806 5.42922 6.19871 5.49535C6.29936 5.56148 6.38285 5.65057 6.44231 5.7553L8.63702 9.61827C8.70293 9.73349 8.73759 9.86391 8.73759 9.99664C8.73759 10.1294 8.70293 10.2598 8.63702 10.375L6.42068 14.2274ZM10 16.4957C9.5425 16.4958 9.08627 16.4474 8.63895 16.3514C8.52242 16.3254 8.41366 16.2723 8.32148 16.1964C8.22931 16.1205 8.15632 16.0239 8.10842 15.9145C8.06052 15.8052 8.03906 15.686 8.04579 15.5668C8.05251 15.4476 8.08723 15.3317 8.14712 15.2284L10.3587 11.3822C10.4252 11.2663 10.5211 11.17 10.6368 11.1031C10.7524 11.0361 10.8837 11.0009 11.0173 11.001H15.4471C15.5664 11.0008 15.6841 11.0287 15.7907 11.0825C15.8972 11.1363 15.9895 11.2144 16.0602 11.3105C16.1309 11.4066 16.178 11.5181 16.1976 11.6358C16.2172 11.7535 16.2088 11.8741 16.1731 11.988C15.3322 14.5995 12.8846 16.4957 10 16.4957ZM10.3611 8.61587L8.17308 4.76299C8.11379 4.65953 8.07967 4.54357 8.07348 4.42448C8.06729 4.30539 8.08921 4.18652 8.13746 4.07747C8.18571 3.96842 8.25895 3.87225 8.35124 3.79674C8.44354 3.72123 8.55231 3.6685 8.66875 3.6428C9.10649 3.55055 9.55265 3.50415 10 3.50434C12.8846 3.50434 15.3322 5.40049 16.1716 8.01347C16.2074 8.12732 16.2158 8.24799 16.1961 8.36569C16.1765 8.48339 16.1295 8.59482 16.0588 8.69095C15.9881 8.78707 15.8957 8.86519 15.7892 8.91897C15.6827 8.97275 15.565 9.00067 15.4457 9.00049H11.0226C10.8881 9.00075 10.756 8.96528 10.6398 8.8977C10.5235 8.83012 10.4274 8.73285 10.3611 8.61587Z" fill="white"/>
</g>
<defs>
<clipPath id="clip0_1164_2948">
<rect width="20" height="20" fill="white"/>
</clipPath>
</defs>
</svg>
