<svg width="64" height="64" viewBox="0 0 64 64" fill="none" xmlns="http://www.w3.org/2000/svg">
<path d="M64 31.0662C63.9792 30.6823 63.8233 30.3181 63.5597 30.0382C63.2961 29.7583 62.942 29.5807 62.56 29.5369L58.6154 28.8985C58.438 28.8694 58.2747 28.7837 58.1499 28.6542C58.0252 28.5247 57.9456 28.3584 57.9231 28.18C57.8477 27.6954 57.7692 27.1923 57.6615 26.7154C57.6268 26.5419 57.6472 26.362 57.7197 26.2006C57.7923 26.0393 57.9134 25.9046 58.0662 25.8154L61.5708 23.8693C61.9188 23.6919 62.1894 23.3928 62.3313 23.0288C62.4731 22.6649 62.4762 22.2615 62.34 21.8954L61.7323 20.2185C61.599 19.8512 61.3349 19.5459 60.9906 19.3611C60.6463 19.1763 60.2459 19.125 59.8662 19.217L55.9354 19.9862C55.7596 20.0176 55.5784 19.9927 55.4177 19.9151C55.2569 19.8375 55.1247 19.7111 55.04 19.5539C54.8108 19.1246 54.5615 18.6877 54.3015 18.2585C54.2071 18.1056 54.1629 17.927 54.175 17.7476C54.1871 17.5683 54.2551 17.3973 54.3692 17.2585L56.9846 14.237C57.2503 13.9517 57.4029 13.5795 57.414 13.1898C57.425 12.8002 57.2937 12.4199 57.0446 12.12L55.9031 10.7493C55.6547 10.4484 55.3036 10.2504 54.9177 10.1935C54.5317 10.1367 54.1384 10.2251 53.8139 10.4416L50.3723 12.5077C50.2197 12.5992 50.0418 12.6391 49.8648 12.6216C49.6877 12.6042 49.521 12.5303 49.3892 12.4108C49.0092 12.077 48.62 11.7554 48.2554 11.4585C48.1154 11.3481 48.0143 11.1959 47.9668 11.0241C47.9192 10.8523 47.9276 10.6698 47.9908 10.5031L49.4154 6.74928C49.5705 6.3911 49.5887 5.98842 49.4665 5.61772C49.3442 5.24702 49.0901 4.93414 48.7523 4.73851L47.2 3.83236C46.862 3.63745 46.464 3.57409 46.0822 3.65443C45.7003 3.73477 45.3616 3.95315 45.1308 4.26774L42.6154 7.42774C42.5249 7.56509 42.3894 7.66663 42.2322 7.71492C42.075 7.76321 41.9058 7.75523 41.7539 7.69235C41.66 7.65389 40.8662 7.32928 40.2492 7.12312C40.08 7.06797 39.9329 6.96012 39.8293 6.81535C39.7258 6.67057 39.6713 6.49647 39.6739 6.31851L39.7339 2.30774C39.7553 1.91611 39.6332 1.5301 39.3905 1.22199C39.1478 0.913874 38.8012 0.704794 38.4154 0.633897L36.6539 0.326205C36.27 0.259899 35.8752 0.335183 35.5427 0.538068C35.2103 0.740952 34.9627 1.05764 34.8462 1.42928L33.5385 5.2462C33.4791 5.41564 33.367 5.56159 33.2186 5.66265C33.0702 5.76371 32.8933 5.81456 32.7139 5.80774H31.2139C31.0358 5.8114 30.8612 5.75879 30.7148 5.65742C30.5684 5.55604 30.4577 5.41106 30.3985 5.24312L29.0969 1.44774C28.9824 1.07339 28.7354 0.75361 28.4021 0.548295C28.0687 0.34298 27.672 0.266209 27.2862 0.332359L25.5216 0.640051C25.1383 0.710388 24.7935 0.917421 24.5513 1.22271C24.3091 1.528 24.1859 1.91081 24.2046 2.30005L24.2662 6.32466C24.2674 6.5053 24.2103 6.6815 24.1033 6.82703C23.9962 6.97257 23.8451 7.07966 23.6723 7.13235C23.32 7.26928 22.5554 7.56158 22.2077 7.69081C21.9 7.80158 21.5646 7.68004 21.2939 7.36774L18.7923 4.29082C18.5628 3.9743 18.2244 3.75381 17.8421 3.67173C17.4599 3.58966 17.0608 3.6518 16.7216 3.8462L15.1739 4.74312C14.8324 4.93912 14.5755 5.25457 14.4528 5.62869C14.3301 6.0028 14.3502 6.4091 14.5092 6.76928L15.9323 10.5139C15.9944 10.6809 16.0026 10.8632 15.9557 11.0352C15.9087 11.2071 15.8091 11.36 15.6708 11.4723C15.2969 11.78 14.9139 12.0877 14.5323 12.4293C14.4013 12.5478 14.2358 12.6213 14.06 12.639C13.8843 12.6567 13.7074 12.6177 13.5554 12.5277L10.1539 10.4216C9.82724 10.2091 9.43431 10.1231 9.04881 10.1798C8.6633 10.2364 8.31172 10.4318 8.06002 10.7293L6.9231 12.097C6.67056 12.3947 6.53673 12.7752 6.54723 13.1655C6.55773 13.5558 6.71183 13.9286 6.98002 14.2123L9.60771 17.2308C9.72433 17.3668 9.79403 17.5368 9.8065 17.7155C9.81897 17.8942 9.77354 18.0722 9.67695 18.2231C9.41387 18.6416 9.1631 19.0816 8.93541 19.5216C8.85023 19.6798 8.71711 19.8071 8.55515 19.885C8.39319 19.963 8.2107 19.9876 8.03387 19.9554L4.10925 19.197C3.72927 19.1053 3.32883 19.1567 2.98434 19.3414C2.63986 19.5261 2.37545 19.8312 2.24156 20.1985L1.62618 21.8723C1.49016 22.2389 1.49334 22.6426 1.63512 23.007C1.77689 23.3713 2.04742 23.671 2.39541 23.8493L5.90002 25.7954C6.05763 25.8824 6.18265 26.0183 6.2562 26.1826C6.32974 26.3469 6.34783 26.5307 6.30772 26.7062L6.27079 26.9016C6.19079 27.3308 6.11695 27.7369 6.04618 28.1693C6.02171 28.3454 5.94217 28.5093 5.81893 28.6375C5.69569 28.7657 5.53507 28.8517 5.36002 28.8831L1.40772 29.5216C1.0212 29.569 0.665179 29.7555 0.406132 30.0463C0.147085 30.337 0.00272997 30.7122 2.62318e-05 31.1016V32.8831C-0.0022262 33.274 0.140649 33.6518 0.400987 33.9434C0.661324 34.235 1.0206 34.4197 1.40926 34.4616L5.36002 35.0985C5.53756 35.1273 5.70096 35.213 5.82577 35.3425C5.95057 35.472 6.03006 35.6385 6.05233 35.8169C6.12772 36.3031 6.20618 36.8046 6.31387 37.2816C6.34857 37.455 6.32823 37.635 6.25569 37.7963C6.18315 37.9577 6.06204 38.0924 5.90926 38.1815L2.40618 40.1308C2.05818 40.3082 1.78753 40.6073 1.6457 40.9712C1.50386 41.3352 1.50075 41.7385 1.63695 42.1046L2.25233 43.7815C2.38591 44.1487 2.65003 44.4537 2.99426 44.6385C3.33849 44.8232 3.73871 44.8747 4.11849 44.7831L8.04925 44.0215C8.22504 43.9896 8.40641 44.0143 8.5673 44.092C8.72818 44.1697 8.8603 44.2964 8.94464 44.4539C9.17541 44.8846 9.4231 45.32 9.6831 45.7492C9.77798 45.902 9.82249 46.0807 9.81034 46.2601C9.7982 46.4396 9.73001 46.6106 9.61541 46.7492L7.00002 49.7692C6.73122 50.0523 6.57507 50.4238 6.5609 50.8139C6.54674 51.204 6.67554 51.5859 6.9231 51.8877L8.0631 53.2585C8.31123 53.5596 8.6624 53.7579 9.04845 53.8147C9.4345 53.8716 9.82791 53.783 10.1523 53.5662L13.5939 51.5C13.7465 51.4086 13.9244 51.3686 14.1014 51.3861C14.2784 51.4035 14.4451 51.4775 14.5769 51.5969C14.9585 51.9308 15.3462 52.2523 15.7108 52.5492C15.8506 52.6598 15.9517 52.8118 15.9996 52.9835C16.0474 53.1552 16.0395 53.3377 15.9769 53.5046L14.5508 57.2585C14.3956 57.6166 14.3775 58.0193 14.4997 58.39C14.622 58.7607 14.8761 59.0736 15.2139 59.2692L16.7692 60.1677C17.1071 60.3628 17.505 60.4263 17.8868 60.3463C18.2686 60.2662 18.6075 60.0482 18.8385 59.7338L21.3846 56.6031C21.6 56.3369 21.9385 56.2185 22.1892 56.32C22.7246 56.5415 23.0831 56.6661 23.7185 56.8785C23.8877 56.9338 24.0349 57.0416 24.1387 57.1863C24.2424 57.331 24.2973 57.505 24.2954 57.6831L24.2339 61.6908C24.2131 62.0822 24.3354 62.4679 24.578 62.7759C24.8206 63.0839 25.1669 63.2931 25.5523 63.3646L27.3139 63.6723C27.6977 63.7393 28.0929 63.6643 28.4255 63.4613C28.7581 63.2583 29.0056 62.9412 29.1215 62.5692L30.4292 58.7585C30.4884 58.5889 30.6005 58.4428 30.7489 58.3417C30.8974 58.2406 31.0744 58.1898 31.2539 58.1969H32.7539C32.9319 58.193 33.1067 58.2455 33.2531 58.3469C33.3996 58.4483 33.5102 58.5935 33.5692 58.7615L34.8723 62.5569C34.9733 62.8864 35.1771 63.1749 35.454 63.38C35.7309 63.5852 36.0662 63.6962 36.4108 63.6969C36.5026 63.6971 36.5943 63.6889 36.6846 63.6723L38.4492 63.3646C38.8325 63.2943 39.1773 63.0872 39.4195 62.7819C39.6617 62.4767 39.7849 62.0938 39.7662 61.7046L39.7046 57.68C39.7034 57.5027 39.7587 57.3296 39.8624 57.1858C39.9661 57.0419 40.1129 56.9349 40.2815 56.88C40.8723 56.6815 41.2877 56.5215 41.6523 56.38L41.7446 56.3446C42.2215 56.18 42.4523 56.38 42.5862 56.5461L45.1631 59.72C45.3941 60.0339 45.7326 60.2517 46.1141 60.3318C46.4955 60.4118 46.8931 60.3485 47.2308 60.1538L48.78 59.2569C49.1189 59.0612 49.3738 58.7475 49.4961 58.3757C49.6184 58.004 49.5995 57.6002 49.4431 57.2415L48.0215 53.4969C47.9588 53.3301 47.9502 53.1477 47.9968 52.9757C48.0435 52.8037 48.1431 52.6507 48.2815 52.5385C48.6554 52.2308 49.0385 51.9231 49.42 51.5815C49.5519 51.4627 49.7184 51.3892 49.8951 51.3721C50.0717 51.3549 50.2493 51.3949 50.4015 51.4862L53.8462 53.5477C54.1727 53.7605 54.5657 53.8466 54.9513 53.79C55.3369 53.7333 55.6885 53.5377 55.94 53.24L57.0785 51.8708C57.331 51.573 57.4648 51.1925 57.4543 50.8022C57.4438 50.4119 57.2897 50.0392 57.0215 49.7554L54.3969 46.7292C54.2803 46.5932 54.2106 46.4233 54.1981 46.2445C54.1857 46.0658 54.2311 45.8878 54.3277 45.7369C54.5908 45.32 54.8415 44.88 55.0692 44.4385C55.1548 44.2805 55.2879 44.1536 55.4498 44.0757C55.6117 43.9978 55.794 43.9729 55.9708 44.0046L59.8908 44.7692C60.2708 44.8609 60.6712 44.8095 61.0157 44.6248C61.3602 44.44 61.6246 44.1349 61.7585 43.7677L62.3662 42.0939C62.5021 41.7275 62.4989 41.324 62.3571 40.9599C62.2153 40.5958 61.9448 40.2964 61.5969 40.1185L58.0892 38.1692C57.9338 38.0814 57.8109 37.9458 57.7385 37.7826C57.6662 37.6194 57.6484 37.4372 57.6877 37.2631L57.7246 37.0677C57.8046 36.6385 57.8785 36.2323 57.9492 35.8C57.9737 35.6239 58.0532 35.46 58.1765 35.3318C58.2997 35.2035 58.4603 35.1176 58.6354 35.0862L62.5877 34.4492C62.9752 34.4025 63.3323 34.2161 63.5923 33.925C63.8522 33.6339 63.9972 33.258 64 32.8677V31.0662ZM20.5462 45.5277C20.3545 45.8611 20.0864 46.1442 19.764 46.3538C19.4415 46.5634 19.074 46.6935 18.6915 46.7335C18.309 46.7734 17.9225 46.7221 17.5637 46.5836C17.205 46.4451 16.8842 46.2235 16.6277 45.9369C13.1618 42.1046 11.2481 37.1185 11.26 31.9514C11.272 26.7843 13.2087 21.807 16.6923 17.9908C16.9501 17.7044 17.2723 17.4833 17.6323 17.3457C17.9923 17.2082 18.3798 17.1582 18.7629 17.1998C19.146 17.2414 19.5138 17.3735 19.8359 17.5851C20.1579 17.7967 20.4251 18.0818 20.6154 18.417L27.6385 30.7785C27.8494 31.1472 27.9603 31.5645 27.9603 31.9892C27.9603 32.414 27.8494 32.8313 27.6385 33.2L20.5462 45.5277ZM32 52.7861C30.536 52.7865 29.0761 52.6318 27.6446 52.3246C27.2717 52.2413 26.9237 52.0713 26.6287 51.8284C26.3338 51.5855 26.1002 51.2765 25.9469 50.9265C25.7937 50.5765 25.725 50.1954 25.7465 49.8139C25.768 49.4324 25.8791 49.0613 26.0708 48.7308L33.1477 36.4231C33.3606 36.0522 33.6675 35.7441 34.0376 35.5299C34.4077 35.3157 34.8278 35.2029 35.2554 35.2031H49.4308C49.8126 35.2025 50.1892 35.2919 50.5301 35.464C50.8709 35.636 51.1665 35.886 51.3927 36.1936C51.619 36.5012 51.7695 36.8578 51.8323 37.2344C51.895 37.6111 51.8682 37.9972 51.7538 38.3616C49.0631 46.7185 41.2308 52.7861 32 52.7861ZM33.1554 27.5708L26.1539 15.2416C25.9641 14.9105 25.8549 14.5394 25.8351 14.1583C25.8153 13.7773 25.8855 13.3969 26.0399 13.0479C26.1943 12.6989 26.4286 12.3912 26.724 12.1496C27.0193 11.9079 27.3674 11.7392 27.74 11.657C29.1408 11.3618 30.5685 11.2133 32 11.2139C41.2308 11.2139 49.0631 17.2816 51.7492 25.6431C51.8635 26.0074 51.8904 26.3936 51.8277 26.7702C51.7649 27.1469 51.6143 27.5034 51.3881 27.811C51.1619 28.1186 50.8663 28.3686 50.5255 28.5407C50.1846 28.7128 49.808 28.8022 49.4262 28.8016H35.2723C34.842 28.8024 34.4193 28.6889 34.0473 28.4726C33.6753 28.2564 33.3675 27.9451 33.1554 27.5708Z" fill="#44627F"/>
</svg>
