<svg width="16" height="16" viewBox="0 0 16 16" fill="none" xmlns="http://www.w3.org/2000/svg">
<path d="M8.70837 7.6464L8.3547 8.00007L8.70848 8.35362L11.679 11.3223C11.679 11.3223 11.679 11.3223 11.6791 11.3223C11.6791 11.3223 11.6791 11.3224 11.6791 11.3224C11.7262 11.3695 11.7526 11.4334 11.7526 11.5C11.7526 11.5666 11.7261 11.6305 11.679 11.6776L12.0004 11.9991L11.679 11.6776C11.6319 11.7248 11.5679 11.7513 11.5013 11.7513C11.4346 11.7513 11.3707 11.7248 11.3236 11.6776L8.35485 8.7089L8.0013 8.35535L7.64774 8.7089L4.679 11.6776C4.63187 11.7248 4.56795 11.7513 4.5013 11.7513C4.43465 11.7513 4.37073 11.7248 4.32361 11.6776L3.97005 12.0312L4.3236 11.6776C4.27648 11.6305 4.25 11.5666 4.25 11.5C4.25 11.4333 4.27648 11.3694 4.3236 11.3223L7.29235 8.35351L7.64591 7.99996L7.29235 7.6464L4.3236 4.67765C4.27648 4.63053 4.25 4.56661 4.25 4.49996C4.25 4.43331 4.27648 4.36939 4.3236 4.32226C4.37073 4.27513 4.43465 4.24866 4.5013 4.24866C4.56795 4.24866 4.63187 4.27513 4.679 4.32226L7.64774 7.29101L8.0013 7.64456L8.35485 7.29101L11.3233 4.32257C11.3703 4.27561 11.4341 4.24926 11.5006 4.24932C11.5671 4.24938 11.6308 4.27584 11.6777 4.32289L11.9673 4.03382L11.6777 4.32289C11.7247 4.36993 11.7511 4.43371 11.751 4.50018C11.7509 4.56665 11.7245 4.63038 11.6774 4.67734L11.6771 4.67765L8.70837 7.6464Z" stroke="#44627F"/>
</svg>
