<svg width="20" height="20" viewBox="0 0 19 20" fill="none" xmlns="http://www.w3.org/2000/svg">
<path d="M10.7299 9.99997L14.2455 6.28904C14.4124 6.11323 14.5062 5.87466 14.5064 5.62581C14.5066 5.37695 14.4132 5.13821 14.2466 4.96209C14.0801 4.78597 13.854 4.6869 13.6183 4.68668C13.3825 4.68646 13.1564 4.78511 12.9895 4.96092L9.47389 8.67185L5.95826 4.96092C5.79141 4.7848 5.56511 4.68585 5.32915 4.68585C5.09319 4.68585 4.86689 4.7848 4.70004 4.96092C4.53319 5.13704 4.43945 5.37591 4.43945 5.62498C4.43945 5.87405 4.53319 6.11292 4.70004 6.28904L8.21566 9.99997L4.70004 13.7109C4.53319 13.887 4.43945 14.1259 4.43945 14.375C4.43945 14.624 4.53319 14.8629 4.70004 15.039C4.86689 15.2152 5.09319 15.3141 5.32915 15.3141C5.56511 15.3141 5.79141 15.2152 5.95826 15.039L9.47389 11.3281L12.9895 15.039C13.1564 15.2152 13.3827 15.3141 13.6186 15.3141C13.8546 15.3141 14.0809 15.2152 14.2477 15.039C14.4146 14.8629 14.5083 14.624 14.5083 14.375C14.5083 14.1259 14.4146 13.887 14.2477 13.7109L10.7299 9.99997Z" fill="#BF0413"/>
</svg>
