<svg width="24" height="24" viewBox="0 0 24 24" fill="none" xmlns="http://www.w3.org/2000/svg">
<g clip-path="url(#clip0_735_15846)">
<path d="M9.18743 9.89055H14.8124C15.2012 9.89055 15.5156 9.57616 15.5156 9.18743C15.5156 8.79883 15.2012 8.4843 14.8124 8.4843H9.18743C8.79883 8.4843 8.4843 8.79883 8.4843 9.18743C8.4843 9.57616 8.79883 9.89055 9.18743 9.89055ZM9.18743 12.7031H14.8124C15.2012 12.7031 15.5156 12.3887 15.5156 11.9999C15.5156 11.6113 15.2012 11.2968 14.8124 11.2968H9.18743C8.79883 11.2968 8.4843 11.6113 8.4843 11.9999C8.4843 12.3887 8.79883 12.7031 9.18743 12.7031ZM9.18743 15.5156H14.8124C15.2012 15.5156 15.5156 15.2012 15.5156 14.8124C15.5156 14.4238 15.2012 14.1093 14.8124 14.1093H9.18743C8.79883 14.1093 8.4843 14.4238 8.4843 14.8124C8.4843 15.2012 8.79883 15.5156 9.18743 15.5156ZM15.5646 5.16222C17.426 6.13563 18.8493 7.83176 19.4345 9.89055H18.3281C18.2007 9.89053 18.0758 9.92508 17.9666 9.99051C17.8573 10.0559 17.7679 10.1498 17.7079 10.2621C17.648 10.3743 17.6197 10.5007 17.6258 10.6277C17.632 10.7548 17.6725 10.8778 17.7431 10.9837C17.8256 11.1262 20.3638 15.4974 20.204 15.222C20.4649 15.6133 21.1131 15.6133 21.374 15.222C21.6421 14.7606 23.9739 10.8253 23.882 10.9837C23.9525 10.8778 23.9929 10.7548 23.9991 10.6277C24.0053 10.5007 23.9769 10.3743 23.917 10.2621C23.857 10.1498 23.7676 10.0559 23.6584 9.99051C23.5492 9.92508 23.4243 9.89053 23.297 9.89055H22.3351C21.6937 6.73127 19.6271 4.10843 16.8484 2.66524C16.8947 2.84154 16.9211 3.02374 16.9211 3.21086C16.9226 4.71527 15.7058 5.06847 15.5646 5.16222ZM10.9837 0.117864C10.8778 0.0474266 10.7548 0.00698261 10.6277 0.000825797C10.5007 -0.00533102 10.3743 0.0230291 10.2621 0.0828954C10.1498 0.142941 10.0559 0.232345 9.99051 0.341567C9.92508 0.450789 9.89053 0.575729 9.89055 0.703052V1.66474C6.07868 2.43869 3.02135 5.27149 1.91027 8.94902C2.28602 8.65221 2.73204 8.48505 3.21086 8.48505C3.8411 8.48505 4.41461 8.76354 4.80719 9.22146C5.67785 6.9768 7.55079 5.23033 9.89055 4.56532V5.6718C9.89053 5.79912 9.92508 5.92406 9.99051 6.03329C10.0559 6.14251 10.1498 6.23191 10.2621 6.29196C10.3743 6.35183 10.5007 6.38019 10.6277 6.37404C10.7548 6.36788 10.8778 6.32743 10.9837 6.25699C11.1262 6.17425 15.4974 3.63602 15.222 3.79586C15.6135 3.53496 15.6135 2.88677 15.222 2.62586C14.7606 2.35797 10.8253 0.0259423 10.9837 0.117864ZM0.0828954 15.144C0.142941 15.2563 0.232345 15.3502 0.341567 15.4156C0.450789 15.481 0.575729 15.5156 0.703052 15.5156H2.0659C2.96074 18.0428 4.80096 20.1036 7.14874 21.3275C7.1026 21.1517 7.0791 20.9707 7.0788 20.789C7.0773 19.291 8.28433 18.9362 8.42515 18.8427C7.00976 18.1016 5.84979 16.939 5.11938 15.5156H5.6718C5.79912 15.5156 5.92406 15.481 6.03329 15.4156C6.14251 15.3502 6.23191 15.2563 6.29196 15.144C6.35184 15.0318 6.3802 14.9054 6.374 14.7784C6.36781 14.6513 6.32731 14.5283 6.2568 14.4224C6.17425 14.2799 3.63602 9.90869 3.79586 10.1841C3.53496 9.79277 2.88677 9.79277 2.62586 10.1841C2.44052 10.5032 -0.033589 14.6835 0.117864 14.4224C0.0474266 14.5283 0.00698261 14.6514 0.000825797 14.7784C-0.00533102 14.9054 0.0230291 15.0318 0.0828954 15.144ZM14.1093 18.3281C14.1093 18.2007 14.0748 18.0758 14.0093 17.9666C13.9439 17.8573 13.85 17.7679 13.7378 17.7079C13.6255 17.648 13.4992 17.6197 13.3721 17.6258C13.2451 17.632 13.1221 17.6725 13.0162 17.7431C12.8737 17.8256 8.50244 20.3638 8.77783 20.204C8.38652 20.4649 8.38652 21.1131 8.77783 21.374C9.23922 21.6419 13.1746 23.9739 13.0162 23.882C13.1221 23.9525 13.2451 23.9929 13.3721 23.9991C13.4992 24.0053 13.6256 23.9769 13.7378 23.917C13.85 23.857 13.9439 23.7676 14.0093 23.6584C14.0748 23.5492 14.1093 23.4243 14.1093 23.297V22.3351C17.2684 21.6937 19.8911 19.6276 21.3343 16.8489C21.1583 16.8955 20.9762 16.9218 20.789 16.9218C19.5946 16.9218 19.1423 16.1608 18.8137 15.6135C17.8362 17.4513 16.1502 18.8545 14.1093 19.4345V18.3281Z" fill="#44627F"/>
</g>
<defs>
<clipPath id="clip0_735_15846">
<rect width="24" height="24" fill="white"/>
</clipPath>
</defs>
</svg>
