<svg width="16" height="16" viewBox="0 0 16 16" fill="none" xmlns="http://www.w3.org/2000/svg">
<path d="M13.1047 3H10.2626V2.25C10.2626 1.91848 10.1378 1.60054 9.91575 1.36612C9.69366 1.1317 9.39246 1 9.07838 1H6.70996C6.39589 1 6.09468 1.1317 5.8726 1.36612C5.65052 1.60054 5.52575 1.91848 5.52575 2.25V3H2.68365C2.55802 3 2.43753 3.05268 2.3487 3.14645C2.25987 3.24021 2.20996 3.36739 2.20996 3.5C2.20996 3.63261 2.25987 3.75979 2.3487 3.85355C2.43753 3.94732 2.55802 4 2.68365 4H3.18693L3.74943 13.5288C3.79147 14.3678 4.40075 15 5.17049 15H10.6179C11.3914 15 11.9886 14.3819 12.0389 13.5312L12.6014 4H13.1047C13.2303 4 13.3508 3.94732 13.4396 3.85355C13.5285 3.75979 13.5784 3.63261 13.5784 3.5C13.5784 3.36739 13.5285 3.24021 13.4396 3.14645C13.3508 3.05268 13.2303 3 13.1047 3ZM6.01631 13H5.99944C5.87668 13.0001 5.75868 12.9499 5.67032 12.8599C5.58195 12.77 5.53012 12.6473 5.52575 12.5178L5.28891 5.51781C5.28443 5.3852 5.33005 5.25615 5.41572 5.15904C5.50138 5.06193 5.62009 5.00472 5.74572 5C5.87135 4.99528 5.99361 5.04342 6.08561 5.13385C6.1776 5.22428 6.2318 5.34958 6.23628 5.48219L6.47312 12.4822C6.47538 12.5479 6.46535 12.6134 6.4436 12.6749C6.42186 12.7365 6.38883 12.793 6.3464 12.841C6.30398 12.8891 6.25299 12.9279 6.19635 12.9552C6.13971 12.9825 6.07853 12.9977 6.01631 13ZM8.36786 12.5C8.36786 12.6326 8.31795 12.7598 8.22912 12.8536C8.14029 12.9473 8.0198 13 7.89417 13C7.76854 13 7.64806 12.9473 7.55923 12.8536C7.47039 12.7598 7.42049 12.6326 7.42049 12.5V5.5C7.42049 5.36739 7.47039 5.24021 7.55923 5.14645C7.64806 5.05268 7.76854 5 7.89417 5C8.0198 5 8.14029 5.05268 8.22912 5.14645C8.31795 5.24021 8.36786 5.36739 8.36786 5.5V12.5ZM9.31523 3H6.47312V2.25C6.47276 2.21706 6.47864 2.18439 6.49042 2.15388C6.5022 2.12338 6.51963 2.09567 6.54169 2.07238C6.56376 2.04909 6.59001 2.03069 6.61891 2.01826C6.6478 2.00583 6.67876 1.99962 6.70996 2H9.07838C9.10958 1.99962 9.14054 2.00583 9.16944 2.01826C9.19834 2.03069 9.22459 2.04909 9.24665 2.07238C9.26872 2.09567 9.28615 2.12338 9.29792 2.15388C9.3097 2.18439 9.31558 2.21706 9.31523 2.25V3ZM10.2626 12.5178C10.2582 12.6473 10.2064 12.77 10.118 12.8599C10.0297 12.9499 9.91167 13.0001 9.78891 13H9.77174C9.70955 12.9977 9.6484 12.9824 9.59179 12.9551C9.53519 12.9278 9.48423 12.889 9.44184 12.8409C9.39944 12.7929 9.36644 12.7364 9.34471 12.6749C9.32299 12.6133 9.31297 12.5478 9.31523 12.4822L9.55207 5.48219C9.55428 5.41653 9.56873 5.35197 9.59458 5.2922C9.62043 5.23243 9.65719 5.17863 9.70274 5.13385C9.74829 5.08908 9.80175 5.05421 9.86007 5.03124C9.91839 5.00828 9.98042 4.99766 10.0426 5C10.1048 5.00234 10.166 5.01759 10.2226 5.04488C10.2792 5.07217 10.3302 5.11096 10.3726 5.15904C10.415 5.20713 10.4481 5.26356 10.4698 5.32511C10.4916 5.38667 10.5017 5.45215 10.4994 5.51781L10.2626 12.5178Z" fill="#44627F"/>
</svg>
