<svg width="16" height="16" viewBox="0 0 16 16" fill="none" xmlns="http://www.w3.org/2000/svg">
<path d="M12.9475 3H10.1054V2.25C10.1054 1.91848 9.9806 1.60054 9.75852 1.36612C9.53644 1.1317 9.23523 1 8.92116 1H6.55274C6.23866 1 5.93745 1.1317 5.71537 1.36612C5.49329 1.60054 5.36852 1.91848 5.36852 2.25V3H2.52642C2.40079 3 2.28031 3.05268 2.19147 3.14645C2.10264 3.24021 2.05273 3.36739 2.05273 3.5C2.05273 3.63261 2.10264 3.75979 2.19147 3.85355C2.28031 3.94732 2.40079 4 2.52642 4H3.02971L3.59221 13.5288C3.63425 14.3678 4.24352 15 5.01326 15H10.4606C11.2342 15 11.8314 14.3819 11.8817 13.5312L12.4442 4H12.9475C13.0731 4 13.1936 3.94732 13.2824 3.85355C13.3713 3.75979 13.4212 3.63261 13.4212 3.5C13.4212 3.36739 13.3713 3.24021 13.2824 3.14645C13.1936 3.05268 13.0731 3 12.9475 3ZM5.85908 13H5.84221C5.71945 13.0001 5.60145 12.9499 5.51309 12.8599C5.42473 12.77 5.3729 12.6473 5.36852 12.5178L5.13168 5.51781C5.12721 5.3852 5.17282 5.25615 5.25849 5.15904C5.34416 5.06193 5.46286 5.00472 5.58849 5C5.71412 4.99528 5.83638 5.04342 5.92838 5.13385C6.02038 5.22428 6.07458 5.34958 6.07905 5.48219L6.31589 12.4822C6.31815 12.5479 6.30812 12.6134 6.28638 12.6749C6.26463 12.7365 6.2316 12.793 6.18918 12.841C6.14675 12.8891 6.09576 12.9279 6.03912 12.9552C5.98248 12.9825 5.9213 12.9977 5.85908 13ZM8.21063 12.5C8.21063 12.6326 8.16072 12.7598 8.07189 12.8536C7.98306 12.9473 7.86257 13 7.73695 13C7.61132 13 7.49083 12.9473 7.402 12.8536C7.31317 12.7598 7.26326 12.6326 7.26326 12.5V5.5C7.26326 5.36739 7.31317 5.24021 7.402 5.14645C7.49083 5.05268 7.61132 5 7.73695 5C7.86257 5 7.98306 5.05268 8.07189 5.14645C8.16072 5.24021 8.21063 5.36739 8.21063 5.5V12.5ZM9.158 3H6.31589V2.25C6.31554 2.21706 6.32142 2.18439 6.33319 2.15388C6.34497 2.12338 6.3624 2.09567 6.38447 2.07238C6.40653 2.04909 6.43278 2.03069 6.46168 2.01826C6.49057 2.00583 6.52153 1.99962 6.55274 2H8.92116C8.95236 1.99962 8.98332 2.00583 9.01221 2.01826C9.04111 2.03069 9.06736 2.04909 9.08943 2.07238C9.11149 2.09567 9.12892 2.12338 9.1407 2.15388C9.15247 2.18439 9.15836 2.21706 9.158 2.25V3ZM10.1054 12.5178C10.101 12.6473 10.0492 12.77 9.9608 12.8599C9.87244 12.9499 9.75444 13.0001 9.63168 13H9.61451C9.55232 12.9977 9.49117 12.9824 9.43457 12.9551C9.37796 12.9278 9.327 12.889 9.28461 12.8409C9.24221 12.7929 9.20921 12.7364 9.18749 12.6749C9.16576 12.6133 9.15574 12.5478 9.158 12.4822L9.39484 5.48219C9.39706 5.41653 9.4115 5.35197 9.43736 5.2922C9.46321 5.23243 9.49996 5.17863 9.54551 5.13385C9.59107 5.08908 9.64453 5.05421 9.70284 5.03124C9.76116 5.00828 9.8232 4.99766 9.8854 5C9.94761 5.00234 10.0088 5.01759 10.0654 5.04488C10.122 5.07217 10.173 5.11096 10.2154 5.15904C10.2578 5.20713 10.2909 5.26356 10.3126 5.32511C10.3344 5.38667 10.3444 5.45215 10.3422 5.51781L10.1054 12.5178Z" fill="#44627F"/>
</svg>
