<svg width="16" height="16" viewBox="0 0 16 16" fill="none" xmlns="http://www.w3.org/2000/svg">
<path d="M10.7751 4.04004L2.71866 12.565L2.23047 13.8125L3.41231 13.2972L11.4886 4.79316L10.7751 4.04004Z" stroke="#44627F" stroke-width="1.2" stroke-linecap="round" stroke-linejoin="round"/>
<path d="M12.3871 2.33864L12.0381 2.70676L12.7516 3.45989L13.1006 3.09145C13.1922 2.9947 13.2437 2.86353 13.2437 2.72676C13.2437 2.58999 13.1922 2.45882 13.1006 2.36207L13.0784 2.33864C13.033 2.29072 12.9791 2.25271 12.9198 2.22678C12.8605 2.20085 12.797 2.1875 12.7328 2.1875C12.6686 2.1875 12.605 2.20085 12.5457 2.22678C12.4864 2.25271 12.4325 2.29072 12.3871 2.33864Z" stroke="#44627F" stroke-width="1.2" stroke-linecap="round" stroke-linejoin="round"/>
</svg>
