<svg width="20" height="20" viewBox="0 0 20 20" fill="none" xmlns="http://www.w3.org/2000/svg">
<path d="M19.1667 6.66669H17.8509C17.4817 6.66669 17.1567 6.91001 17.0517 7.26337L16.2417 10H16.1517L15.7917 8.90669C15.6784 8.56419 15.36 8.33337 15 8.33337H13.3333V7.50001C13.3333 7.04001 12.9608 6.66669 12.5 6.66669H10.8333V5.83337H11.6666C12.1275 5.83337 12.5 5.46005 12.5 5.00005V2.50001C12.5 2.04001 12.1275 1.66669 11.6666 1.66669H5C4.53918 1.66669 4.16668 2.04001 4.16668 2.50001V5.00001C4.16668 5.46001 4.53918 5.83333 5 5.83333H5.83332V6.66665H3.33332C2.8725 6.66669 2.5 7.04001 2.5 7.50001V10.8333H1.66668V10C1.66668 9.54001 1.29418 9.16669 0.833359 9.16669C0.3725 9.16669 0 9.54001 0 10V13.3333C0 13.7933 0.3725 14.1666 0.83332 14.1666C1.29414 14.1666 1.66664 13.7933 1.66664 13.3333V12.5H2.5V14.1667C2.5 14.29 2.5275 14.4117 2.58082 14.5234L3.765 17.0234C3.83236 17.166 3.93886 17.2865 4.07209 17.3709C4.20532 17.4553 4.35979 17.5001 4.5175 17.5H14.5617C14.7063 17.4999 14.8484 17.4622 14.974 17.3906C15.0996 17.319 15.2045 17.216 15.2784 17.0917L16.0242 15.8334H16.2975L17.075 17.8059C17.2017 18.1242 17.5092 18.3334 17.8508 18.3334H19.1666C19.6275 18.3334 20 17.9601 20 17.5001V7.50001C20 7.04001 19.6275 6.66669 19.1667 6.66669Z" fill="white"/>
</svg>
