<svg width="64" height="64" viewBox="0 0 64 64" fill="none" xmlns="http://www.w3.org/2000/svg">
<path d="M61.3334 21.3334H57.1227C55.9414 21.3334 54.9014 22.112 54.5654 23.2427L51.9734 32H51.6854L50.5334 28.5014C50.1707 27.4054 49.152 26.6667 48 26.6667H42.6666V24C42.6666 22.528 41.4746 21.3334 40 21.3334H34.6666V18.6667H37.3332C38.8079 18.6667 39.9999 17.4721 39.9999 16.0001V8C39.9999 6.528 38.8079 5.33337 37.3332 5.33337H16C14.5254 5.33337 13.3334 6.528 13.3334 8V16C13.3334 17.472 14.5254 18.6666 16 18.6666H18.6666V21.3332H10.6666C9.192 21.3334 8 22.528 8 24V34.6666H5.33337V32C5.33337 30.528 4.14138 29.3334 2.66675 29.3334C1.192 29.3334 0 30.528 0 32V42.6666C0 44.1386 1.192 45.3332 2.66663 45.3332C4.14125 45.3332 5.33325 44.1386 5.33325 42.6666V40H8V45.3334C8 45.728 8.088 46.1174 8.25863 46.4748L12.048 54.4748C12.2635 54.9311 12.6043 55.3168 13.0307 55.5868C13.457 55.8569 13.9513 56.0002 14.456 56.0001H46.5974C47.0601 55.9997 47.5147 55.879 47.9168 55.65C48.3188 55.4209 48.6544 55.0913 48.8908 54.6935L51.2774 50.6669H52.152L54.64 56.9789C55.0454 57.9975 56.0294 58.6669 57.1226 58.6669H61.3332C62.8079 58.6669 63.9999 57.4723 63.9999 56.0003V24C64 22.528 62.808 21.3334 61.3334 21.3334Z" fill="#44627F"/>
</svg>
