<svg width="24" height="24" viewBox="0 0 24 24" fill="none" xmlns="http://www.w3.org/2000/svg">
<g clip-path="url(#clip0_735_15834)">
<path d="M21.36 9.96C21.12 8.88 20.64 7.8 20.04 6.84L21.24 4.32L19.56 2.64L17.04 3.84C16.08 3.24 15.12 2.88 14.04 2.64L13.2 0H10.8L9.84 2.64C8.76 2.88 7.8 3.36 6.84 3.96L4.32 2.76L2.64 4.32L3.84 6.84C3.24 7.8 2.88 8.76 2.64 9.84L0 10.8V13.2L2.64 14.16C2.88 15.24 3.36 16.32 3.84 17.16L2.64 19.68L4.32 21.36L6.84 20.16C7.8 20.76 8.76 21.24 9.84 21.48L10.8 24H13.2L14.16 21.36C14.52 21.24 15 21.12 15.36 21L13.44 19.08C8.88 19.92 4.8 16.56 4.8 12C4.8 8.04 8.04 4.8 12 4.8C16.44 4.8 19.8 8.76 19.08 12.96L21.12 15C21.24 14.64 21.36 14.4 21.36 14.04L24 13.2V10.8L21.36 9.96Z" fill="#44627F"/>
<path d="M23.5204 20.8802L16.4404 13.8002C18.1204 10.0802 14.6404 6.12021 10.8004 7.20021L12.9604 9.36021C13.9204 10.3202 13.9204 11.8802 12.9604 12.7202C12.1204 13.6802 10.4404 13.6802 9.60043 12.7202L7.44043 10.6802C6.36043 14.0402 9.84043 17.8802 13.8004 16.3202L20.8804 23.4002C21.6004 24.1202 22.6804 24.1202 23.4004 23.4002C24.1204 22.8002 24.1204 21.6002 23.5204 20.8802Z" fill="#44627F"/>
</g>
<defs>
<clipPath id="clip0_735_15834">
<rect width="24" height="24" fill="white"/>
</clipPath>
</defs>
</svg>
