<svg width="64" height="64" viewBox="0 0 64 64" fill="none" xmlns="http://www.w3.org/2000/svg">
<g clip-path="url(#clip0_705_74212)">
<path d="M56.96 26.56C56.32 23.68 55.04 20.8 53.44 18.24L56.64 11.52L52.16 7.04L45.44 10.24C42.88 8.64 40.32 7.68 37.44 7.04L35.2 0H28.8L26.24 7.04C23.36 7.68 20.8 8.96 18.24 10.56L11.52 7.36L7.04 11.52L10.24 18.24C8.64 20.8 7.68 23.36 7.04 26.24L0 28.8V35.2L7.04 37.76C7.68 40.64 8.96 43.52 10.24 45.76L7.04 52.48L11.52 56.96L18.24 53.76C20.8 55.36 23.36 56.64 26.24 57.28L28.8 64H35.2L37.76 56.96C38.72 56.64 40 56.32 40.96 56L35.84 50.88C23.68 53.12 12.8 44.16 12.8 32C12.8 21.44 21.44 12.8 32 12.8C43.84 12.8 52.8 23.36 50.88 34.56L56.32 40C56.64 39.04 56.96 38.4 56.96 37.44L64 35.2V28.8L56.96 26.56Z" fill="#44627F"/>
<path d="M62.7199 55.6801L43.8399 36.8001C48.3199 26.8801 39.0399 16.3201 28.7999 19.2001L34.5599 24.9601C37.1199 27.5201 37.1199 31.6801 34.5599 33.9201C32.3199 36.4801 27.8399 36.4801 25.5999 33.9201L19.8399 28.4801C16.9599 37.4401 26.2399 47.6801 36.7999 43.5201L55.6799 62.4001C57.5998 64.3201 60.4799 64.3201 62.3999 62.4001C64.3199 60.8001 64.3199 57.6001 62.7199 55.6801Z" fill="#44627F"/>
</g>
<defs>
<clipPath id="clip0_705_74212">
<rect width="64" height="64" fill="white"/>
</clipPath>
</defs>
</svg>
