<svg width="20" height="20" viewBox="0 0 20 20" fill="none" xmlns="http://www.w3.org/2000/svg">
<path d="M10.6247 18.125C10.5413 18.1251 10.4586 18.1084 10.3817 18.0759C10.3048 18.0435 10.2352 17.996 10.1769 17.9362C10.1186 17.8764 10.073 17.8056 10.0425 17.7278C10.0121 17.6501 9.99756 17.5671 9.99975 17.4836V10.3176C9.99975 10.2347 9.96683 10.1552 9.90822 10.0966C9.84962 10.038 9.77013 10.0051 9.68725 10.0051H2.51577C2.38432 10.0067 2.2556 9.96751 2.14727 9.89303C2.03894 9.81855 1.9563 9.71238 1.91069 9.58908C1.85875 9.44205 1.86365 9.2809 1.92443 9.13729C1.98521 8.99368 2.09749 8.87798 2.23921 8.81291L17.2392 1.93205C17.3551 1.87895 17.4844 1.86256 17.6099 1.88507C17.7354 1.90758 17.851 1.96792 17.9412 2.05799C18.0314 2.14806 18.0919 2.26357 18.1146 2.389C18.1372 2.51444 18.121 2.64382 18.0681 2.75978L11.1931 17.7598C11.1433 17.8687 11.0633 17.9611 10.9625 18.0258C10.8618 18.0906 10.7445 18.125 10.6247 18.125Z" fill="white"/>
</svg>
