<svg width="16" height="16" viewBox="0 0 16 16" fill="none" xmlns="http://www.w3.org/2000/svg">
<path d="M11.7632 5.5H8.68421V10.0312C8.68421 10.1639 8.63431 10.291 8.54547 10.3848C8.45664 10.4786 8.33616 10.5312 8.21053 10.5312C8.0849 10.5312 7.96441 10.4786 7.87558 10.3848C7.78675 10.291 7.73684 10.1639 7.73684 10.0312V5.5H4.65789C4.21834 5.5005 3.79692 5.68503 3.48611 6.01311C3.17529 6.34119 3.00047 6.78602 3 7.25V13.25C3.00047 13.714 3.17529 14.1588 3.48611 14.4869C3.79692 14.815 4.21834 14.9995 4.65789 15H11.7632C12.2027 14.9995 12.6241 14.815 12.9349 14.4869C13.2458 14.1588 13.4206 13.714 13.4211 13.25V7.25C13.4206 6.78602 13.2458 6.34119 12.9349 6.01311C12.6241 5.68503 12.2027 5.5005 11.7632 5.5Z" fill="#44627F"/>
<path d="M8.68417 2.70732L10.2441 4.35357C10.3336 4.44338 10.4529 4.49271 10.5764 4.49104C10.6999 4.48937 10.8179 4.43684 10.9053 4.34464C10.9926 4.25244 11.0424 4.12786 11.044 3.99748C11.0456 3.8671 10.9988 3.74123 10.9137 3.6467L8.54532 1.1467C8.45649 1.053 8.33606 1.00037 8.21048 1.00037C8.08491 1.00037 7.96447 1.053 7.87565 1.1467L5.50723 3.6467C5.42214 3.74123 5.37541 3.8671 5.37699 3.99748C5.37857 4.12786 5.42834 4.25244 5.51569 4.34464C5.60304 4.43684 5.72105 4.48937 5.84457 4.49104C5.96809 4.49271 6.08734 4.44338 6.1769 4.35357L7.7368 2.70732V5.50013H8.68417V2.70732Z" fill="#44627F"/>
</svg>
