<svg width="16" height="16" viewBox="0 0 16 16" fill="none" xmlns="http://www.w3.org/2000/svg">
<path d="M14.3194 1.22022C14.2226 1.118 14.0998 1.04751 13.9658 1.01723C13.8319 0.986962 13.6925 0.9982 13.5645 1.0496L1.7215 5.78116H1.71913C1.58258 5.8366 1.46557 5.93518 1.38409 6.06344C1.3026 6.1917 1.26061 6.34338 1.26385 6.49777C1.26708 6.65217 1.3154 6.80174 1.40218 6.92607C1.48897 7.05039 1.61 7.14341 1.74874 7.19241L1.76088 7.19647L5.82568 9.02866C5.90496 9.05407 5.98917 9.05708 6.0699 9.03739C6.15063 9.01771 6.22505 8.97601 6.28575 8.91648L12.8096 2.49991C12.829 2.47939 12.8521 2.46311 12.8775 2.45201C12.9029 2.4409 12.9301 2.43519 12.9576 2.43519C12.9851 2.43519 13.0123 2.4409 13.0377 2.45201C13.0631 2.46311 13.0862 2.47939 13.1056 2.49991C13.1251 2.52043 13.1405 2.54479 13.151 2.5716C13.1615 2.59841 13.1669 2.62714 13.1669 2.65616C13.1669 2.68518 13.1615 2.71391 13.151 2.74072C13.1405 2.76753 13.1251 2.79189 13.1056 2.81241L7.02647 9.69554C6.97007 9.7596 6.93057 9.83816 6.91192 9.92338C6.89327 10.0086 6.89612 10.0975 6.92019 10.1812L8.65654 14.4743C8.65831 14.4805 8.66009 14.4862 8.66216 14.4921C8.7569 14.7818 8.9967 14.9862 9.28654 14.9999C9.29927 14.9999 9.30371 14.9999 9.31614 14.9999C9.46246 15.0008 9.60564 14.9552 9.72708 14.869C9.84852 14.7829 9.94259 14.6601 9.99706 14.5168L14.479 2.01928C14.5284 1.88406 14.5396 1.73663 14.5113 1.59482C14.483 1.45301 14.4163 1.3229 14.3194 1.22022V1.22022Z" fill="#6E6E73" fill-opacity="0.45"/>
</svg>
