<svg width="24" height="24" viewBox="0 0 24 24" fill="none" xmlns="http://www.w3.org/2000/svg">
<path d="M20.2501 21C20.1516 21.0002 20.054 20.9808 19.963 20.9431C19.872 20.9054 19.7894 20.85 19.7199 20.7802L3.21994 4.28016C3.08522 4.13836 3.01123 3.94955 3.01373 3.75398C3.01624 3.55841 3.09504 3.37155 3.23334 3.23325C3.37164 3.09495 3.5585 3.01615 3.75407 3.01364C3.94964 3.01114 4.13845 3.08513 4.28025 3.21985L20.7802 19.7199C20.8851 19.8247 20.9564 19.9584 20.9853 20.1038C21.0142 20.2492 20.9994 20.4 20.9427 20.537C20.8859 20.674 20.7898 20.7911 20.6666 20.8735C20.5433 20.9559 20.3984 20.9999 20.2501 21V21Z" fill="#44627F"/>
<path d="M11.6245 14.8055L9.19687 12.3778C9.18296 12.364 9.16508 12.3549 9.14574 12.3518C9.1264 12.3487 9.10656 12.3517 9.08903 12.3605C9.0715 12.3692 9.05714 12.3832 9.04799 12.4005C9.03883 12.4179 9.03532 12.4376 9.03797 12.457C9.13598 13.0868 9.43171 13.6692 9.88242 14.1199C10.3331 14.5706 10.9155 14.8664 11.5453 14.9644C11.5647 14.967 11.5845 14.9635 11.6018 14.9543C11.6191 14.9452 11.6331 14.9308 11.6419 14.9133C11.6506 14.8958 11.6536 14.8759 11.6505 14.8566C11.6474 14.8373 11.6383 14.8194 11.6245 14.8055Z" fill="#44627F"/>
<path d="M12.3751 9.19452L14.8065 11.625C14.8204 11.639 14.8383 11.6482 14.8577 11.6515C14.8772 11.6547 14.8971 11.6517 14.9148 11.6429C14.9324 11.6341 14.9469 11.62 14.956 11.6026C14.9652 11.5852 14.9686 11.5653 14.9659 11.5458C14.8681 10.9151 14.5722 10.3319 14.1209 9.8806C13.6696 9.42932 13.0864 9.13337 12.4557 9.03561C12.4362 9.0326 12.4162 9.03583 12.3986 9.04486C12.381 9.05388 12.3667 9.06822 12.3578 9.08585C12.3489 9.10347 12.3457 9.12347 12.3488 9.14298C12.3519 9.1625 12.3611 9.18054 12.3751 9.19452V9.19452Z" fill="#44627F"/>
<path d="M23.0157 12.8137C23.1709 12.5702 23.253 12.2872 23.2522 11.9984C23.2513 11.7096 23.1676 11.427 23.0111 11.1844C21.7707 9.26624 20.1615 7.63687 18.3578 6.47203C16.3595 5.18203 14.1564 4.5 11.9851 4.5C10.8405 4.50157 9.70363 4.6882 8.61856 5.05266C8.58819 5.06276 8.56091 5.08046 8.53932 5.10409C8.51773 5.12771 8.50255 5.15647 8.49522 5.18763C8.48789 5.21878 8.48865 5.25129 8.49744 5.28207C8.50623 5.31284 8.52276 5.34085 8.54543 5.36344L10.7598 7.57781C10.7828 7.60086 10.8114 7.61751 10.8428 7.62614C10.8742 7.63477 10.9073 7.63508 10.9389 7.62703C11.6895 7.44411 12.4745 7.45752 13.2184 7.66595C13.9623 7.87438 14.64 8.27082 15.1863 8.81709C15.7326 9.36337 16.129 10.0411 16.3375 10.785C16.5459 11.5289 16.5593 12.3139 16.3764 13.0645C16.3684 13.096 16.3688 13.129 16.3774 13.1603C16.386 13.1916 16.4026 13.2202 16.4256 13.2431L19.6107 16.4306C19.6439 16.4638 19.6883 16.4834 19.7351 16.4855C19.782 16.4875 19.8279 16.472 19.8639 16.4419C21.0899 15.3968 22.1524 14.1738 23.0157 12.8137Z" fill="#44627F"/>
<path d="M12 16.5C11.3188 16.5 10.6464 16.3454 10.0337 16.0478C9.42093 15.7502 8.88374 15.3173 8.46262 14.7819C8.0415 14.2464 7.74744 13.6224 7.60262 12.9567C7.45779 12.2911 7.46598 11.6012 7.62656 10.9392C7.63452 10.9077 7.63417 10.8747 7.62554 10.8434C7.61692 10.8121 7.60031 10.7836 7.57734 10.7606L4.44421 7.6261C4.41099 7.59284 4.36649 7.57327 4.31952 7.57128C4.27255 7.56928 4.22655 7.585 4.19062 7.61532C3.04734 8.59079 1.9875 9.77766 1.01859 11.1647C0.84899 11.4081 0.755584 11.6965 0.750243 11.9931C0.744901 12.2897 0.827865 12.5813 0.988591 12.8306C2.22656 14.768 3.81937 16.3997 5.59546 17.5486C7.59656 18.8438 9.74624 19.5 11.985 19.5C13.1412 19.4969 14.2899 19.3143 15.39 18.9586C15.4206 18.9488 15.4482 18.9313 15.4702 18.9078C15.4921 18.8842 15.5076 18.8554 15.5152 18.8242C15.5227 18.7929 15.5221 18.7602 15.5134 18.7293C15.5047 18.6983 15.4882 18.6701 15.4655 18.6474L13.2403 16.4227C13.2173 16.3997 13.1888 16.3831 13.1575 16.3745C13.1262 16.3658 13.0932 16.3655 13.0617 16.3734C12.7141 16.4577 12.3577 16.5002 12 16.5V16.5Z" fill="#44627F"/>
</svg>
