<svg width="237" height="176" viewBox="0 0 237 176" fill="none" xmlns="http://www.w3.org/2000/svg">
<path d="M223.872 33.9715C223.292 33.6817 220.683 35.1309 220.683 35.1309C216.281 37.1411 211.974 39.1667 208.037 41.5076C206.503 42.4198 205.025 43.38 203.62 44.4058C203.62 44.4058 177.207 51.5017 158.946 48.174C140.685 44.8464 123.872 29.9135 123.872 29.9135C123.114 28.5839 122.078 27.3054 120.686 26.1457C119.731 25.3497 118.762 24.7145 117.789 24.2192C117.789 24.2192 101.846 -1.38996 85.0354 0.0592683C68.2243 1.5085 47.3557 31.6525 47.3557 31.6525L34.8926 125.853C38.9434 131.009 41.7958 133.302 47.3557 136.867C47.3557 136.867 65.326 148.171 74.3114 151.939C83.2969 155.707 95.1804 160.344 95.1804 160.344C105.148 163.901 111.206 165.376 122.137 167.88H127.063C127.063 167.88 139.526 175.706 162.134 175.996C184.743 176.286 203.293 160.344 203.293 160.344C203.293 160.344 218.351 148.171 225.314 135.997C232.277 123.824 235.466 114.549 236.625 103.825C237.784 93.1004 234.596 77.4485 234.596 77.4485C233.643 73.2941 232.976 70.9566 230.708 66.724C231.66 63.3441 232.505 60.1391 232.277 58.3186C231.697 53.6811 225.611 51.6522 223.002 48.174C220.393 44.6958 223.872 37.4497 223.872 37.4497C223.872 37.4497 224.451 34.2614 223.872 33.9715Z" fill="#97B2CB"/>
<path d="M135.468 97.1581C135.468 97.1581 132.859 101.506 134.598 106.143C136.337 110.781 145.323 115.418 149.96 122.665C154.598 129.911 157.496 139.186 162.134 144.403C166.771 149.62 174.887 155.997 191.408 154.258C207.929 152.519 213.437 147.012 220.683 135.998C222.752 132.852 224.231 129.612 225.314 126.433C228.023 118.479 228.26 110.906 229.088 106.143C230.248 99.4768 235.755 77.7384 234.595 77.4485C233.436 77.1587 231.697 81.7962 229.088 79.1876C227.504 77.603 229.235 71.9542 230.708 66.724C231.66 63.3442 232.504 60.1391 232.277 58.3187C231.697 53.6811 225.61 51.6522 223.001 48.174C220.393 44.6959 223.871 37.4497 223.871 37.4497C223.871 37.4497 224.451 34.2614 223.871 33.9716C223.291 33.6817 220.683 35.1309 220.683 35.1309C216.281 37.1411 211.973 39.1668 208.037 41.5076C206.502 42.4199 205.024 43.38 203.619 44.4058C200.175 46.9199 197.168 49.828 194.839 53.3913C193.429 55.5475 192.268 57.9436 191.408 60.6374C187.06 74.2602 191.408 73.6806 187.93 83.2455C184.452 92.8104 176.916 95.1291 178.945 102.665C180.974 110.201 189.959 115.708 191.408 117.158C192.857 118.607 196.046 124.694 192.857 126.433C189.669 128.172 189.669 118.607 187.93 116.288C186.191 113.969 174.307 108.462 169.959 103.825C165.612 99.187 161.844 90.7815 158.945 86.7236C156.047 82.6657 154.308 81.5064 153.728 81.7962C153.148 82.0861 153.728 84.115 153.728 84.115C153.728 84.115 153.96 85.3336 153.671 87.3033M135.468 97.1581C135.468 97.1581 142.714 104.114 148.801 97.1581C152.164 93.3143 153.315 89.736 153.671 87.3033M135.468 97.1581C135.468 97.1581 134.308 95.419 133.151 94.5495C131.993 93.68 126.774 92.5206 124.165 90.7815C121.557 89.0424 118.368 85.5643 117.789 84.4049C117.209 83.2455 116.6 81.2157 116.338 79.1876M153.671 87.3033L147.641 80.0572L147.062 72.5212L138.076 61.7969M138.076 61.7969C138.076 61.7969 136.917 59.7679 131.41 58.6085C128.176 57.9277 125.042 59.1459 123.006 60.2676M138.076 61.7969C138.085 60.7018 138.195 60.1342 137.208 58.6085C137.208 58.6085 132.911 53.8059 128.802 49.6298C128.511 49.334 128.221 49.0413 127.933 48.7538C126.869 47.6894 125.561 46.4861 124.193 45.2756C119.974 41.5416 115.18 37.7396 115.18 37.7396C115.18 37.7396 114.707 37.3337 114.021 36.9795C113.287 36.6005 112.311 36.2806 111.412 36.5802C109.673 37.1599 110.542 42.0873 110.542 42.0873C110.542 42.0873 110.542 43.5365 115.18 48.7538C116.163 49.8597 117.029 50.7573 117.789 51.5017C120.613 54.2689 121.969 54.9193 122.426 56.2898C123.006 58.0288 123.006 60.2676 123.006 60.2676M120.686 61.7969C121.265 65.8547 123.294 67.5938 125.323 67.8836C127.352 68.1735 129.091 67.3039 131.12 68.1735C133.149 69.043 134.308 72.5212 134.308 72.5212C134.308 72.5212 136.047 75.4196 134.598 76.8689C134.169 77.2976 133.538 77.4727 132.861 77.5066M120.686 61.7969C120.686 61.7969 118.077 60.3476 116.338 62.3765C114.599 64.4055 116.338 67.0141 116.338 67.0141C117.229 67.8622 118.054 68.628 118.843 69.3329M120.686 61.7969C120.686 61.7969 121.575 61.0561 123.006 60.2676M132.861 77.5066C131.249 77.5874 129.381 76.8689 129.381 76.8689C125.01 74.32 122.277 72.4035 118.843 69.3329M132.861 77.5066C132.861 77.5066 134.31 78.3181 134.02 80.0572C133.73 81.7962 131.41 81.7962 131.41 81.7962M131.41 81.7962C131.41 81.7962 126.484 80.6369 122.136 78.608C119.508 77.3813 117.833 75.8368 116.919 74.8072M131.41 81.7962C130.233 83.2607 129.455 83.6516 127.354 83.5353C127.354 83.5353 123.006 83.5353 120.686 82.6658C118.365 81.7963 116.338 79.1876 116.338 79.1876M118.843 69.3329C118.843 69.3329 117.789 69.3329 116.629 70.4922C115.47 71.6516 116.05 73.6806 116.05 73.6806C116.05 73.6806 116.322 74.1338 116.919 74.8072M116.919 74.8072C115.963 75.9259 115.671 76.7446 116.338 79.1876M101.267 49.9131C100.961 49.6727 100.672 49.4249 100.397 49.1704M100.397 49.1704L142.135 148.461C142.135 148.461 143.005 154.258 140.396 157.156C137.787 160.054 134.308 160.344 134.308 160.344H95.1799C95.1799 160.344 83.2964 155.707 74.3109 151.939C65.3254 148.171 47.3552 136.867 47.3552 136.867L8.80563 44.4058C8.80563 44.4058 6.77671 38.6089 9.67517 35.1307C12.5736 31.6526 15.7619 31.6526 15.7619 31.6526H47.3552H90.4235C93.4674 33.2618 94.915 34.5197 96.1121 38.6089C96.0854 42.283 97.1801 46.1871 100.397 49.1704Z" stroke="#1D1D1F" stroke-width="0.5"/>
<path d="M9.67628 35.1307C12.5747 31.6526 15.7631 31.6526 15.7631 31.6526H8.2273C8.2273 31.6526 4.16945 31.9424 1.56084 35.1307C-1.04778 38.319 0.401449 43.2464 0.401449 43.2464L34.8932 125.853C38.944 131.009 41.7964 133.302 47.3563 136.867L8.80674 44.4058C8.80674 44.4058 6.77782 38.6089 9.67628 35.1307Z" fill="#44627F"/>
<path d="M134.309 160.344H95.181C105.148 163.901 111.206 165.376 122.137 167.88H127.064H138.078C138.078 167.88 141.556 166.141 143.875 163.243C146.194 160.344 145.034 155.707 145.034 155.707L142.136 148.461C142.136 148.461 143.006 154.258 140.397 157.156C137.788 160.054 134.309 160.344 134.309 160.344Z" fill="#44627F"/>
<path d="M9.67517 35.1307C12.5736 31.6526 15.7619 31.6526 15.7619 31.6526H47.3552H90.4235C93.4674 33.2618 94.915 34.5197 96.1121 38.6089C96.0854 42.283 97.1801 46.1871 100.397 49.1704L142.135 148.461C142.135 148.461 143.005 154.258 140.396 157.156C137.787 160.054 134.308 160.344 134.308 160.344H95.1799C95.1799 160.344 83.2964 155.707 74.3109 151.939C65.3254 148.171 47.3552 136.867 47.3552 136.867L8.80563 44.4058C8.80563 44.4058 6.77671 38.6089 9.67517 35.1307Z" fill="white"/>
<path d="M50.2548 62.956C49.6751 61.7966 43.5883 45.2756 58.3705 45.2756C73.1527 45.2756 77.2105 58.8982 77.7902 60.3474C78.3699 61.7966 80.9785 74.5499 68.2253 74.8397C55.472 75.1296 50.8345 64.1154 50.2548 62.956Z" fill="#97B2CB"/>
<path d="M103.297 82.6658C101.558 82.6656 43.0087 82.6656 40.4 82.6658C37.7914 82.6661 36.9219 84.4047 36.9219 85.8539V92.2305C36.9219 94.2594 37.953 95.1757 40.4 95.129H103.297C105.326 95.129 106.775 94.2594 106.775 92.2305V85.8539C106.775 82.9554 105.036 82.6661 103.297 82.6658Z" fill="#97B2CB"/>
<path d="M118.66 104.984C116.921 104.984 58.3717 104.984 55.7631 104.984C53.1544 104.984 52.2849 106.723 52.2849 108.172V114.549C52.2849 116.578 53.316 117.494 55.7631 117.447H118.66C120.689 117.447 122.138 116.578 122.138 114.549V108.172C122.138 105.274 120.399 104.984 118.66 104.984Z" fill="#97B2CB"/>
<path d="M124.456 127.012H98.949C96.9201 127.012 96.3404 128.171 96.3404 129.621V134.548C96.3404 136.287 97.2099 136.577 98.949 136.577H124.456C125.615 136.577 127.064 136.577 127.064 134.548V129.621C127.064 128.171 126.774 127.012 124.456 127.012Z" fill="#97B2CB"/>
<path d="M57.2111 57.4489C57.2111 57.4489 54.8923 50.4926 59.8197 50.2028C64.7471 49.9129 67.3557 55.7099 67.3557 55.7099C67.3557 55.7099 68.805 61.2169 63.8776 61.5068C58.9502 61.7966 57.2111 57.4489 57.2111 57.4489Z" fill="white"/>
<path d="M63.8776 62.6662C57.501 62.6662 56.9213 66.724 57.2111 67.3037C57.501 67.8834 62.7182 71.3616 66.776 71.0717C70.8339 70.7819 73.4425 67.8834 73.7324 67.3037C74.0222 66.724 70.2542 62.6662 63.8776 62.6662Z" fill="white"/>
<path d="M110.542 42.0873C110.542 42.0873 109.673 37.1599 111.412 36.5802C112.311 36.2805 113.287 36.6005 114.021 36.9795C114.706 37.3337 115.18 37.7396 115.18 37.7396C115.18 37.7396 119.973 41.5416 124.193 45.2756C124.193 45.2756 127.853 36.8914 123.872 29.9135C123.113 28.5839 122.077 27.3054 120.685 26.1457C119.73 25.3497 118.761 24.7146 117.788 24.2192C109.909 20.2055 101.818 25.3687 99.2382 28.4645C97.7302 30.2744 96.1433 34.2822 96.1118 38.6089C96.085 42.283 97.1798 46.1871 100.397 49.1704C100.671 49.4249 100.961 49.6727 101.267 49.9131C109.383 56.2898 117.788 51.5017 117.788 51.5017C117.029 50.7573 116.163 49.8597 115.18 48.7538C110.542 43.5365 110.542 42.0873 110.542 42.0873Z" fill="#5D707E"/>
<path d="M110.543 42.0873C110.543 42.0873 109.673 37.1599 111.412 36.5802C112.311 36.2805 113.288 36.6005 114.021 36.9795L115.18 36.0002L116.63 37.1596L117.789 36.0002L116.34 34.551L116.92 33.9713L118.369 35.4206L119.528 33.9713L118.659 32.8119L119.528 31.6525L117.209 29.3338L109.094 37.7396C109.094 37.7396 107.355 36.5799 104.166 38.319C100.978 40.0581 103.007 44.4063 103.587 45.2756C104.166 46.1449 107.934 47.5941 109.384 46.1449C110.833 44.6956 110.543 42.0873 110.543 42.0873Z" fill="white"/>
<path d="M105.325 43.5363C105.035 43.2464 104.456 41.2175 105.905 40.0581C107.354 38.8987 108.803 40.6378 108.803 40.6378C108.803 40.6378 109.963 42.3769 108.514 43.5363C107.064 44.6956 105.615 43.8261 105.325 43.5363Z" fill="#5D707E"/>
<path d="M223.873 33.9716C223.293 33.6818 220.684 35.131 220.684 35.131C216.282 37.1411 211.975 39.1668 208.038 41.5076C206.504 42.4199 205.026 43.3801 203.621 44.4058C200.177 46.9199 197.17 49.828 194.84 53.3913C193.431 55.5475 192.269 57.9436 191.41 60.6375C187.062 74.2603 191.41 73.6806 187.932 83.2455C184.453 92.8104 176.917 95.1292 178.946 102.665C180.975 110.201 189.96 115.708 191.41 117.158C192.859 118.607 196.047 124.694 192.859 126.433C189.671 128.172 189.671 118.607 187.932 116.288C186.192 113.969 174.309 108.462 169.961 103.825C165.613 99.187 161.845 90.7815 158.947 86.7237C156.048 82.6658 154.309 81.5064 153.73 81.7963C153.15 82.0861 153.73 84.115 153.73 84.115C153.73 84.115 153.962 85.3336 153.673 87.3034C153.316 89.736 152.166 93.3143 148.802 97.1581C142.715 104.114 135.469 97.1581 135.469 97.1581C135.469 97.1581 132.861 101.506 134.6 106.143C136.339 110.781 145.324 115.418 149.962 122.665C154.599 129.911 157.498 139.186 162.135 144.403C166.773 149.62 174.888 155.997 191.41 154.258C207.931 152.519 213.438 147.012 220.684 135.998C222.754 132.852 224.232 129.612 225.315 126.433C228.025 118.479 228.261 110.906 229.09 106.143C230.249 99.4769 235.756 77.7384 234.597 77.4486C233.437 77.1587 231.698 81.7963 229.09 79.1877C227.505 77.603 229.236 71.9542 230.709 66.7241C231.661 63.3442 232.506 60.1392 232.278 58.3187C231.698 53.6811 225.612 51.6523 223.003 48.1741C220.394 44.6959 223.873 37.4498 223.873 37.4498C223.873 37.4498 224.452 34.2614 223.873 33.9716Z" fill="#44627F" stroke="#1D1D1F" stroke-width="0.5"/>
<path d="M218.945 52.5218C214.017 44.4061 208.038 41.5076 208.038 41.5076C206.503 42.4199 205.026 43.3801 203.62 44.4058C200.176 46.9199 197.169 49.828 194.84 53.3913C194.84 53.3913 204.452 52.8116 209.959 62.0867C215.467 71.3618 213.148 78.3181 214.307 89.0425C215.467 99.7668 225.315 126.433 225.315 126.433C225.315 126.433 217.206 86.7237 217.495 77.4486C217.785 68.1735 223.872 60.6375 218.945 52.5218Z" fill="#5D707E"/>
<path d="M148.802 97.1581C142.715 104.114 135.469 97.1581 135.469 97.1581C135.469 97.1581 134.309 95.4191 133.152 94.5495C131.994 93.68 126.775 92.5206 124.166 90.7815C121.558 89.0424 118.369 85.5643 117.79 84.4049C117.21 83.2455 116.601 81.2157 116.339 79.1877C115.672 76.7447 115.964 75.9259 116.92 74.8072C116.323 74.1338 116.051 73.6806 116.051 73.6806C116.051 73.6806 115.471 71.6516 116.63 70.4923C117.79 69.3329 118.844 69.3329 118.844 69.3329C118.055 68.628 117.23 67.8623 116.339 67.0141C116.339 67.0141 114.6 64.4055 116.339 62.3766C118.078 60.3476 120.687 61.7969 120.687 61.7969C120.687 61.7969 121.576 61.0561 123.007 60.2676C123.007 60.2676 123.007 58.0289 122.427 56.2898C121.97 54.9194 120.614 54.2689 117.79 51.5017C117.03 50.7573 116.164 49.8597 115.181 48.7538C110.544 43.5365 110.544 42.0873 110.544 42.0873C110.544 42.0873 109.674 37.1599 111.413 36.5802C112.312 36.2806 113.288 36.6005 114.022 36.9795C114.708 37.3338 115.181 37.7396 115.181 37.7396C115.181 37.7396 119.975 41.5416 124.195 45.2756C125.562 46.4861 126.87 47.6894 127.934 48.7538C128.222 49.0414 128.512 49.334 128.803 49.6298C132.912 53.8059 137.209 58.6085 137.209 58.6085C138.197 60.1342 138.086 60.7018 138.077 61.7969L147.063 72.5212L147.642 80.0572L153.673 87.3034C153.316 89.736 152.165 93.3143 148.802 97.1581Z" fill="white"/>
<path d="M138.077 61.7969L147.063 72.5212L147.642 80.0572L153.673 87.3034C153.316 89.736 152.165 93.3143 148.802 97.1581C142.715 104.114 135.469 97.1581 135.469 97.1581C135.469 97.1581 134.309 95.4191 133.152 94.5495C131.994 93.68 126.775 92.5206 124.166 90.7815C121.558 89.0424 118.369 85.5643 117.79 84.4049C117.21 83.2455 116.601 81.2157 116.339 79.1877M138.077 61.7969C138.077 61.7969 136.918 59.7679 131.411 58.6085C128.177 57.9277 125.043 59.1459 123.007 60.2676M138.077 61.7969C138.086 60.7018 138.197 60.1342 137.209 58.6085C137.209 58.6085 132.912 53.8059 128.803 49.6298C128.512 49.334 128.222 49.0414 127.934 48.7538C126.87 47.6894 125.562 46.4861 124.195 45.2756C119.975 41.5416 115.181 37.7396 115.181 37.7396C115.181 37.7396 114.708 37.3338 114.022 36.9795C113.288 36.6005 112.312 36.2806 111.413 36.5802C109.674 37.1599 110.544 42.0873 110.544 42.0873C110.544 42.0873 110.544 43.5365 115.181 48.7538C116.164 49.8597 117.03 50.7573 117.79 51.5017C120.614 54.2689 121.97 54.9194 122.427 56.2898C123.007 58.0289 123.007 60.2676 123.007 60.2676M120.687 61.7969C121.266 65.8547 123.295 67.5938 125.324 67.8836C127.353 68.1735 129.092 67.3039 131.121 68.1735C133.15 69.043 134.309 72.5212 134.309 72.5212C134.309 72.5212 136.049 75.4197 134.599 76.8689C134.171 77.2976 133.539 77.4727 132.862 77.5066M120.687 61.7969C120.687 61.7969 118.078 60.3476 116.339 62.3766C114.6 64.4055 116.339 67.0141 116.339 67.0141C117.23 67.8623 118.055 68.628 118.844 69.3329M120.687 61.7969C120.687 61.7969 121.576 61.0561 123.007 60.2676M132.862 77.5066C131.25 77.5874 129.382 76.8689 129.382 76.8689C125.011 74.32 122.278 72.4035 118.844 69.3329M132.862 77.5066C132.862 77.5066 134.311 78.3181 134.021 80.0572C133.731 81.7962 131.411 81.7962 131.411 81.7962M131.411 81.7962C131.411 81.7962 126.485 80.6369 122.137 78.608C119.509 77.3813 117.834 75.8369 116.92 74.8072M131.411 81.7962C130.235 83.2607 129.457 83.6516 127.355 83.5354C127.355 83.5354 123.007 83.5354 120.687 82.6658C118.366 81.7963 116.339 79.1877 116.339 79.1877M118.844 69.3329C118.844 69.3329 117.79 69.3329 116.63 70.4923C115.471 71.6516 116.051 73.6806 116.051 73.6806C116.051 73.6806 116.323 74.1338 116.92 74.8072M116.92 74.8072C115.964 75.9259 115.672 76.7447 116.339 79.1877" stroke="#1D1D1F" stroke-width="0.5"/>
<path d="M122.428 56.2898C118.975 58.2253 116.901 58.4522 113.152 58.6085M106.776 17.4501C106.776 17.4501 98.3709 18.3201 92.8638 26.1457C91.6415 27.8826 90.8762 29.7708 90.4251 31.6526C88.8437 38.2493 91.3019 45.287 91.3019 44.9262M130.253 31.3627C132.483 39.7431 132.537 43.9103 128.804 49.6298" stroke="#44627F" stroke-width="2"/>
</svg>
