<svg width="12" height="14" viewBox="0 0 12 14" fill="none" xmlns="http://www.w3.org/2000/svg">
<path d="M2.28855 13.125C2.58452 13.1249 2.87565 13.0498 3.1347 12.9067C3.39375 12.7635 3.61226 12.557 3.76979 12.3064C3.92732 12.0559 4.01873 11.7694 4.03546 11.4739C4.05219 11.1784 3.9937 10.8835 3.86546 10.6168L5.80222 8.40683L7.72148 10.5971C7.55231 10.9379 7.49887 11.3247 7.56925 11.6987C7.63963 12.0726 7.83 12.4135 8.1115 12.6695C8.393 12.9256 8.7503 13.0829 9.12925 13.1177C9.50821 13.1524 9.88816 13.0627 10.2115 12.8621C10.5349 12.6615 10.7841 12.361 10.9213 12.006C11.0585 11.6511 11.0763 11.2611 10.972 10.8951C10.8676 10.5292 10.6469 10.2072 10.3431 9.97802C10.0393 9.74882 9.66909 9.62489 9.28855 9.625C9.25847 9.625 9.22839 9.625 9.19859 9.62719L6.66355 6.73476V4.13957C6.99717 3.94695 7.25791 3.64963 7.40534 3.29372C7.55276 2.93781 7.57862 2.5432 7.47892 2.17109C7.37921 1.79898 7.15951 1.47017 6.85388 1.23566C6.54825 1.00114 6.17378 0.874025 5.78855 0.874025C5.40331 0.874025 5.02884 1.00114 4.72322 1.23566C4.41759 1.47017 4.19789 1.79898 4.09818 2.17109C3.99847 2.5432 4.02434 2.93781 4.17176 3.29372C4.31918 3.64963 4.57993 3.94695 4.91355 4.13957V6.76594L2.40394 9.6291C2.36593 9.62664 2.32738 9.625 2.28855 9.625C1.82442 9.625 1.3793 9.80937 1.05111 10.1376C0.722925 10.4658 0.53855 10.9109 0.53855 11.375C0.53855 11.8391 0.722925 12.2842 1.05111 12.6124C1.3793 12.9406 1.82442 13.125 2.28855 13.125V13.125ZM10.1635 11.375C10.1635 11.5481 10.1122 11.7172 10.0161 11.8611C9.91994 12.005 9.78328 12.1172 9.6234 12.1834C9.46351 12.2496 9.28758 12.2669 9.11784 12.2332C8.94811 12.1994 8.7922 12.1161 8.66983 11.9937C8.54746 11.8713 8.46412 11.7154 8.43036 11.5457C8.3966 11.376 8.41393 11.2 8.48015 11.0402C8.54638 10.8803 8.65853 10.7436 8.80242 10.6475C8.94632 10.5513 9.11549 10.5 9.28855 10.5C9.52061 10.5 9.74317 10.5922 9.90727 10.7563C10.0714 10.9204 10.1635 11.1429 10.1635 11.375ZM5.78855 1.75C5.96161 1.75 6.13078 1.80132 6.27467 1.89746C6.41857 1.99361 6.53072 2.13027 6.59694 2.29015C6.66317 2.45004 6.6805 2.62597 6.64674 2.7957C6.61297 2.96544 6.52964 3.12135 6.40727 3.24372C6.2849 3.36609 6.12899 3.44942 5.95925 3.48319C5.78952 3.51695 5.61359 3.49962 5.4537 3.43339C5.29382 3.36717 5.15716 3.25502 5.06101 3.11112C4.96487 2.96723 4.91355 2.79806 4.91355 2.625C4.91355 2.39293 5.00574 2.17038 5.16983 2.00628C5.33392 1.84219 5.55648 1.75 5.78855 1.75V1.75ZM2.28855 10.5C2.46161 10.5 2.63078 10.5513 2.77467 10.6475C2.91857 10.7436 3.03072 10.8803 3.09694 11.0402C3.16317 11.2 3.1805 11.376 3.14674 11.5457C3.11297 11.7154 3.02964 11.8713 2.90727 11.9937C2.7849 12.1161 2.62899 12.1994 2.45925 12.2332C2.28952 12.2669 2.11359 12.2496 1.9537 12.1834C1.79382 12.1172 1.65716 12.005 1.56101 11.8611C1.46487 11.7172 1.41355 11.5481 1.41355 11.375C1.41355 11.1429 1.50574 10.9204 1.66983 10.7563C1.83393 10.5922 2.05649 10.5 2.28855 10.5Z" fill="#44627F"/>
</svg>
