<svg width="23" height="24" viewBox="0 0 23 24" fill="none" xmlns="http://www.w3.org/2000/svg">
<g clip-path="url(#clip0_735_15824)">
<path d="M11.37 5.16492L19.4291 13.2945V20.9996C19.4291 21.2811 19.3229 21.5463 19.1412 21.738C18.9604 21.9289 18.7208 22.031 18.4766 22.031H14.2108C14.155 22.031 14.0961 22.0079 14.0485 21.9577C14.0001 21.9066 13.9688 21.8322 13.9688 21.7496V15.3746C13.9688 15.1588 13.8878 14.9471 13.7363 14.7872C13.584 14.6264 13.3719 14.531 13.145 14.531H9.59233C9.36541 14.531 9.15326 14.6264 9.00096 14.7872C8.84946 14.9471 8.76849 15.1588 8.76849 15.3746V21.7496C8.76849 21.8322 8.73718 21.9066 8.68879 21.9577C8.64122 22.0079 8.58229 22.031 8.52654 22.031H4.25894C4.01476 22.031 3.7751 21.9289 3.59428 21.738C3.41266 21.5463 3.30649 21.2811 3.30647 20.9997C3.30647 20.9997 3.30647 20.9996 3.30647 20.9996L3.3078 13.2946L11.37 5.16492ZM3.3078 13.2619C3.3078 13.2621 3.30781 13.2623 3.30781 13.2625L3.3078 13.2619Z" fill="#44627F" stroke="#44627F" stroke-width="0.937164"/>
<path d="M21.7997 11.4445L18.478 8.09017V3C18.478 2.80109 18.4032 2.61032 18.2699 2.46967C18.1367 2.32902 17.9559 2.25 17.7675 2.25H15.6359C15.4475 2.25 15.2667 2.32902 15.1335 2.46967C15.0002 2.61032 14.9254 2.80109 14.9254 3V4.5L12.3533 1.90406C12.1126 1.64719 11.7547 1.5 11.3679 1.5C10.9824 1.5 10.6254 1.64719 10.3847 1.90453L0.939122 11.4436C0.662905 11.7249 0.628267 12.1875 0.879616 12.4922C0.942733 12.5691 1.02002 12.6317 1.10676 12.676C1.19351 12.7204 1.2879 12.7457 1.3842 12.7503C1.48049 12.755 1.57668 12.7389 1.6669 12.7031C1.75712 12.6672 1.83949 12.6124 1.90899 12.5419L11.1236 3.2475C11.1897 3.18074 11.2777 3.14348 11.3692 3.14348C11.4607 3.14348 11.5487 3.18074 11.6148 3.2475L20.8303 12.5419C20.966 12.6793 21.1479 12.7543 21.3359 12.7504C21.524 12.7466 21.7029 12.6642 21.8335 12.5213C22.1061 12.2231 22.0835 11.731 21.7997 11.4445Z" fill="#44627F"/>
</g>
<defs>
<clipPath id="clip0_735_15824">
<rect width="22.7368" height="24" fill="white"/>
</clipPath>
</defs>
</svg>
