<svg width="24" height="24" viewBox="0 0 24 24" fill="none" xmlns="http://www.w3.org/2000/svg">
<rect x="2.65" y="4.65" width="11.8364" height="15.7" rx="2.35" stroke="white" stroke-width="1.3"/>
<path d="M10 12.35C9.64101 12.35 9.35 12.641 9.35 13C9.35 13.359 9.64101 13.65 10 13.65V12.35ZM23.4596 13.4596C23.7135 13.2058 23.7135 12.7942 23.4596 12.5404L19.323 8.40381C19.0692 8.14997 18.6576 8.14997 18.4038 8.40381C18.15 8.65765 18.15 9.0692 18.4038 9.32304L22.0808 13L18.4038 16.677C18.15 16.9308 18.15 17.3424 18.4038 17.5962C18.6576 17.85 19.0692 17.85 19.323 17.5962L23.4596 13.4596ZM10 13.65H23V12.35H10V13.65Z" fill="white"/>
</svg>
