<svg width="97" height="97" viewBox="0 0 97 97" fill="none" xmlns="http://www.w3.org/2000/svg">
<path d="M38.484 0.470149L4.26701 3.60932C4.26701 3.60932 2.3835 3.60932 1.44175 4.55107C0.5 5.49283 0.5 6.43458 0.5 6.43458V86.7974C0.5 86.7974 0.813917 88.9948 1.75567 89.3088C2.69742 89.6227 3.95309 89.9366 3.95309 89.9366L38.1701 96.2149C38.1701 96.2149 41.3093 96.8427 42.251 95.901C43.1928 94.9593 43.5067 93.0758 43.5067 93.0758V3.60932C43.5067 3.60932 43.5067 2.03974 42.251 1.09798C40.9953 0.156231 38.484 0.470149 38.484 0.470149Z" fill="#97B2CB"/>
<path d="M46.018 8.94597V3.60932H62.9696C62.9696 3.60932 64.2252 3.60937 64.8531 4.23721C65.4809 4.86504 65.7948 6.12071 65.7948 6.12071V33.4315H60.1443V8.94597H46.018Z" fill="#97B2CB"/>
<path d="M65.7948 59.4867H60.1443V88.0531H46.018V93.0758H63.2835C63.2835 93.0758 63.9113 93.0758 64.8531 92.448C65.7948 91.8201 65.7948 91.1923 65.7948 91.1923V59.4867Z" fill="#97B2CB"/>
<path d="M46.018 56.3475V36.2568H67.9922V25.8975L96.2448 46.616L67.9922 67.3346V56.3475H46.018Z" fill="#97B2CB"/>
<path d="M38.484 0.470149L4.26701 3.60932C4.26701 3.60932 2.3835 3.60932 1.44175 4.55107C0.5 5.49283 0.5 6.43458 0.5 6.43458V86.7974C0.5 86.7974 0.813917 88.9948 1.75567 89.3088C2.69742 89.6227 3.95309 89.9366 3.95309 89.9366L38.1701 96.2149C38.1701 96.2149 41.3093 96.8427 42.251 95.901C43.1928 94.9593 43.5067 93.0758 43.5067 93.0758V3.60932C43.5067 3.60932 43.5067 2.03974 42.251 1.09798C40.9953 0.156231 38.484 0.470149 38.484 0.470149Z" stroke="#1D1D1F" stroke-width="0.5"/>
<path d="M46.018 8.94597V3.60932H62.9696C62.9696 3.60932 64.2252 3.60937 64.8531 4.23721C65.4809 4.86504 65.7948 6.12071 65.7948 6.12071V33.4315H60.1443V8.94597H46.018Z" stroke="#1D1D1F" stroke-width="0.5"/>
<path d="M65.7948 59.4867H60.1443V88.0531H46.018V93.0758H63.2835C63.2835 93.0758 63.9113 93.0758 64.8531 92.448C65.7948 91.8201 65.7948 91.1923 65.7948 91.1923V59.4867Z" stroke="#1D1D1F" stroke-width="0.5"/>
<path d="M46.018 56.3475V36.2568H67.9922V25.8975L96.2448 46.616L67.9922 67.3346V56.3475H46.018Z" stroke="#1D1D1F" stroke-width="0.5"/>
<path d="M31.5786 48.4995C31.5786 48.4995 30.9508 43.4768 34.0899 43.4768C37.2291 43.4768 36.9152 48.4995 36.9152 48.4995C36.9152 48.4995 36.2874 53.2083 34.0899 53.2083C31.8925 53.2083 31.5786 48.4995 31.5786 48.4995Z" fill="#44627F"/>
<path d="M46.0188 56.3474V36.2567H67.993V25.8975L96.2456 46.616L67.993 67.3345V56.3474H46.0188Z" fill="#44627F"/>
<path d="M31.5786 48.4995C31.5786 48.4995 30.9508 43.4768 34.0899 43.4768C37.2291 43.4768 36.9152 48.4995 36.9152 48.4995C36.9152 48.4995 36.2874 53.2083 34.0899 53.2083C31.8925 53.2083 31.5786 48.4995 31.5786 48.4995Z" stroke="#1D1D1F" stroke-width="0.5"/>
<path d="M46.0188 56.3474V36.2567H67.993V25.8975L96.2456 46.616L67.993 67.3345V56.3474H46.0188Z" stroke="#1D1D1F" stroke-width="0.5"/>
</svg>
