<svg width="23" height="24" viewBox="0 0 23 24" fill="none" xmlns="http://www.w3.org/2000/svg">
<path d="M6.97346 11.1474C6.75535 11.3776 6.63694 11.6847 6.63694 12C6.63694 12.3153 6.75535 12.6224 6.97346 12.8526C7.19239 13.0837 7.4949 13.2186 7.81605 13.2186H13.7422V17.6245C13.7416 18.2043 13.5229 18.7554 13.1415 19.1581C12.7608 19.5599 12.2502 19.7808 11.7234 19.7814H4.61921C4.09238 19.7808 3.58183 19.5599 3.20116 19.1581C2.81974 18.7555 2.60106 18.2044 2.60042 17.6247V6.37525C2.60106 5.79556 2.81974 5.24455 3.20116 4.84193C3.58177 4.44018 4.09222 4.21925 4.61896 4.21858H11.3687C11.916 4.21858 12.5201 4.45185 12.9866 4.85465C13.4497 5.25463 13.7422 5.78937 13.7422 6.375V10.7814H7.81605C7.4949 10.7814 7.19239 10.9163 6.97346 11.1474Z" fill="#44627F" stroke="#44627F" stroke-width="0.937164"/>
<path d="M20.3964 11.4699L16.8438 7.71994C16.7095 7.58522 16.5306 7.51123 16.3453 7.51373C16.16 7.51624 15.983 7.59504 15.852 7.73334C15.721 7.87164 15.6463 8.0585 15.6439 8.25407C15.6416 8.44964 15.7117 8.63845 15.8393 8.78025L18.1787 11.2501H14.21V12.7501H18.1787L15.8393 15.2199C15.7705 15.2889 15.7155 15.3717 15.6776 15.4634C15.6396 15.5551 15.6194 15.654 15.6182 15.7541C15.617 15.8542 15.6348 15.9535 15.6705 16.0462C15.7062 16.139 15.7592 16.2232 15.8263 16.294C15.8933 16.3648 15.9731 16.4207 16.061 16.4584C16.1488 16.4961 16.2429 16.5149 16.3378 16.5136C16.4326 16.5123 16.5262 16.491 16.6131 16.4509C16.7 16.4109 16.7785 16.3528 16.8438 16.2803L20.3964 12.5303C20.5296 12.3896 20.6044 12.1989 20.6044 12.0001C20.6044 11.8013 20.5296 11.6106 20.3964 11.4699Z" fill="#44627F"/>
</svg>
