<svg width="24" height="24" viewBox="0 0 24 24" fill="none" xmlns="http://www.w3.org/2000/svg">
<path d="M19.8214 16.1988L19.822 16.1996L20.6286 15.9989L20.0509 16.4772C20.0511 16.4773 20.0512 16.4775 20.0513 16.4777C20.1607 16.6099 20.2299 16.7707 20.2507 16.9411C20.2716 17.1116 20.2431 17.2845 20.1687 17.4394L20.1682 17.4406C20.0081 17.7751 19.6666 17.9986 19.2421 17.9986H4.76286C4.33291 17.9986 3.98952 17.7729 3.83121 17.4394L3.83017 17.4372C3.7561 17.2824 3.72792 17.1096 3.74897 16.9393C3.77002 16.769 3.83942 16.6083 3.94895 16.4762L3.94898 16.4762L3.95335 16.4709C4.01919 16.39 4.08395 16.3119 4.15019 16.232L4.17822 16.1982L4.17839 16.198L4.20126 16.1704C4.70537 15.562 5.19111 14.9758 5.52058 14.067C5.84927 13.1603 6.00599 11.9869 6.00599 10.1883C6.00599 8.68323 6.3073 7.50618 6.86727 6.59621C7.42305 5.69306 8.26986 4.99377 9.46868 4.50025L9.51001 4.48324L9.54903 4.46143C9.63622 4.41271 9.71465 4.34977 9.78108 4.27522L9.89198 4.15077L9.93972 3.99106C10.2692 2.88899 11.1301 2.25 11.9999 2.25C12.8697 2.25 13.731 2.88894 14.0605 3.99226L14.106 4.14473L14.2095 4.26557C14.2782 4.34576 14.3606 4.41312 14.453 4.46448L14.4914 4.48589L14.5322 4.50265C15.563 4.92677 16.3069 5.48318 16.8491 6.19219L16.8496 6.19273C17.5854 7.15303 17.9943 8.47815 17.9943 10.1897C17.9943 11.9878 18.1512 13.1608 18.4801 14.0674C18.8091 14.9747 19.2938 15.5609 19.7965 16.1687L19.8214 16.1988Z" stroke="#FEFEFE" stroke-width="1.5"/>
<mask id="path-2-inside-1_1012_1881" fill="white">
<path d="M11.9989 22.5C12.6763 22.4994 13.3409 22.3156 13.9222 21.9679C14.5035 21.6202 14.9799 21.1217 15.3008 20.5252C15.3159 20.4966 15.3234 20.4646 15.3225 20.4322C15.3216 20.3999 15.3123 20.3684 15.2956 20.3407C15.2789 20.313 15.2553 20.2901 15.2272 20.2742C15.199 20.2583 15.1672 20.25 15.1349 20.25H8.86394C8.83156 20.2499 8.7997 20.2582 8.77147 20.274C8.74324 20.2899 8.7196 20.3128 8.70284 20.3405C8.68608 20.3682 8.67679 20.3997 8.67586 20.4321C8.67493 20.4645 8.6824 20.4965 8.69753 20.5252C9.01841 21.1216 9.49471 21.6201 10.0759 21.9678C10.6572 22.3155 11.3217 22.4994 11.9989 22.5Z"/>
</mask>
<path d="M11.9989 22.5L11.998 23.5L11.9997 23.5L11.9989 22.5ZM15.3008 20.5252L16.1815 20.9989L16.1848 20.9927L15.3008 20.5252ZM15.1349 20.25V21.25L15.1359 21.25L15.1349 20.25ZM8.86394 20.25L8.86043 21.25H8.86394V20.25ZM8.69753 20.5252L7.81352 20.9927L7.81689 20.9989L8.69753 20.5252ZM11.9997 23.5C12.8576 23.4993 13.6993 23.2664 14.4355 22.8261L13.4089 21.1097C12.9825 21.3647 12.495 21.4996 11.9981 21.5L11.9997 23.5ZM14.4355 22.8261C15.1717 22.3858 15.775 21.7544 16.1815 20.9989L14.4202 20.0514C14.1848 20.4889 13.8353 20.8546 13.4089 21.1097L14.4355 22.8261ZM16.1848 20.9927C16.2806 20.8116 16.3279 20.6089 16.3221 20.4041L14.3229 20.4603C14.3189 20.3203 14.3513 20.1815 14.4168 20.0577L16.1848 20.9927ZM16.3221 20.4041C16.3163 20.1994 16.2577 19.9996 16.152 19.8242L14.4393 20.8571C14.3669 20.7371 14.3268 20.6004 14.3229 20.4603L16.3221 20.4041ZM16.152 19.8242C16.0462 19.6489 15.8969 19.5038 15.7185 19.4032L14.7359 21.1452C14.6138 21.0763 14.5117 20.9771 14.4393 20.8571L16.152 19.8242ZM15.7185 19.4032C15.5401 19.3026 15.3387 19.2498 15.1339 19.25L15.1359 21.25C14.9957 21.2501 14.858 21.214 14.7359 21.1452L15.7185 19.4032ZM15.1349 19.25H8.86394V21.25H15.1349V19.25ZM8.86745 19.25C8.66238 19.2493 8.46062 19.3017 8.28183 19.4021L9.26112 21.1459C9.13879 21.2146 9.00074 21.2505 8.86043 21.25L8.86745 19.25ZM8.28183 19.4021C8.10303 19.5025 7.95328 19.6475 7.84715 19.823L9.55853 20.858C9.48591 20.978 9.38345 21.0772 9.26112 21.1459L8.28183 19.4021ZM7.84715 19.823C7.74103 19.9984 7.68216 20.1984 7.67627 20.4034L9.67545 20.4608C9.67142 20.6011 9.63114 20.7379 9.55853 20.858L7.84715 19.823ZM7.67627 20.4034C7.67038 20.6084 7.71768 20.8114 7.81354 20.9927L9.58152 20.0576C9.64711 20.1817 9.67948 20.3206 9.67545 20.4608L7.67627 20.4034ZM7.81689 20.9989C8.22326 21.7543 8.82649 22.3856 9.5626 22.826L10.5893 21.1096C10.1629 20.8546 9.81355 20.4889 9.57818 20.0514L7.81689 20.9989ZM9.5626 22.826C10.2987 23.2663 11.1403 23.4992 11.998 23.5L11.9999 21.5C11.5031 21.4995 11.0156 21.3646 10.5893 21.1096L9.5626 22.826Z" fill="white" mask="url(#path-2-inside-1_1012_1881)"/>
</svg>
