<svg width="243" height="242" viewBox="0 0 243 242" fill="none" xmlns="http://www.w3.org/2000/svg">
<path d="M131.567 77.3925L127.111 72.2997C127.111 72.2997 116.288 67.2069 104.193 67.2069C92.0974 67.2069 83.1849 71.0265 75.5456 72.9363C75.5456 72.9363 83.8214 46.8355 103.556 43.0159C123.291 39.1962 140.479 49.3819 140.479 49.3819C140.479 49.3819 150.45 18.8249 185.889 30.9204C221.328 43.0159 207.323 80.5755 207.323 80.5755C207.323 80.5755 234.06 76.7559 239.153 100.31C244.246 123.865 231.514 144.873 231.514 144.873C231.514 144.873 247.429 154.422 241.063 171.61C234.697 188.798 223.874 187.525 216.872 188.798C209.869 190.072 197.474 192.238 188.637 192.618C190.157 188.419 191.206 184.262 190.771 178.613C190.134 170.337 183.132 156.332 183.132 156.332C181.432 157.413 179.695 158.007 178.039 158.287C178.039 158.287 186.315 170.973 186.315 183.069C186.315 186.418 185.534 189.473 184.405 192.142C184.405 192.142 174.219 188.162 168.49 186.252C162.76 184.342 144.299 190.708 122.654 189.435C101.01 188.162 96.5535 160.788 96.5535 160.788C96.5535 160.788 73.6357 169.064 58.9938 144.873C44.3519 120.682 64.7233 107.149 64.7233 107.149C64.7233 107.149 57.084 94.9666 63.4501 88.2148C69.8161 81.463 75.5456 79.0908 75.5456 79.0908C87.9403 76.0091 99.5717 72.2997 106.103 72.2997C116.925 72.2997 122.018 77.3925 122.018 77.3925L125.201 81.2121C125.201 81.2121 126.474 82.4854 129.021 80.5755C131.567 78.6657 131.567 77.3925 131.567 77.3925Z" fill="#97B2CB"/>
<path d="M122.018 77.3926C122.018 77.3926 116.925 81.8488 118.198 88.2148C119.044 92.4473 123.549 100.901 126.473 106.091M122.018 77.3926L125.201 81.2122C125.201 81.2122 126.474 82.4854 129.02 80.5756C131.567 78.6658 131.567 77.3926 131.567 77.3926L127.11 72.2997M122.018 77.3926C122.018 77.3926 116.924 72.2997 106.102 72.2997C99.5711 72.2997 87.9397 76.0091 75.545 79.0908C67.4008 81.1157 58.927 82.8696 51.354 83.122C32.2559 83.7586 22.7068 69.7533 22.7068 69.7533C18.6545 61.9829 18.9362 56.9512 18.8872 48.1088M127.11 72.2997C127.11 72.2997 135.387 69.7533 142.389 73.5729C146.674 75.9104 152.152 80.8704 155.757 84.3677M127.11 72.2997C127.11 72.2997 116.288 67.2069 104.192 67.2069C92.0967 67.2069 83.1843 71.0265 75.545 72.9363C67.9057 74.8462 55.1737 75.4828 48.171 75.4828C41.1683 75.4828 33.5291 74.2095 28.4363 66.5703C23.3434 58.931 23.98 51.2918 23.98 51.2918M126.473 106.091C127.948 108.708 129.02 110.496 129.02 110.496C129.02 110.496 132.068 110.496 136.382 109.223M126.473 106.091C126.473 106.091 136.659 103.493 143.025 99.0371C149.391 94.5809 155.757 84.3677 155.757 84.3677M155.757 84.3677C158.044 86.5853 159.577 88.2148 159.577 88.2148C159.577 88.2148 158.378 91.2115 155.757 94.9666M136.382 109.223L143.025 117.499C143.025 117.499 144.936 119.408 146.845 118.135C148.755 116.862 148.118 114.952 148.118 114.952L141.752 107.149M136.382 109.223C138.022 108.739 139.844 108.071 141.752 107.149M141.752 107.149C143.407 106.349 145.126 105.358 146.845 104.13C149.04 102.562 150.926 100.801 152.523 99.0371M152.523 99.0371L159.577 107.149C159.577 107.149 160.85 108.206 162.76 107.149C164.67 106.091 163.396 103.493 163.396 103.493L155.757 94.9666M152.523 99.0371C153.777 97.6513 154.852 96.2637 155.757 94.9666M18.8872 48.1088C18.8872 48.1088 1.69885 39.1963 1.06225 24.5544C0.425641 9.91247 4.88187 1 4.88187 1L9.97464 2.27321C9.97464 2.27321 6.15501 15.6419 6.79161 25.191C7.42822 34.7401 21.4335 41.7427 21.4335 41.7427M18.8872 48.1088L23.98 51.2918M23.98 51.2918C34.3946 53.2396 40.1721 53.3935 50.0807 51.2918C50.0807 51.2918 62.1762 45.5623 65.9959 37.9231C69.8155 30.2838 67.9057 25.191 67.9057 25.191C67.9057 25.191 63.4494 18.8249 53.9004 18.1883C44.3513 17.5517 38.6218 22.008 38.6218 22.008C26.7169 31.0762 26.3982 34.4941 21.4335 41.7427M21.4335 41.7427L26.5264 44.2891M26.5264 44.2891C26.5264 44.2891 40.5317 47.4721 45.6245 46.1989C50.7173 44.9257 58.9932 35.3767 58.9932 35.3767C58.9932 35.3767 62.8128 29.0106 60.2664 25.8276C57.72 22.6446 52.6272 23.2812 52.6272 23.2812C36.6586 26.1162 34.4594 33.9857 26.5264 44.2891ZM152.523 137.87C155.121 142.963 171.036 140.416 173.582 139.78C176.128 139.143 188.861 131.504 184.404 123.865M152.523 137.87C149.925 132.777 161.487 123.228 164.033 121.955C166.579 120.682 179.948 116.225 184.404 123.865M152.523 137.87C153.96 142.687 155.574 146.039 157.663 148.692M184.404 123.865C186.665 126.759 188.14 129.368 189.054 132.141M160.213 130.231L164.033 137.233M172.309 123.865L176.765 130.867M183.131 156.332C190.134 151.875 190.134 147.419 190.134 147.419C190.538 140.909 190.438 136.336 189.054 132.141M183.131 156.332C181.432 157.413 179.695 158.007 178.038 158.287M183.131 156.332C183.131 156.332 190.134 170.337 190.77 178.613C191.205 184.262 190.156 188.419 188.637 192.618C187.93 194.57 187.122 196.531 186.314 198.656C186.193 198.974 186.05 199.296 185.888 199.621M157.663 148.692C160.308 152.051 163.714 154.291 168.489 156.968C168.489 156.968 172.87 159.159 178.038 158.287M157.663 148.692C157.663 148.692 169.762 148.056 176.128 144.873C182.495 141.69 189.054 132.141 189.054 132.141M178.038 158.287C178.038 158.287 186.314 170.973 186.314 183.069C186.314 186.418 185.533 189.473 184.404 192.142C183.324 194.696 181.924 196.894 180.585 198.656M176.128 203.44C176.128 203.44 150.028 221.265 140.479 222.538C130.93 223.812 120.744 218.719 120.744 218.719C120.744 218.719 112.468 214.899 113.741 207.897C115.014 200.894 122.654 199.621 122.654 199.621C145.12 197.491 156.441 199.264 176.128 203.44ZM176.128 203.44C176.128 203.44 178.267 201.703 180.585 198.656M180.585 198.656C180.585 198.656 173.582 194.528 165.943 193.891C158.304 193.255 149.391 192.618 140.479 192.618C131.566 192.618 125.2 193.891 125.2 193.891C125.2 193.891 106.739 197.074 105.465 207.897C104.192 218.719 115.651 222.538 115.651 222.538C115.651 222.538 127.11 228.268 140.479 227.631C153.847 226.995 171.672 213.626 171.672 213.626C171.672 213.626 177.18 209.858 181.544 205.35M181.544 205.35C181.544 205.35 197.136 211.716 197.136 221.902C197.136 232.088 190.77 237.18 190.77 237.18L197.136 241C197.136 241 204.139 230.814 203.502 221.265C202.866 211.716 185.888 199.621 185.888 199.621M181.544 205.35C183.34 203.495 184.943 201.515 185.888 199.621" stroke="#1D1D1F" stroke-width="0.6"/>
<path d="M178.039 158.287C179.695 158.007 181.432 157.413 183.132 156.332C183.132 156.332 190.134 170.337 190.771 178.613C191.206 184.262 190.157 188.419 188.637 192.618C187.931 194.57 187.123 196.531 186.315 198.656C186.194 198.974 186.051 199.296 185.889 199.621C185.889 199.621 202.866 211.716 203.503 221.265C204.14 230.814 197.137 241 197.137 241L190.771 237.18C190.771 237.18 197.137 232.088 197.137 221.902C197.137 211.716 181.545 205.35 181.545 205.35C177.18 209.858 171.673 213.626 171.673 213.626C171.673 213.626 153.848 226.995 140.479 227.631C127.111 228.268 115.652 222.538 115.652 222.538C115.652 222.538 104.193 218.719 105.466 207.897C106.739 197.074 125.201 193.891 125.201 193.891C125.201 193.891 131.567 192.618 140.479 192.618C149.392 192.618 158.304 193.255 165.943 193.891C173.583 194.528 180.585 198.656 180.585 198.656C181.925 196.894 183.325 194.696 184.405 192.142C185.534 189.473 186.315 186.418 186.315 183.069C186.315 170.973 178.039 158.287 178.039 158.287Z" fill="#44627F"/>
<path d="M168.49 156.968C168.49 156.968 172.871 159.159 178.039 158.287M178.039 158.287C179.695 158.007 181.432 157.413 183.132 156.332C183.132 156.332 190.134 170.337 190.771 178.613C191.206 184.262 190.157 188.419 188.637 192.618C187.931 194.57 187.123 196.531 186.315 198.656C186.194 198.974 186.051 199.296 185.889 199.621M178.039 158.287C178.039 158.287 186.315 170.973 186.315 183.069C186.315 186.418 185.534 189.473 184.405 192.142C183.324 194.696 181.925 196.894 180.585 198.656M176.129 203.44C176.129 203.44 150.028 221.265 140.479 222.538C130.93 223.812 120.744 218.719 120.744 218.719C120.744 218.719 112.469 214.899 113.742 207.897C115.015 200.894 122.654 199.621 122.654 199.621C145.121 197.491 156.441 199.264 176.129 203.44ZM176.129 203.44C176.129 203.44 178.268 201.703 180.585 198.656M180.585 198.656C180.585 198.656 173.583 194.528 165.943 193.891C158.304 193.255 149.392 192.618 140.479 192.618C131.567 192.618 125.201 193.891 125.201 193.891C125.201 193.891 106.739 197.074 105.466 207.897C104.193 218.719 115.652 222.538 115.652 222.538C115.652 222.538 127.111 228.268 140.479 227.631C153.848 226.995 171.673 213.626 171.673 213.626C171.673 213.626 177.18 209.858 181.545 205.35M181.545 205.35C181.545 205.35 197.137 211.716 197.137 221.902C197.137 232.088 190.771 237.18 190.771 237.18L197.137 241C197.137 241 204.14 230.814 203.503 221.265C202.866 211.716 185.889 199.621 185.889 199.621M181.545 205.35C183.341 203.495 184.943 201.515 185.889 199.621" stroke="#1D1D1F" stroke-width="0.6"/>
<path d="M140.48 222.538C150.029 221.265 176.13 203.44 176.13 203.44C156.442 199.264 145.121 197.491 122.655 199.621C122.655 199.621 115.016 200.894 113.743 207.896C112.469 214.899 120.745 218.719 120.745 218.719C120.745 218.719 130.931 223.812 140.48 222.538Z" fill="white" stroke="#1D1D1F" stroke-width="0.6"/>
<path d="M164.033 121.955C166.579 120.682 179.948 116.225 184.404 123.865C186.664 126.759 188.139 129.368 189.054 132.141C190.437 136.336 190.538 140.909 190.134 147.419C190.134 147.419 190.134 151.875 183.131 156.332C181.431 157.413 179.694 158.007 178.038 158.287C172.87 159.159 168.489 156.968 168.489 156.968C163.714 154.291 160.308 152.051 157.663 148.692C155.574 146.039 153.96 142.687 152.522 137.87C149.924 132.777 161.486 123.228 164.033 121.955Z" fill="white"/>
<path d="M152.522 137.87C155.12 142.963 171.035 140.416 173.582 139.78C176.128 139.143 188.86 131.504 184.404 123.865M152.522 137.87C149.924 132.777 161.486 123.228 164.033 121.955C166.579 120.682 179.948 116.225 184.404 123.865M152.522 137.87C153.96 142.687 155.574 146.039 157.663 148.692M184.404 123.865C186.664 126.759 188.139 129.368 189.054 132.141M160.213 130.231L164.033 137.233M172.309 123.865L176.765 130.867M157.663 148.692C160.308 152.051 163.714 154.291 168.489 156.968C168.489 156.968 172.87 159.159 178.038 158.287C179.694 158.007 181.431 157.413 183.131 156.332C190.134 151.875 190.134 147.419 190.134 147.419C190.538 140.909 190.437 136.336 189.054 132.141M157.663 148.692C157.663 148.692 169.762 148.056 176.128 144.873C182.494 141.69 189.054 132.141 189.054 132.141" stroke="#1D1D1F" stroke-width="0.6"/>
<path d="M173.581 139.78C171.035 140.416 155.119 142.963 152.521 137.87C153.959 142.687 155.573 146.039 157.662 148.692C157.662 148.692 169.761 148.056 176.127 144.873C182.493 141.69 189.053 132.141 189.053 132.141C188.139 129.368 186.664 126.759 184.403 123.865C188.86 131.504 176.127 139.143 173.581 139.78Z" fill="#44627F" stroke="#1D1D1F" stroke-width="0.6"/>
<path d="M127.11 72.2997L131.567 77.3926C131.567 77.3926 131.567 78.6658 129.02 80.5756C126.474 82.4854 125.201 81.2122 125.201 81.2122L122.018 77.3926C122.018 77.3926 116.924 72.2997 106.102 72.2997C99.5711 72.2997 87.9397 76.0091 75.545 79.0908C67.4008 81.1157 58.927 82.8696 51.354 83.122C32.2559 83.7586 22.7068 69.7533 22.7068 69.7533C18.6545 61.9829 18.9362 56.9512 18.8872 48.1088C18.8872 48.1088 1.69885 39.1963 1.06225 24.5544C0.425641 9.91247 4.88187 1 4.88187 1L9.97464 2.27321C9.97464 2.27321 6.15501 15.6419 6.79161 25.191C7.42822 34.7401 21.4335 41.7427 21.4335 41.7427C26.3982 34.4941 26.7169 31.0762 38.6218 22.008C38.6218 22.008 44.3513 17.5517 53.9004 18.1883C63.4494 18.8249 67.9057 25.191 67.9057 25.191C67.9057 25.191 69.8155 30.2838 65.9959 37.9231C62.1762 45.5623 50.0807 51.2918 50.0807 51.2918C40.1721 53.3935 34.3946 53.2396 23.98 51.2918C23.98 51.2918 23.3434 58.931 28.4363 66.5703C33.5291 74.2095 41.1684 75.4828 48.171 75.4828C55.1737 75.4828 67.9057 74.8462 75.545 72.9363C83.1843 71.0265 92.0967 67.2069 104.192 67.2069C116.288 67.2069 127.11 72.2997 127.11 72.2997Z" fill="#44627F"/>
<path d="M18.8872 48.1088C18.9362 56.9512 18.6545 61.9829 22.7068 69.7533C22.7068 69.7533 32.2559 83.7586 51.354 83.122C58.927 82.8696 67.4008 81.1157 75.545 79.0908C87.9397 76.0091 99.5711 72.2997 106.102 72.2997C116.924 72.2997 122.018 77.3926 122.018 77.3926L125.201 81.2122C125.201 81.2122 126.474 82.4854 129.02 80.5756C131.567 78.6658 131.567 77.3926 131.567 77.3926L127.11 72.2997C127.11 72.2997 116.288 67.2069 104.192 67.2069C92.0967 67.2069 83.1843 71.0265 75.545 72.9363C67.9057 74.8462 55.1737 75.4828 48.171 75.4828C41.1683 75.4828 33.5291 74.2095 28.4363 66.5703C23.3434 58.931 23.98 51.2918 23.98 51.2918M18.8872 48.1088C18.8872 48.1088 1.69885 39.1963 1.06225 24.5544C0.425641 9.91247 4.88187 1 4.88187 1L9.97464 2.27321C9.97464 2.27321 6.15501 15.6419 6.79161 25.191C7.42822 34.7401 21.4335 41.7427 21.4335 41.7427M18.8872 48.1088L23.98 51.2918M23.98 51.2918C34.3946 53.2396 40.1721 53.3935 50.0807 51.2918C50.0807 51.2918 62.1762 45.5623 65.9959 37.9231C69.8155 30.2838 67.9057 25.191 67.9057 25.191C67.9057 25.191 63.4494 18.8249 53.9004 18.1883C44.3513 17.5517 38.6218 22.008 38.6218 22.008C26.7169 31.0762 26.3982 34.4941 21.4335 41.7427M21.4335 41.7427L26.5264 44.2891M26.5264 44.2891C26.5264 44.2891 40.5317 47.4721 45.6245 46.1989C50.7173 44.9257 58.9932 35.3767 58.9932 35.3767C58.9932 35.3767 62.8128 29.0106 60.2664 25.8276C57.72 22.6446 52.6272 23.2812 52.6272 23.2812C36.6586 26.1162 34.4594 33.9857 26.5264 44.2891Z" stroke="#1D1D1F" stroke-width="0.6"/>
<path d="M45.6235 46.1987C40.5307 47.472 26.5254 44.2889 26.5254 44.2889C34.4584 33.9855 36.6577 26.116 52.6262 23.281C52.6262 23.281 57.719 22.6444 60.2654 25.8274C62.8119 29.0104 58.9922 35.3765 58.9922 35.3765C58.9922 35.3765 50.7164 44.9255 45.6235 46.1987Z" fill="white" stroke="#1D1D1F" stroke-width="0.6"/>
<path d="M118.198 88.2149C116.925 81.8488 122.018 77.3926 122.018 77.3926L125.201 81.2122C125.201 81.2122 126.474 82.4854 129.021 80.5756C131.567 78.6658 131.567 77.3926 131.567 77.3926L127.111 72.2997C127.111 72.2997 135.387 69.7533 142.389 73.573C146.675 75.9104 152.152 80.8704 155.758 84.3677C158.044 86.5853 159.578 88.2149 159.578 88.2149C159.578 88.2149 158.379 91.2116 155.758 94.9667L163.397 103.493C163.397 103.493 164.67 106.092 162.76 107.149C160.851 108.206 159.578 107.149 159.578 107.149L152.523 99.0372C150.927 100.801 149.041 102.562 146.846 104.13C145.127 105.358 143.408 106.349 141.752 107.149L148.118 114.952C148.118 114.952 148.755 116.862 146.846 118.135C144.936 119.409 143.026 117.499 143.026 117.499L136.382 109.223C132.069 110.496 129.021 110.496 129.021 110.496C129.021 110.496 127.948 108.708 126.474 106.092C123.55 100.901 119.045 92.4473 118.198 88.2149Z" fill="white"/>
<path d="M126.474 106.092C123.55 100.901 119.045 92.4473 118.198 88.2149C116.925 81.8488 122.018 77.3926 122.018 77.3926L125.201 81.2122C125.201 81.2122 126.474 82.4854 129.021 80.5756C131.567 78.6658 131.567 77.3926 131.567 77.3926L127.111 72.2997C127.111 72.2997 135.387 69.7533 142.389 73.573C146.675 75.9104 152.152 80.8704 155.758 84.3677M126.474 106.092C127.948 108.708 129.021 110.496 129.021 110.496C129.021 110.496 132.069 110.496 136.382 109.223M126.474 106.092C126.474 106.092 136.66 103.493 143.026 99.0372C149.392 94.5809 155.758 84.3677 155.758 84.3677M155.758 84.3677C158.044 86.5853 159.578 88.2149 159.578 88.2149C159.578 88.2149 158.379 91.2116 155.758 94.9667M136.382 109.223L143.026 117.499C143.026 117.499 144.936 119.409 146.846 118.135C148.755 116.862 148.118 114.952 148.118 114.952L141.752 107.149M136.382 109.223C138.022 108.739 139.845 108.071 141.752 107.149M141.752 107.149C143.408 106.349 145.127 105.358 146.846 104.13C149.041 102.562 150.927 100.801 152.523 99.0372M152.523 99.0372L159.578 107.149C159.578 107.149 160.851 108.206 162.76 107.149C164.67 106.092 163.397 103.493 163.397 103.493L155.758 94.9667M152.523 99.0372C153.777 97.6513 154.852 96.2638 155.758 94.9667" stroke="#1D1D1F" stroke-width="0.6"/>
<path d="M129.021 110.496C129.021 110.496 127.949 108.708 126.475 106.091C126.475 106.091 136.66 103.493 143.026 99.0371C149.392 94.5809 155.758 84.3677 155.758 84.3677C158.045 86.5853 159.578 88.2148 159.578 88.2148C159.578 88.2148 158.38 91.2115 155.758 94.9666C154.853 96.2637 153.778 97.6513 152.524 99.0371C150.928 100.801 149.041 102.562 146.846 104.13C145.127 105.358 143.408 106.349 141.753 107.149C139.846 108.071 138.023 108.739 136.383 109.223C132.07 110.496 129.021 110.496 129.021 110.496Z" fill="#44627F"/>
<path d="M148.119 114.952L141.753 107.149M141.753 107.149C139.846 108.071 138.023 108.739 136.383 109.223C132.07 110.496 129.021 110.496 129.021 110.496C129.021 110.496 127.949 108.708 126.475 106.091C126.475 106.091 136.66 103.493 143.026 99.0371C149.392 94.5809 155.758 84.3677 155.758 84.3677C158.045 86.5853 159.578 88.2148 159.578 88.2148C159.578 88.2148 158.38 91.2115 155.758 94.9666C154.853 96.2637 153.778 97.6513 152.524 99.0371C150.928 100.801 149.041 102.562 146.846 104.13C145.127 105.358 143.408 106.349 141.753 107.149Z" stroke="#1D1D1F" stroke-width="0.6"/>
</svg>
