<svg width="64" height="64" viewBox="0 0 64 64" fill="none" xmlns="http://www.w3.org/2000/svg">
<g clip-path="url(#clip0_705_74227)">
<path d="M31.9959 -0.00378418C24.4537 -0.00378418 18.2853 6.16468 18.2853 13.7068C18.2853 21.2489 24.4537 27.426 31.9959 27.426C39.5466 27.426 45.7151 21.2576 45.7151 13.7068C45.7151 6.15604 39.5466 -0.00378418 31.9959 -0.00378418ZM27.4257 31.9962C21.9708 31.9985 16.74 34.1665 12.8829 38.0236C9.0257 41.8808 6.85776 47.1116 6.85547 52.5664V63.9962H57.1362V52.5664C57.134 47.1131 54.9672 41.8836 51.1119 38.0267C47.2566 34.1698 42.028 32.0008 36.5747 31.9962C36.2271 31.9964 35.8841 32.0758 35.5717 32.2283C35.2594 32.3807 34.9858 32.6023 34.7718 32.8763C34.5579 33.1502 34.4091 33.4693 34.3367 33.8092C34.2644 34.1492 34.2704 34.5012 34.3544 34.8386L38.6136 51.8666L31.9959 58.4757L25.3868 51.8666L29.646 34.8386C29.7315 34.5007 29.7387 34.1477 29.6671 33.8066C29.5955 33.4655 29.4469 33.1453 29.2328 32.8703C29.0186 32.5953 28.7445 32.3729 28.4313 32.2199C28.1182 32.0669 27.7742 31.9961 27.4257 31.9962Z" fill="#44627F"/>
</g>
<defs>
<clipPath id="clip0_705_74227">
<rect width="64" height="64" fill="white"/>
</clipPath>
</defs>
</svg>
