<svg width="24" height="24" viewBox="0 0 24 24" fill="none" xmlns="http://www.w3.org/2000/svg">
<g clip-path="url(#clip0_735_15828)">
<path d="M11.9989 -0.00146484C9.17064 -0.00146484 6.85747 2.31171 6.85747 5.14C6.85747 7.9683 9.17064 10.2847 11.9989 10.2847C14.8305 10.2847 17.1436 7.97154 17.1436 5.14C17.1436 2.30847 14.8305 -0.00146484 11.9989 -0.00146484ZM10.2851 11.9985C8.23954 11.9994 6.278 12.8124 4.83156 14.2588C3.38513 15.7052 2.57215 17.6668 2.57129 19.7124V23.9985H21.4266V19.7124C21.4257 17.6673 20.6132 15.7063 19.1675 14.26C17.7217 12.8136 15.761 12.0003 13.716 11.9985C13.5856 11.9986 13.457 12.0284 13.3399 12.0855C13.2228 12.1427 13.1202 12.2258 13.0399 12.3286C12.9597 12.4313 12.9039 12.5509 12.8768 12.6784C12.8496 12.8059 12.8519 12.9379 12.8834 13.0644L14.4806 19.4499L11.9989 21.9283L9.52053 19.4499L11.1177 13.0644C11.1498 12.9377 11.1525 12.8053 11.1256 12.6774C11.0988 12.5495 11.0431 12.4294 10.9628 12.3263C10.8825 12.2232 10.7797 12.1398 10.6622 12.0824C10.5448 12.025 10.4158 11.9985 10.2851 11.9985Z" fill="#44627F"/>
</g>
<defs>
<clipPath id="clip0_735_15828">
<rect width="24" height="24" fill="white"/>
</clipPath>
</defs>
</svg>
