<svg width="20" height="20" viewBox="0 0 20 20" fill="none" xmlns="http://www.w3.org/2000/svg">
<g clip-path="url(#clip0_1164_2953)">
<path d="M7.65619 8.24219H12.3437C12.6676 8.24219 12.9296 7.9802 12.9296 7.65625C12.9296 7.33242 12.6676 7.07031 12.3437 7.07031H7.65619C7.33236 7.07031 7.07025 7.33242 7.07025 7.65625C7.07025 7.9802 7.33236 8.24219 7.65619 8.24219ZM7.65619 10.5859H12.3437C12.6676 10.5859 12.9296 10.3239 12.9296 10C12.9296 9.67617 12.6676 9.41406 12.3437 9.41406H7.65619C7.33236 9.41406 7.07025 9.67617 7.07025 10C7.07025 10.3239 7.33236 10.5859 7.65619 10.5859ZM7.65619 12.9297H12.3437C12.6676 12.9297 12.9296 12.6677 12.9296 12.3438C12.9296 12.0199 12.6676 11.7578 12.3437 11.7578H7.65619C7.33236 11.7578 7.07025 12.0199 7.07025 12.3438C7.07025 12.6677 7.33236 12.9297 7.65619 12.9297ZM12.9705 4.30191C14.5217 5.11309 15.7078 6.52652 16.1954 8.24219H15.2734C15.1673 8.24217 15.0632 8.27096 14.9721 8.32549C14.8811 8.38001 14.8066 8.45823 14.7566 8.5518C14.7067 8.64532 14.683 8.75062 14.6882 8.85651C14.6934 8.96239 14.7271 9.06489 14.7859 9.15312C14.8547 9.27188 16.9699 12.9146 16.8367 12.6851C17.0541 13.0112 17.5942 13.0112 17.8117 12.6851C18.0351 12.3006 19.9783 9.02113 19.9017 9.15312C19.9604 9.06488 19.9941 8.96237 19.9992 8.85648C20.0044 8.7506 19.9807 8.64531 19.9308 8.5518C19.8808 8.45824 19.8063 8.38002 19.7153 8.32549C19.6243 8.27096 19.5202 8.24217 19.4142 8.24219H18.6126C18.0781 5.60945 16.356 3.42375 14.0403 2.22109C14.0789 2.36801 14.1009 2.51984 14.1009 2.67578C14.1021 3.92945 13.0882 4.22379 12.9705 4.30191ZM9.15306 0.0982812C9.0648 0.0395832 8.96229 0.00587988 8.85642 0.000749199C8.75055 -0.00438148 8.64526 0.0192519 8.55173 0.0691405C8.45817 0.119178 8.37995 0.193682 8.32543 0.284701C8.2709 0.375719 8.24211 0.479835 8.24213 0.585937V1.38734C5.06556 2.0323 2.51779 4.39297 1.59189 7.45758C1.90502 7.21023 2.2767 7.07094 2.67572 7.07094C3.20092 7.07094 3.67885 7.30301 4.00599 7.68461C4.73154 5.81406 6.29232 4.35867 8.24213 3.80449V4.72656C8.24211 4.83266 8.2709 4.93678 8.32543 5.0278C8.37995 5.11882 8.45817 5.19332 8.55173 5.24336C8.64526 5.29325 8.75055 5.31689 8.85642 5.31176C8.96229 5.30663 9.0648 5.27292 9.15306 5.21422C9.27181 5.14527 12.9145 3.03008 12.685 3.16328C13.0113 2.94586 13.0113 2.4057 12.685 2.18828C12.3005 1.96504 9.02107 0.0216796 9.15306 0.0982812ZM0.0690795 12.6201C0.119117 12.7136 0.193621 12.7919 0.28464 12.8464C0.375658 12.9009 0.479774 12.9297 0.585876 12.9297H1.72158C2.46728 15.0357 4.0008 16.7531 5.95728 17.773C5.91884 17.6265 5.89925 17.4757 5.899 17.3242C5.89775 16.0759 6.90361 15.7802 7.02095 15.7023C5.84146 15.0847 4.87482 14.1159 4.26615 12.9297H4.7265C4.8326 12.9297 4.93672 12.9009 5.02774 12.8464C5.11876 12.7919 5.19326 12.7136 5.2433 12.6201C5.2932 12.5266 5.31683 12.4213 5.31167 12.3154C5.30651 12.2095 5.27276 12.107 5.214 12.0188C5.14521 11.9 3.03002 8.2573 3.16322 8.4868C2.9458 8.1607 2.40564 8.1607 2.18822 8.4868C2.03377 8.75273 -0.0279908 12.2363 0.0982201 12.0188C0.0395221 12.107 0.00581885 12.2095 0.000688164 12.3154C-0.00444252 12.4213 0.0191909 12.5266 0.0690795 12.6201ZM11.7578 15.2734C11.7578 15.1673 11.729 15.0632 11.6745 14.9722C11.6199 14.8812 11.5417 14.8067 11.4481 14.7566C11.3546 14.7067 11.2493 14.6831 11.1434 14.6883C11.0376 14.6934 10.935 14.7272 10.8468 14.7859C10.7281 14.8547 7.08537 16.9699 7.31486 16.8367C6.98877 17.0541 6.98877 17.5943 7.31486 17.8117C7.69935 18.035 10.9788 19.9783 10.8468 19.9017C10.9351 19.9605 11.0376 19.9942 11.1435 19.9993C11.2493 20.0044 11.3546 19.9808 11.4481 19.9309C11.5417 19.8809 11.6199 19.8064 11.6745 19.7154C11.729 19.6244 11.7578 19.5203 11.7578 19.4142V18.6127C14.3904 18.0782 16.5759 16.3564 17.7786 14.0408C17.6319 14.0796 17.4801 14.1016 17.3242 14.1016C16.3288 14.1016 15.9519 13.4674 15.6781 13.0113C14.8635 14.5429 13.4585 15.7121 11.7578 16.1955V15.2734Z" fill="white"/>
</g>
<defs>
<clipPath id="clip0_1164_2953">
<rect width="20" height="20" fill="white"/>
</clipPath>
</defs>
</svg>
