<svg width="64" height="64" viewBox="0 0 64 64" fill="none" xmlns="http://www.w3.org/2000/svg">
<g clip-path="url(#clip0_705_74220)">
<path d="M24.4998 26.3749H39.4998C40.5364 26.3749 41.3748 25.5366 41.3748 24.4999C41.3748 23.4637 40.5364 22.6249 39.4998 22.6249H24.4998C23.4636 22.6249 22.6248 23.4637 22.6248 24.4999C22.6248 25.5366 23.4636 26.3749 24.4998 26.3749ZM24.4998 33.8749H39.4998C40.5364 33.8749 41.3748 33.0366 41.3748 31.9999C41.3748 30.9637 40.5364 30.1249 39.4998 30.1249H24.4998C23.4636 30.1249 22.6248 30.9637 22.6248 31.9999C22.6248 33.0366 23.4636 33.8749 24.4998 33.8749ZM24.4998 41.3749H39.4998C40.5364 41.3749 41.3748 40.5366 41.3748 39.4999C41.3748 38.4637 40.5364 37.6249 39.4998 37.6249H24.4998C23.4636 37.6249 22.6248 38.4637 22.6248 39.4999C22.6248 40.5366 23.4636 41.3749 24.4998 41.3749ZM41.5057 13.7661C46.4694 16.3618 50.2649 20.8848 51.8254 26.3749H48.8748C48.5353 26.3749 48.2021 26.467 47.9108 26.6415C47.6196 26.816 47.3812 27.0663 47.2211 27.3657C47.0614 27.665 46.9858 28.0019 47.0023 28.3407C47.0188 28.6796 47.1268 29.0076 47.3148 29.2899C47.5349 29.6699 54.3036 41.3266 53.8773 40.5922C54.5731 41.6357 56.3016 41.6357 56.9973 40.5922C57.7123 39.3618 63.9304 28.8676 63.6853 29.2899C63.8733 29.0075 63.9812 28.6795 63.9976 28.3407C64.014 28.0019 63.9383 27.6649 63.7786 27.3657C63.6185 27.0663 63.3802 26.816 63.0891 26.6415C62.7979 26.467 62.4648 26.3749 62.1253 26.3749H59.5603C57.8499 17.9502 52.3391 10.9559 44.9291 7.10743C45.0526 7.57755 45.1228 8.06343 45.1228 8.56243C45.1268 12.5742 41.8822 13.5161 41.5057 13.7661ZM29.2898 0.314426C29.0074 0.126593 28.6793 0.0187424 28.3405 0.0023242C28.0017 -0.014094 27.6648 0.0615329 27.3656 0.221176C27.0662 0.381297 26.8159 0.61971 26.6414 0.910968C26.4669 1.20223 26.3747 1.5354 26.3748 1.87493V4.43943C16.2098 6.5033 8.05693 14.0574 5.09405 23.8642C6.09605 23.0727 7.28543 22.6269 8.5623 22.6269C10.2429 22.6269 11.7723 23.3696 12.8192 24.5907C15.1409 18.6049 20.1354 13.9477 26.3748 12.1743V15.1249C26.3747 15.4645 26.4669 15.7976 26.6414 16.0889C26.8159 16.3801 27.0662 16.6186 27.3656 16.7787C27.6648 16.9383 28.0017 17.014 28.3405 16.9975C28.6793 16.9811 29.0074 16.8733 29.2898 16.6854C29.6698 16.4648 41.3264 9.69618 40.5921 10.1224C41.6361 9.42668 41.6361 7.69818 40.5921 7.00243C39.3617 6.28805 28.8674 0.0693015 29.2898 0.314426ZM0.221054 40.3842C0.381175 40.6836 0.619588 40.9339 0.910846 41.1084C1.2021 41.2829 1.53528 41.375 1.8748 41.3749H5.50905C7.8953 48.1142 12.8026 53.6098 19.0633 56.8734C18.9403 56.4046 18.8776 55.9221 18.8768 55.4374C18.8728 51.4428 22.0916 50.4966 22.4671 50.2474C18.6927 48.2709 15.5994 45.1708 13.6517 41.3749H15.1248C15.4643 41.375 15.7975 41.2829 16.0888 41.1084C16.38 40.9339 16.6184 40.6836 16.7786 40.3842C16.9382 40.0849 17.0139 39.7479 16.9973 39.4091C16.9808 39.0703 16.8728 38.7423 16.6848 38.4599C16.4647 38.0799 9.69605 26.4233 10.1223 27.1577C9.42655 26.1142 7.69805 26.1142 7.0023 27.1577C6.50805 28.0087 -0.0895706 39.1562 0.314304 38.4599C0.126471 38.7424 0.0186203 39.0704 0.00220212 39.4092C-0.0142161 39.748 0.0614109 40.0849 0.221054 40.3842ZM37.6248 48.8749C37.6249 48.5354 37.5327 48.2022 37.3582 47.911C37.1838 47.6197 36.9335 47.3813 36.6341 47.2212C36.3348 47.0615 35.9978 46.9859 35.659 47.0024C35.3202 47.0189 34.9921 47.1269 34.7098 47.3149C34.3298 47.535 22.6732 54.3037 23.4076 53.8774C22.3641 54.5732 22.3641 56.3017 23.4076 56.9974C24.6379 57.7118 35.1322 63.9306 34.7098 63.6854C34.9922 63.8734 35.3202 63.9813 35.6591 63.9977C35.9979 64.0141 36.3348 63.9384 36.6341 63.7787C36.9334 63.6187 37.1838 63.3804 37.3582 63.0892C37.5327 62.798 37.6249 62.4649 37.6248 62.1254V59.5604C46.0492 57.8501 53.0428 52.3403 56.8914 44.9306C56.4222 45.0547 55.9364 45.1249 55.4373 45.1249C52.2523 45.1249 51.0462 43.0957 50.1698 41.6362C47.5633 46.5371 43.0673 50.2787 37.6248 51.8256V48.8749Z" fill="#44627F"/>
</g>
<defs>
<clipPath id="clip0_705_74220">
<rect width="64" height="64" fill="white"/>
</clipPath>
</defs>
</svg>
