<svg width="24" height="24" viewBox="0 0 24 24" fill="none" xmlns="http://www.w3.org/2000/svg">
<path d="M15.5925 3.02719C14.6804 2.04234 13.4063 1.5 12 1.5C10.5863 1.5 9.30801 2.03906 8.40004 3.01781C7.48223 4.00734 7.03505 5.35219 7.14005 6.80438C7.34817 9.66938 9.52833 12 12 12C14.4718 12 16.6482 9.66984 16.8596 6.80531C16.966 5.36625 16.516 4.02422 15.5925 3.02719Z" stroke="white" stroke-width="1.5"/>
<path d="M20.2503 22.5H3.75027C3.5343 22.5028 3.32042 22.4574 3.12419 22.3672C2.92796 22.2769 2.75432 22.1441 2.61589 21.9783C2.31121 21.6141 2.18839 21.1167 2.27933 20.6137C2.67496 18.4191 3.90964 16.5755 5.85027 15.2812C7.57433 14.1323 9.75823 13.5 12.0003 13.5C14.2423 13.5 16.4262 14.1328 18.1503 15.2812C20.0909 16.575 21.3256 18.4186 21.7212 20.6133C21.8121 21.1162 21.6893 21.6136 21.3846 21.9778C21.2463 22.1437 21.0726 22.2766 20.8764 22.367C20.6802 22.4573 20.4663 22.5028 20.2503 22.5V22.5Z" stroke="white" stroke-width="1.5"/>
</svg>