<svg width="187" height="176" viewBox="0 0 187 176" fill="none" xmlns="http://www.w3.org/2000/svg">
<path d="M100.264 45.1853V37.9947C100.264 37.9947 100.194 37.3508 99.9794 36.2457C108.294 32.8163 112.705 30.7051 120.064 26.5287C119.435 27.4279 118.96 28.6292 119.31 30.0269C120.087 33.1363 123.002 32.7476 123.002 32.7476L131.94 30.9986L137.383 57.8174C129.986 63.4316 126.306 72.5872 129.027 78.6118C131.747 84.6364 136.994 92.7986 150.404 89.3005C163.813 85.8025 161.87 70.8381 161.87 70.8381C159.361 60.8588 155.54 58.0716 146.323 55.874L139.456 20.8929C139.456 20.8929 171.781 21.476 182.276 57.8174C192.77 94.1589 179.361 118.257 179.361 118.257C179.361 118.257 161.87 155.959 131.94 166.454C102.01 176.948 69.7528 175.976 69.7528 175.976C69.7528 175.976 22.3338 175.976 4.2602 136.72C-13.8134 97.4629 31.4678 55.874 31.4678 55.874V69.0119C33.0383 67.2989 35.7826 64.6072 39.6301 61.9351V51.9873C49.3422 47.3519 55.2982 45.703 65.866 42.659C76.5546 40.1327 91.9076 39.9382 91.9076 39.9382V45.1853H100.264Z" fill="#97B2CB"/>
<path d="M137.772 75.5024C137.772 75.5024 135.828 67.1458 143.602 65.3968C151.376 63.6477 152.542 71.4213 152.542 71.4213C152.542 71.4213 154.096 78.6118 147.683 80.3609C141.27 82.1101 137.772 75.5024 137.772 75.5024Z" fill="#97B2CB"/>
<path d="M143.212 127.78C143.212 127.78 143.212 155.765 115.033 155.959C99.3023 156.067 91.3841 148.121 87.458 140.606C84.351 134.659 83.7441 128.982 83.7441 127.78C83.7441 125.637 85.6733 106.372 100.263 99.1426C103.491 97.5431 107.339 96.5326 111.923 96.4272C112.924 96.4042 113.961 96.4243 115.033 96.4908C143.212 98.2399 143.212 127.78 143.212 127.78Z" fill="white"/>
<path d="M109.593 135.942C108.233 135.748 101.625 128.557 101.625 128.557C101.625 128.557 99.6821 125.642 101.625 124.282C103.569 122.921 105.318 125.059 105.318 125.059L109.593 129.14L121.642 117.48C121.642 117.48 124.363 115.731 125.529 117.48C126.695 119.229 124.558 121.367 124.558 121.367C124.558 121.367 110.954 136.137 109.593 135.942Z" fill="#97B2CB"/>
<path d="M114.839 10.3985L127.246 7.87207L131.939 30.9985L123.001 32.7476C123.001 32.7476 120.086 33.1363 119.309 30.0268C118.959 28.6292 119.434 27.4278 120.063 26.5287C120.834 25.4275 121.835 24.7797 121.835 24.7797L124.556 24.1966L123.001 17.0061L116.393 18.3664C116.393 18.3664 113.09 19.3381 112.118 15.6457C111.146 11.9532 114.839 10.3985 114.839 10.3985Z" fill="#5D707E"/>
<path d="M129.027 78.6118C126.306 72.5872 129.986 63.4316 137.383 57.8175L131.941 30.9986L127.247 7.8721L126.695 5.1513C126.695 5.1513 126.306 0.875816 130.582 0.0984558C134.857 -0.678904 136.023 3.40224 136.023 3.40224L139.456 20.8929L146.323 55.8741C155.54 58.0716 159.361 60.8588 161.87 70.8381C161.87 70.8381 163.814 85.8025 150.404 89.3005C136.995 92.7986 131.748 84.6364 129.027 78.6118Z" fill="#44627F"/>
<path d="M137.773 75.5024C137.773 75.5024 135.829 67.1458 143.603 65.3967C151.376 63.6477 152.542 71.4213 152.542 71.4213C152.542 71.4213 154.097 78.6118 147.684 80.3609C141.271 82.11 137.773 75.5024 137.773 75.5024Z" fill="#97B2CB"/>
<path d="M67.0327 6.12296C37.104 4.3739 31.4688 37.9947 31.4688 37.9947V55.8741V69.012C33.0392 67.2989 35.7836 64.6073 39.631 61.9351V51.9874V49.9649V37.9947C39.631 37.9947 43.5172 12.7306 67.0327 13.8967C90.5481 15.0627 91.9085 37.9947 91.9085 37.9947V39.9383V45.1853H100.265V37.9947C100.265 37.9947 100.194 37.3508 99.9804 36.2458C98.7299 29.793 92.5856 7.61629 67.0327 6.12296Z" fill="#44627F"/>
<path d="M101.625 70.8381C108.678 80.5909 109.656 86.295 111.925 96.4272C107.341 96.5327 103.493 97.5431 100.264 99.1427C98.4758 91.0849 97.9516 86.653 91.9078 77.8344C91.9078 77.8344 83.7452 66.9514 67.032 65.7853C50.3187 64.6193 39.6303 77.8344 39.6303 77.8344C39.6303 77.8344 30.1077 89.1061 31.468 102.127C32.8284 115.148 39.6303 122.338 39.6303 122.338C39.6303 122.338 53.0392 135.942 67.032 134.193C81.0248 132.444 83.7452 127.78 83.7452 127.78C83.7452 128.982 84.3521 134.659 87.4591 140.606C80.2715 144.803 75.4699 145.204 67.032 146.242C48.4855 145.82 34.1888 134.97 29.913 129.723C25.6372 124.476 21.362 119.812 19.613 104.265C17.8639 88.7174 29.913 70.8381 29.913 70.8381C29.913 70.8381 30.438 70.1355 31.468 69.012C33.0385 67.2989 35.7829 64.6072 39.6303 61.9351C45.9198 57.567 55.1569 53.251 67.032 53.3475C90.9358 53.5419 101.625 70.8381 101.625 70.8381Z" fill="#5D707E"/>
<path d="M61.9794 111.65V100.572C58.8525 98.4038 57.1209 95.7137 57.1209 94.159C57.1209 92.6042 56.7323 83.6646 65.8662 83.8589C75.0002 84.0533 74.2229 92.2156 74.2229 94.159C74.2229 96.1024 72.3504 98.9066 69.753 100.572V111.65C69.753 111.65 69.753 115.731 65.8662 115.925C61.9794 116.119 61.9794 111.65 61.9794 111.65Z" fill="#5D707E"/>
<path d="M83.7442 127.78C83.7442 125.637 85.6733 106.372 100.263 99.1427C98.4748 91.0849 97.9505 86.653 91.9068 77.8344C91.9068 77.8344 83.7442 66.9514 67.0309 65.7853C50.3177 64.6193 39.6293 77.8344 39.6293 77.8344C39.6293 77.8344 30.1066 89.1061 31.467 102.127C32.8274 115.148 39.6293 122.338 39.6293 122.338C39.6293 122.338 53.0381 135.942 67.0309 134.193C81.0237 132.444 83.7442 127.78 83.7442 127.78Z" fill="#44627F"/>
<path d="M61.9781 111.65V100.572C58.8511 98.4038 57.1196 95.7137 57.1196 94.159C57.1196 92.6043 56.7309 83.6646 65.8649 83.859C74.9989 84.0533 74.2215 92.2156 74.2215 94.159C74.2215 96.1024 72.349 98.9067 69.7517 100.572V111.65C69.7517 111.65 69.7517 115.731 65.8649 115.925C61.9781 116.119 61.9781 111.65 61.9781 111.65Z" fill="#97B2CB"/>
</svg>
