<svg width="24" height="24" viewBox="0 0 24 24" fill="none" xmlns="http://www.w3.org/2000/svg">
<path d="M23 8H21.421C20.978 8 20.588 8.29198 20.462 8.71602L19.49 12H19.382L18.95 10.688C18.814 10.277 18.432 10 18 10H16V8.99998C16 8.44798 15.553 8 15 8H13V7.00002H14C14.553 7.00002 15 6.55203 15 6.00003V2.99998C15 2.44798 14.553 2 14 2H6C5.44702 2 5.00002 2.44798 5.00002 2.99998V5.99998C5.00002 6.55198 5.44702 6.99997 6 6.99997H6.99998V7.99995H3.99998C3.447 8 3 8.44798 3 8.99998V13H2.00002V12C2.00002 11.448 1.55302 11 1.00003 11C0.447 11 0 11.448 0 12V16C0 16.552 0.447 17 0.999984 17C1.55297 17 1.99997 16.552 1.99997 16V15H3V17C3 17.148 3.033 17.294 3.09698 17.428L4.518 20.428C4.59883 20.5991 4.72663 20.7438 4.8865 20.845C5.04638 20.9463 5.23175 21.0001 5.421 21H17.474C17.6475 20.9999 17.818 20.9546 17.9688 20.8687C18.1196 20.7828 18.2454 20.6592 18.334 20.51L19.229 19.0001H19.557L20.49 21.3671C20.642 21.749 21.011 22.0001 21.421 22.0001H23C23.553 22.0001 24 21.5521 24 21.0001V8.99998C24 8.44798 23.553 8 23 8Z" fill="#44627F"/>
</svg>
